G04 #@! TF.GenerationSoftware,KiCad,Pcbnew,(5.0.2)-1*
G04 #@! TF.CreationDate,2019-05-25T20:09:21+08:00*
G04 #@! TF.ProjectId,2RELAY,3252454c-4159-42e6-9b69-6361645f7063,rev?*
G04 #@! TF.SameCoordinates,Original*
G04 #@! TF.FileFunction,Profile,NP*
%FSLAX46Y46*%
G04 Gerber Fmt 4.6, Leading zero omitted, Abs format (unit mm)*
G04 Created by KiCad (PCBNEW (5.0.2)-1) date 2019-05-25 20:09:21*
%MOMM*%
%LPD*%
G01*
G04 APERTURE LIST*
%ADD10C,0.200000*%
%ADD11C,0.150000*%
G04 APERTURE END LIST*
D10*
X158175223Y-124567720D02*
G75*
G02X158158180Y-123515120I23597J526820D01*
G01*
X177506031Y-123513009D02*
G75*
G02X177492660Y-124564140I-23531J-525351D01*
G01*
X177512980Y-123512580D02*
X158150560Y-123515120D01*
X158186120Y-124566680D02*
X177479960Y-124566680D01*
D11*
X178790600Y-99517200D02*
X130462020Y-99517200D01*
D10*
X136776850Y-107964056D02*
G75*
G02X136712960Y-109059980I-43570J-547284D01*
G01*
X149790380Y-116648763D02*
G75*
G02X150842980Y-116631720I526820J-23597D01*
G01*
X150842551Y-123736771D02*
G75*
G02X149791420Y-123723400I-525351J23531D01*
G01*
X149788880Y-116631720D02*
X149788880Y-123725940D01*
X150842980Y-123746260D02*
X150842980Y-116634260D01*
X161861521Y-113364746D02*
G75*
G02X161825940Y-111574580I35540J896143D01*
G01*
X166095659Y-111567494D02*
G75*
G02X166131240Y-113357660I-35540J-896143D01*
G01*
X161843720Y-113360200D02*
X166161720Y-113355120D01*
X161836100Y-111569500D02*
X166105840Y-111569500D01*
X151107119Y-111524314D02*
G75*
G02X151142700Y-113314480I-35540J-896143D01*
G01*
X143675121Y-113316486D02*
G75*
G02X143639540Y-111526320I35540J896143D01*
G01*
X143637000Y-113314480D02*
X151127460Y-113314480D01*
X143642080Y-111526320D02*
X151132540Y-111526320D01*
X153359080Y-101276683D02*
G75*
G02X154411680Y-101259640I526820J-23597D01*
G01*
X154408711Y-114922971D02*
G75*
G02X153357580Y-114909600I-525351J23531D01*
G01*
X154411680Y-114904520D02*
X154411680Y-101244400D01*
X153357580Y-101246940D02*
X153357580Y-114940080D01*
X132134031Y-109058798D02*
G75*
G02X132199380Y-107972860I42489J542378D01*
G01*
X132156200Y-109062520D02*
X136715500Y-109062520D01*
X132196840Y-107967780D02*
X136809480Y-107967780D01*
D11*
X178790600Y-125402340D02*
X178790600Y-99517200D01*
X178790600Y-125402340D02*
X130454400Y-125402340D01*
X130454400Y-125402340D02*
X130462020Y-99517200D01*
M02*
