M48
;DRILL file {KiCad (5.0.2)-1} date 2019-05-25 20:09:22
;FORMAT={-:-/ absolute / inch / decimal}
FMAT,2
INCH,TZ
T1C0.0157
T2C0.0315
T3C0.0394
T4C0.0591
T5C0.0709
%
G90
G05
T1
X5.8341Y-4.5165
X6.2695Y-4.7796
X6.3206Y-4.7786
X6.5113Y-4.6494
X6.6484Y-4.5038
X6.6943Y-4.6052
X6.7693Y-4.7781
X6.8208Y-4.7793
X6.8779Y-4.5203
X6.937Y-4.527
X6.9612Y-4.7847
T2
X5.3375Y-3.9832
X5.5344Y-4.0541
X6.7124Y-4.4393
X6.7911Y-4.4393
T3
X6.9712Y-3.9814
X6.9712Y-4.0814
X6.9712Y-4.1814
X6.9712Y-4.2814
X5.4852Y-4.3903
X5.4856Y-4.1903
X6.8437Y-3.9795
X6.8437Y-4.0795
X6.8437Y-4.1795
X6.8437Y-4.2795
X5.4411Y-4.879
X5.6411Y-4.879
X6.0411Y-4.879
X6.1411Y-4.879
X5.441Y-4.6544
X5.641Y-4.6544
X6.041Y-4.6544
X6.141Y-4.6544
T4
X5.225Y-4.3898G85X5.284Y-4.3898
G05
X5.2267Y-4.625G85X5.2857Y-4.625
G05
X5.2272Y-4.8582G85X5.2862Y-4.8582
G05
T5
X5.2212Y-4.0198G85X5.2212Y-4.126
G05
T0
M30
