G04 #@! TF.GenerationSoftware,KiCad,Pcbnew,(5.0.2)-1*
G04 #@! TF.CreationDate,2019-05-25T20:09:21+08:00*
G04 #@! TF.ProjectId,2RELAY,3252454c-4159-42e6-9b69-6361645f7063,rev?*
G04 #@! TF.SameCoordinates,Original*
G04 #@! TF.FileFunction,Soldermask,Bot*
G04 #@! TF.FilePolarity,Negative*
%FSLAX46Y46*%
G04 Gerber Fmt 4.6, Leading zero omitted, Abs format (unit mm)*
G04 Created by KiCad (PCBNEW (5.0.2)-1) date 2019-05-25 20:09:21*
%MOMM*%
%LPD*%
G01*
G04 APERTURE LIST*
%ADD10C,0.100000*%
G04 APERTURE END LIST*
D10*
G36*
X143590505Y-122915989D02*
X143781774Y-122995215D01*
X143953916Y-123110237D01*
X144100303Y-123256624D01*
X144215325Y-123428766D01*
X144294551Y-123620035D01*
X144334940Y-123823084D01*
X144334940Y-124030116D01*
X144294551Y-124233165D01*
X144215325Y-124424434D01*
X144100303Y-124596576D01*
X143953916Y-124742963D01*
X143781774Y-124857985D01*
X143590505Y-124937211D01*
X143387456Y-124977600D01*
X143180424Y-124977600D01*
X142977375Y-124937211D01*
X142786106Y-124857985D01*
X142613964Y-124742963D01*
X142467577Y-124596576D01*
X142352555Y-124424434D01*
X142273329Y-124233165D01*
X142232940Y-124030116D01*
X142232940Y-123823084D01*
X142273329Y-123620035D01*
X142352555Y-123428766D01*
X142467577Y-123256624D01*
X142613964Y-123110237D01*
X142786106Y-122995215D01*
X142977375Y-122915989D01*
X143180424Y-122875600D01*
X143387456Y-122875600D01*
X143590505Y-122915989D01*
X143590505Y-122915989D01*
G37*
G36*
X138510505Y-122915989D02*
X138701774Y-122995215D01*
X138873916Y-123110237D01*
X139020303Y-123256624D01*
X139135325Y-123428766D01*
X139214551Y-123620035D01*
X139254940Y-123823084D01*
X139254940Y-124030116D01*
X139214551Y-124233165D01*
X139135325Y-124424434D01*
X139020303Y-124596576D01*
X138873916Y-124742963D01*
X138701774Y-124857985D01*
X138510505Y-124937211D01*
X138307456Y-124977600D01*
X138100424Y-124977600D01*
X137897375Y-124937211D01*
X137706106Y-124857985D01*
X137533964Y-124742963D01*
X137387577Y-124596576D01*
X137272555Y-124424434D01*
X137193329Y-124233165D01*
X137152940Y-124030116D01*
X137152940Y-123823084D01*
X137193329Y-123620035D01*
X137272555Y-123428766D01*
X137387577Y-123256624D01*
X137533964Y-123110237D01*
X137706106Y-122995215D01*
X137897375Y-122915989D01*
X138100424Y-122875600D01*
X138307456Y-122875600D01*
X138510505Y-122915989D01*
X138510505Y-122915989D01*
G37*
G36*
X156290505Y-122915989D02*
X156481774Y-122995215D01*
X156653916Y-123110237D01*
X156800303Y-123256624D01*
X156915325Y-123428766D01*
X156994551Y-123620035D01*
X157034940Y-123823084D01*
X157034940Y-124030116D01*
X156994551Y-124233165D01*
X156915325Y-124424434D01*
X156800303Y-124596576D01*
X156653916Y-124742963D01*
X156481774Y-124857985D01*
X156290505Y-124937211D01*
X156087456Y-124977600D01*
X155880424Y-124977600D01*
X155677375Y-124937211D01*
X155486106Y-124857985D01*
X155313964Y-124742963D01*
X155167577Y-124596576D01*
X155052555Y-124424434D01*
X154973329Y-124233165D01*
X154932940Y-124030116D01*
X154932940Y-123823084D01*
X154973329Y-123620035D01*
X155052555Y-123428766D01*
X155167577Y-123256624D01*
X155313964Y-123110237D01*
X155486106Y-122995215D01*
X155677375Y-122915989D01*
X155880424Y-122875600D01*
X156087456Y-122875600D01*
X156290505Y-122915989D01*
X156290505Y-122915989D01*
G37*
G36*
X153750505Y-122915989D02*
X153941774Y-122995215D01*
X154113916Y-123110237D01*
X154260303Y-123256624D01*
X154375325Y-123428766D01*
X154454551Y-123620035D01*
X154494940Y-123823084D01*
X154494940Y-124030116D01*
X154454551Y-124233165D01*
X154375325Y-124424434D01*
X154260303Y-124596576D01*
X154113916Y-124742963D01*
X153941774Y-124857985D01*
X153750505Y-124937211D01*
X153547456Y-124977600D01*
X153340424Y-124977600D01*
X153137375Y-124937211D01*
X152946106Y-124857985D01*
X152773964Y-124742963D01*
X152627577Y-124596576D01*
X152512555Y-124424434D01*
X152433329Y-124233165D01*
X152392940Y-124030116D01*
X152392940Y-123823084D01*
X152433329Y-123620035D01*
X152512555Y-123428766D01*
X152627577Y-123256624D01*
X152773964Y-123110237D01*
X152946106Y-122995215D01*
X153137375Y-122915989D01*
X153340424Y-122875600D01*
X153547456Y-122875600D01*
X153750505Y-122915989D01*
X153750505Y-122915989D01*
G37*
G36*
X134672323Y-121854761D02*
X134824229Y-121869722D01*
X135019139Y-121928847D01*
X135116595Y-121958410D01*
X135214870Y-122010940D01*
X135386038Y-122102431D01*
X135622209Y-122296251D01*
X135816029Y-122532422D01*
X135907520Y-122703590D01*
X135960050Y-122801865D01*
X135960050Y-122801866D01*
X136048738Y-123094231D01*
X136078684Y-123398280D01*
X136048738Y-123702329D01*
X136012107Y-123823084D01*
X135960050Y-123994695D01*
X135941118Y-124030114D01*
X135816029Y-124264138D01*
X135622209Y-124500309D01*
X135386038Y-124694129D01*
X135294672Y-124742965D01*
X135116595Y-124838150D01*
X135051210Y-124857984D01*
X134824229Y-124926838D01*
X134718909Y-124937211D01*
X134596371Y-124949280D01*
X132443989Y-124949280D01*
X132321451Y-124937211D01*
X132216131Y-124926838D01*
X131989150Y-124857984D01*
X131923765Y-124838150D01*
X131745688Y-124742965D01*
X131654322Y-124694129D01*
X131418151Y-124500309D01*
X131224331Y-124264138D01*
X131099242Y-124030114D01*
X131080310Y-123994695D01*
X131028253Y-123823084D01*
X130991622Y-123702329D01*
X130961676Y-123398280D01*
X130991622Y-123094231D01*
X131080310Y-122801866D01*
X131080310Y-122801865D01*
X131132840Y-122703590D01*
X131224331Y-122532422D01*
X131418151Y-122296251D01*
X131654322Y-122102431D01*
X131825490Y-122010940D01*
X131923765Y-121958410D01*
X132021221Y-121928847D01*
X132216131Y-121869722D01*
X132368037Y-121854761D01*
X132443989Y-121847280D01*
X134596371Y-121847280D01*
X134672323Y-121854761D01*
X134672323Y-121854761D01*
G37*
G36*
X153746845Y-117210029D02*
X153938114Y-117289255D01*
X154110256Y-117404277D01*
X154256643Y-117550664D01*
X154371665Y-117722806D01*
X154450891Y-117914075D01*
X154491280Y-118117124D01*
X154491280Y-118324156D01*
X154450891Y-118527205D01*
X154371665Y-118718474D01*
X154256643Y-118890616D01*
X154110256Y-119037003D01*
X153938114Y-119152025D01*
X153746845Y-119231251D01*
X153543796Y-119271640D01*
X153336764Y-119271640D01*
X153133715Y-119231251D01*
X152942446Y-119152025D01*
X152770304Y-119037003D01*
X152623917Y-118890616D01*
X152508895Y-118718474D01*
X152429669Y-118527205D01*
X152389280Y-118324156D01*
X152389280Y-118117124D01*
X152429669Y-117914075D01*
X152508895Y-117722806D01*
X152623917Y-117550664D01*
X152770304Y-117404277D01*
X152942446Y-117289255D01*
X153133715Y-117210029D01*
X153336764Y-117169640D01*
X153543796Y-117169640D01*
X153746845Y-117210029D01*
X153746845Y-117210029D01*
G37*
G36*
X156286845Y-117210029D02*
X156478114Y-117289255D01*
X156650256Y-117404277D01*
X156796643Y-117550664D01*
X156911665Y-117722806D01*
X156990891Y-117914075D01*
X157031280Y-118117124D01*
X157031280Y-118324156D01*
X156990891Y-118527205D01*
X156911665Y-118718474D01*
X156796643Y-118890616D01*
X156650256Y-119037003D01*
X156478114Y-119152025D01*
X156286845Y-119231251D01*
X156083796Y-119271640D01*
X155876764Y-119271640D01*
X155673715Y-119231251D01*
X155482446Y-119152025D01*
X155310304Y-119037003D01*
X155163917Y-118890616D01*
X155048895Y-118718474D01*
X154969669Y-118527205D01*
X154929280Y-118324156D01*
X154929280Y-118117124D01*
X154969669Y-117914075D01*
X155048895Y-117722806D01*
X155163917Y-117550664D01*
X155310304Y-117404277D01*
X155482446Y-117289255D01*
X155673715Y-117210029D01*
X155876764Y-117169640D01*
X156083796Y-117169640D01*
X156286845Y-117210029D01*
X156286845Y-117210029D01*
G37*
G36*
X143586845Y-117210029D02*
X143778114Y-117289255D01*
X143950256Y-117404277D01*
X144096643Y-117550664D01*
X144211665Y-117722806D01*
X144290891Y-117914075D01*
X144331280Y-118117124D01*
X144331280Y-118324156D01*
X144290891Y-118527205D01*
X144211665Y-118718474D01*
X144096643Y-118890616D01*
X143950256Y-119037003D01*
X143778114Y-119152025D01*
X143586845Y-119231251D01*
X143383796Y-119271640D01*
X143176764Y-119271640D01*
X142973715Y-119231251D01*
X142782446Y-119152025D01*
X142610304Y-119037003D01*
X142463917Y-118890616D01*
X142348895Y-118718474D01*
X142269669Y-118527205D01*
X142229280Y-118324156D01*
X142229280Y-118117124D01*
X142269669Y-117914075D01*
X142348895Y-117722806D01*
X142463917Y-117550664D01*
X142610304Y-117404277D01*
X142782446Y-117289255D01*
X142973715Y-117210029D01*
X143176764Y-117169640D01*
X143383796Y-117169640D01*
X143586845Y-117210029D01*
X143586845Y-117210029D01*
G37*
G36*
X138506845Y-117210029D02*
X138698114Y-117289255D01*
X138870256Y-117404277D01*
X139016643Y-117550664D01*
X139131665Y-117722806D01*
X139210891Y-117914075D01*
X139251280Y-118117124D01*
X139251280Y-118324156D01*
X139210891Y-118527205D01*
X139131665Y-118718474D01*
X139016643Y-118890616D01*
X138870256Y-119037003D01*
X138698114Y-119152025D01*
X138506845Y-119231251D01*
X138303796Y-119271640D01*
X138096764Y-119271640D01*
X137893715Y-119231251D01*
X137702446Y-119152025D01*
X137530304Y-119037003D01*
X137383917Y-118890616D01*
X137268895Y-118718474D01*
X137189669Y-118527205D01*
X137149280Y-118324156D01*
X137149280Y-118117124D01*
X137189669Y-117914075D01*
X137268895Y-117722806D01*
X137383917Y-117550664D01*
X137530304Y-117404277D01*
X137702446Y-117289255D01*
X137893715Y-117210029D01*
X138096764Y-117169640D01*
X138303796Y-117169640D01*
X138506845Y-117210029D01*
X138506845Y-117210029D01*
G37*
G36*
X134659623Y-115931481D02*
X134811529Y-115946442D01*
X135006439Y-116005567D01*
X135103895Y-116035130D01*
X135202170Y-116087660D01*
X135373338Y-116179151D01*
X135609509Y-116372971D01*
X135803329Y-116609142D01*
X135894820Y-116780310D01*
X135947350Y-116878585D01*
X135947350Y-116878586D01*
X136036038Y-117170951D01*
X136065984Y-117475000D01*
X136036038Y-117779049D01*
X135995078Y-117914075D01*
X135947350Y-118071415D01*
X135894820Y-118169690D01*
X135803329Y-118340858D01*
X135609509Y-118577029D01*
X135373338Y-118770849D01*
X135202170Y-118862340D01*
X135103895Y-118914870D01*
X135006439Y-118944433D01*
X134811529Y-119003558D01*
X134659623Y-119018519D01*
X134583671Y-119026000D01*
X132431289Y-119026000D01*
X132355337Y-119018519D01*
X132203431Y-119003558D01*
X132008521Y-118944433D01*
X131911065Y-118914870D01*
X131812790Y-118862340D01*
X131641622Y-118770849D01*
X131405451Y-118577029D01*
X131211631Y-118340858D01*
X131120140Y-118169690D01*
X131067610Y-118071415D01*
X131019882Y-117914075D01*
X130978922Y-117779049D01*
X130948976Y-117475000D01*
X130978922Y-117170951D01*
X131067610Y-116878586D01*
X131067610Y-116878585D01*
X131120140Y-116780310D01*
X131211631Y-116609142D01*
X131405451Y-116372971D01*
X131641622Y-116179151D01*
X131812790Y-116087660D01*
X131911065Y-116035130D01*
X132008521Y-116005567D01*
X132203431Y-115946442D01*
X132355337Y-115931481D01*
X132431289Y-115924000D01*
X134583671Y-115924000D01*
X134659623Y-115931481D01*
X134659623Y-115931481D01*
G37*
G36*
X166132420Y-114898740D02*
X164530420Y-114898740D01*
X164530420Y-113596740D01*
X166132420Y-113596740D01*
X166132420Y-114898740D01*
X166132420Y-114898740D01*
G37*
G36*
X163506060Y-114875880D02*
X161904060Y-114875880D01*
X161904060Y-113573880D01*
X163506060Y-113573880D01*
X163506060Y-114875880D01*
X163506060Y-114875880D01*
G37*
G36*
X170660761Y-111919533D02*
X170660764Y-111919534D01*
X170660765Y-111919534D01*
X170821179Y-111968195D01*
X170821181Y-111968196D01*
X170821184Y-111968197D01*
X170969018Y-112047215D01*
X171098599Y-112153561D01*
X171204945Y-112283142D01*
X171283963Y-112430976D01*
X171283964Y-112430979D01*
X171283965Y-112430981D01*
X171312252Y-112524231D01*
X171332627Y-112591399D01*
X171349057Y-112758220D01*
X171332627Y-112925041D01*
X171332626Y-112925044D01*
X171332626Y-112925045D01*
X171301226Y-113028558D01*
X171283963Y-113085464D01*
X171204945Y-113233298D01*
X171098599Y-113362879D01*
X170969018Y-113469225D01*
X170821184Y-113548243D01*
X170821181Y-113548244D01*
X170821179Y-113548245D01*
X170660765Y-113596906D01*
X170660764Y-113596906D01*
X170660761Y-113596907D01*
X170535744Y-113609220D01*
X170452136Y-113609220D01*
X170327119Y-113596907D01*
X170327116Y-113596906D01*
X170327115Y-113596906D01*
X170166701Y-113548245D01*
X170166699Y-113548244D01*
X170166696Y-113548243D01*
X170018862Y-113469225D01*
X169889281Y-113362879D01*
X169782935Y-113233298D01*
X169703917Y-113085464D01*
X169686655Y-113028558D01*
X169655254Y-112925045D01*
X169655254Y-112925044D01*
X169655253Y-112925041D01*
X169638823Y-112758220D01*
X169655253Y-112591399D01*
X169675628Y-112524231D01*
X169703915Y-112430981D01*
X169703916Y-112430979D01*
X169703917Y-112430976D01*
X169782935Y-112283142D01*
X169889281Y-112153561D01*
X170018862Y-112047215D01*
X170166696Y-111968197D01*
X170166699Y-111968196D01*
X170166701Y-111968195D01*
X170327115Y-111919534D01*
X170327116Y-111919534D01*
X170327119Y-111919533D01*
X170452136Y-111907220D01*
X170535744Y-111907220D01*
X170660761Y-111919533D01*
X170660761Y-111919533D01*
G37*
G36*
X173344940Y-113609220D02*
X171642940Y-113609220D01*
X171642940Y-111907220D01*
X173344940Y-111907220D01*
X173344940Y-113609220D01*
X173344940Y-113609220D01*
G37*
G36*
X134616443Y-109956481D02*
X134768349Y-109971442D01*
X134963259Y-110030567D01*
X135060715Y-110060130D01*
X135158990Y-110112660D01*
X135330158Y-110204151D01*
X135566329Y-110397971D01*
X135760149Y-110634142D01*
X135851640Y-110805310D01*
X135904170Y-110903585D01*
X135904170Y-110903586D01*
X135992858Y-111195951D01*
X136022804Y-111500000D01*
X135992858Y-111804049D01*
X135987963Y-111820185D01*
X135904170Y-112096415D01*
X135873624Y-112153561D01*
X135760149Y-112365858D01*
X135566329Y-112602029D01*
X135330158Y-112795849D01*
X135158990Y-112887340D01*
X135060715Y-112939870D01*
X134963259Y-112969433D01*
X134768349Y-113028558D01*
X134616443Y-113043519D01*
X134540491Y-113051000D01*
X132388109Y-113051000D01*
X132312157Y-113043519D01*
X132160251Y-113028558D01*
X131965341Y-112969433D01*
X131867885Y-112939870D01*
X131769610Y-112887340D01*
X131598442Y-112795849D01*
X131362271Y-112602029D01*
X131168451Y-112365858D01*
X131054976Y-112153561D01*
X131024430Y-112096415D01*
X130940637Y-111820185D01*
X130935742Y-111804049D01*
X130905796Y-111500000D01*
X130935742Y-111195951D01*
X131024430Y-110903586D01*
X131024430Y-110903585D01*
X131076960Y-110805310D01*
X131168451Y-110634142D01*
X131362271Y-110397971D01*
X131598442Y-110204151D01*
X131769610Y-110112660D01*
X131867885Y-110060130D01*
X131965341Y-110030567D01*
X132160251Y-109971442D01*
X132312157Y-109956481D01*
X132388109Y-109949000D01*
X134540491Y-109949000D01*
X134616443Y-109956481D01*
X134616443Y-109956481D01*
G37*
G36*
X139630805Y-110503009D02*
X139822074Y-110582235D01*
X139994216Y-110697257D01*
X140140603Y-110843644D01*
X140255625Y-111015786D01*
X140334851Y-111207055D01*
X140375240Y-111410104D01*
X140375240Y-111617136D01*
X140334851Y-111820185D01*
X140255625Y-112011454D01*
X140140603Y-112183596D01*
X139994216Y-112329983D01*
X139822074Y-112445005D01*
X139630805Y-112524231D01*
X139427756Y-112564620D01*
X139220724Y-112564620D01*
X139017675Y-112524231D01*
X138826406Y-112445005D01*
X138654264Y-112329983D01*
X138507877Y-112183596D01*
X138392855Y-112011454D01*
X138313629Y-111820185D01*
X138273240Y-111617136D01*
X138273240Y-111410104D01*
X138313629Y-111207055D01*
X138392855Y-111015786D01*
X138507877Y-110843644D01*
X138654264Y-110697257D01*
X138826406Y-110582235D01*
X139017675Y-110503009D01*
X139220724Y-110462620D01*
X139427756Y-110462620D01*
X139630805Y-110503009D01*
X139630805Y-110503009D01*
G37*
G36*
X151107660Y-111207980D02*
X148505660Y-111207980D01*
X148505660Y-109705980D01*
X151107660Y-109705980D01*
X151107660Y-111207980D01*
X151107660Y-111207980D01*
G37*
G36*
X146002660Y-111207980D02*
X143900660Y-111207980D01*
X143900660Y-109705980D01*
X146002660Y-109705980D01*
X146002660Y-111207980D01*
X146002660Y-111207980D01*
G37*
G36*
X177178922Y-107853078D02*
X177245107Y-107859597D01*
X177358333Y-107893944D01*
X177414947Y-107911117D01*
X177481182Y-107946521D01*
X177571471Y-107994782D01*
X177607209Y-108024112D01*
X177708666Y-108107374D01*
X177791928Y-108208831D01*
X177821258Y-108244569D01*
X177821259Y-108244571D01*
X177904923Y-108401093D01*
X177904923Y-108401094D01*
X177956443Y-108570933D01*
X177973839Y-108747560D01*
X177956443Y-108924187D01*
X177922096Y-109037413D01*
X177904923Y-109094027D01*
X177847055Y-109202289D01*
X177821258Y-109250551D01*
X177791928Y-109286289D01*
X177708666Y-109387746D01*
X177607209Y-109471008D01*
X177571471Y-109500338D01*
X177571469Y-109500339D01*
X177414947Y-109584003D01*
X177361222Y-109600300D01*
X177245107Y-109635523D01*
X177178922Y-109642042D01*
X177112740Y-109648560D01*
X177024220Y-109648560D01*
X176958038Y-109642042D01*
X176891853Y-109635523D01*
X176775738Y-109600300D01*
X176722013Y-109584003D01*
X176565491Y-109500339D01*
X176565489Y-109500338D01*
X176529751Y-109471008D01*
X176428294Y-109387746D01*
X176345032Y-109286289D01*
X176315702Y-109250551D01*
X176289905Y-109202289D01*
X176232037Y-109094027D01*
X176214864Y-109037413D01*
X176180517Y-108924187D01*
X176163121Y-108747560D01*
X176180517Y-108570933D01*
X176232037Y-108401094D01*
X176232037Y-108401093D01*
X176315701Y-108244571D01*
X176315702Y-108244569D01*
X176345032Y-108208831D01*
X176428294Y-108107374D01*
X176529751Y-108024112D01*
X176565489Y-107994782D01*
X176655778Y-107946521D01*
X176722013Y-107911117D01*
X176778627Y-107893944D01*
X176891853Y-107859597D01*
X176958038Y-107853078D01*
X177024220Y-107846560D01*
X177112740Y-107846560D01*
X177178922Y-107853078D01*
X177178922Y-107853078D01*
G37*
G36*
X173940422Y-107804818D02*
X174006607Y-107811337D01*
X174119833Y-107845684D01*
X174176447Y-107862857D01*
X174315067Y-107936952D01*
X174332971Y-107946522D01*
X174368709Y-107975852D01*
X174470166Y-108059114D01*
X174553428Y-108160571D01*
X174582758Y-108196309D01*
X174582759Y-108196311D01*
X174666423Y-108352833D01*
X174683596Y-108409447D01*
X174717943Y-108522673D01*
X174735339Y-108699300D01*
X174717943Y-108875927D01*
X174683596Y-108989153D01*
X174666423Y-109045767D01*
X174640627Y-109094027D01*
X174582758Y-109202291D01*
X174553428Y-109238029D01*
X174470166Y-109339486D01*
X174368709Y-109422748D01*
X174332971Y-109452078D01*
X174332969Y-109452079D01*
X174176447Y-109535743D01*
X174119833Y-109552916D01*
X174006607Y-109587263D01*
X173940422Y-109593782D01*
X173874240Y-109600300D01*
X173785720Y-109600300D01*
X173719538Y-109593782D01*
X173653353Y-109587263D01*
X173540127Y-109552916D01*
X173483513Y-109535743D01*
X173326991Y-109452079D01*
X173326989Y-109452078D01*
X173291251Y-109422748D01*
X173189794Y-109339486D01*
X173106532Y-109238029D01*
X173077202Y-109202291D01*
X173019333Y-109094027D01*
X172993537Y-109045767D01*
X172976364Y-108989153D01*
X172942017Y-108875927D01*
X172924621Y-108699300D01*
X172942017Y-108522673D01*
X172976364Y-108409447D01*
X172993537Y-108352833D01*
X173077201Y-108196311D01*
X173077202Y-108196309D01*
X173106532Y-108160571D01*
X173189794Y-108059114D01*
X173291251Y-107975852D01*
X173326989Y-107946522D01*
X173344893Y-107936952D01*
X173483513Y-107862857D01*
X173540127Y-107845684D01*
X173653353Y-107811337D01*
X173719538Y-107804818D01*
X173785720Y-107798300D01*
X173874240Y-107798300D01*
X173940422Y-107804818D01*
X173940422Y-107804818D01*
G37*
G36*
X139640805Y-105423009D02*
X139832074Y-105502235D01*
X140004216Y-105617257D01*
X140150603Y-105763644D01*
X140265625Y-105935786D01*
X140344851Y-106127055D01*
X140385240Y-106330104D01*
X140385240Y-106537136D01*
X140344851Y-106740185D01*
X140265625Y-106931454D01*
X140150603Y-107103596D01*
X140004216Y-107249983D01*
X139832074Y-107365005D01*
X139640805Y-107444231D01*
X139437756Y-107484620D01*
X139230724Y-107484620D01*
X139027675Y-107444231D01*
X138836406Y-107365005D01*
X138664264Y-107249983D01*
X138517877Y-107103596D01*
X138402855Y-106931454D01*
X138323629Y-106740185D01*
X138283240Y-106537136D01*
X138283240Y-106330104D01*
X138323629Y-106127055D01*
X138402855Y-105935786D01*
X138517877Y-105763644D01*
X138664264Y-105617257D01*
X138836406Y-105502235D01*
X139027675Y-105423009D01*
X139230724Y-105382620D01*
X139437756Y-105382620D01*
X139640805Y-105423009D01*
X139640805Y-105423009D01*
G37*
G36*
X177178922Y-105313078D02*
X177245107Y-105319597D01*
X177358333Y-105353944D01*
X177414947Y-105371117D01*
X177553567Y-105445212D01*
X177571471Y-105454782D01*
X177607209Y-105484112D01*
X177708666Y-105567374D01*
X177791928Y-105668831D01*
X177821258Y-105704569D01*
X177821259Y-105704571D01*
X177904923Y-105861093D01*
X177904923Y-105861094D01*
X177956443Y-106030933D01*
X177973839Y-106207560D01*
X177956443Y-106384187D01*
X177922096Y-106497413D01*
X177904923Y-106554027D01*
X177858151Y-106641530D01*
X177821258Y-106710551D01*
X177796938Y-106740185D01*
X177708666Y-106847746D01*
X177607209Y-106931008D01*
X177571471Y-106960338D01*
X177571469Y-106960339D01*
X177414947Y-107044003D01*
X177361222Y-107060300D01*
X177245107Y-107095523D01*
X177178922Y-107102042D01*
X177112740Y-107108560D01*
X177024220Y-107108560D01*
X176958038Y-107102042D01*
X176891853Y-107095523D01*
X176775738Y-107060300D01*
X176722013Y-107044003D01*
X176565491Y-106960339D01*
X176565489Y-106960338D01*
X176529751Y-106931008D01*
X176428294Y-106847746D01*
X176340022Y-106740185D01*
X176315702Y-106710551D01*
X176278809Y-106641530D01*
X176232037Y-106554027D01*
X176214864Y-106497413D01*
X176180517Y-106384187D01*
X176163121Y-106207560D01*
X176180517Y-106030933D01*
X176232037Y-105861094D01*
X176232037Y-105861093D01*
X176315701Y-105704571D01*
X176315702Y-105704569D01*
X176345032Y-105668831D01*
X176428294Y-105567374D01*
X176529751Y-105484112D01*
X176565489Y-105454782D01*
X176583393Y-105445212D01*
X176722013Y-105371117D01*
X176778627Y-105353944D01*
X176891853Y-105319597D01*
X176958038Y-105313078D01*
X177024220Y-105306560D01*
X177112740Y-105306560D01*
X177178922Y-105313078D01*
X177178922Y-105313078D01*
G37*
G36*
X173940422Y-105264818D02*
X174006607Y-105271337D01*
X174119833Y-105305684D01*
X174176447Y-105322857D01*
X174288254Y-105382620D01*
X174332971Y-105406522D01*
X174368709Y-105435852D01*
X174470166Y-105519114D01*
X174550707Y-105617255D01*
X174582758Y-105656309D01*
X174582759Y-105656311D01*
X174666423Y-105812833D01*
X174683596Y-105869447D01*
X174717943Y-105982673D01*
X174735339Y-106159300D01*
X174717943Y-106335927D01*
X174683596Y-106449153D01*
X174666423Y-106505767D01*
X174640627Y-106554027D01*
X174582758Y-106662291D01*
X174553428Y-106698029D01*
X174470166Y-106799486D01*
X174368709Y-106882748D01*
X174332971Y-106912078D01*
X174332969Y-106912079D01*
X174176447Y-106995743D01*
X174119833Y-107012916D01*
X174006607Y-107047263D01*
X173940423Y-107053781D01*
X173874240Y-107060300D01*
X173785720Y-107060300D01*
X173719537Y-107053781D01*
X173653353Y-107047263D01*
X173540127Y-107012916D01*
X173483513Y-106995743D01*
X173326991Y-106912079D01*
X173326989Y-106912078D01*
X173291251Y-106882748D01*
X173189794Y-106799486D01*
X173106532Y-106698029D01*
X173077202Y-106662291D01*
X173019333Y-106554027D01*
X172993537Y-106505767D01*
X172976364Y-106449153D01*
X172942017Y-106335927D01*
X172924621Y-106159300D01*
X172942017Y-105982673D01*
X172976364Y-105869447D01*
X172993537Y-105812833D01*
X173077201Y-105656311D01*
X173077202Y-105656309D01*
X173109253Y-105617255D01*
X173189794Y-105519114D01*
X173291251Y-105435852D01*
X173326989Y-105406522D01*
X173371706Y-105382620D01*
X173483513Y-105322857D01*
X173540127Y-105305684D01*
X173653353Y-105271337D01*
X173719537Y-105264819D01*
X173785720Y-105258300D01*
X173874240Y-105258300D01*
X173940422Y-105264818D01*
X173940422Y-105264818D01*
G37*
G36*
X132922528Y-100173102D02*
X133098755Y-100226560D01*
X133214894Y-100261790D01*
X133349615Y-100333801D01*
X133484337Y-100405811D01*
X133720509Y-100599631D01*
X133720510Y-100599633D01*
X133720512Y-100599634D01*
X133836801Y-100741334D01*
X133914329Y-100835802D01*
X134005820Y-101006970D01*
X134058350Y-101105245D01*
X134087913Y-101202701D01*
X134147038Y-101397611D01*
X134169480Y-101625470D01*
X134169480Y-105277850D01*
X134147038Y-105505709D01*
X134113201Y-105617255D01*
X134058350Y-105798075D01*
X134050461Y-105812834D01*
X133914329Y-106067518D01*
X133720509Y-106303689D01*
X133484338Y-106497509D01*
X133378602Y-106554026D01*
X133214895Y-106641530D01*
X133146461Y-106662289D01*
X132922529Y-106730218D01*
X132618480Y-106760164D01*
X132314432Y-106730218D01*
X132090500Y-106662289D01*
X132022066Y-106641530D01*
X131858359Y-106554026D01*
X131752623Y-106497509D01*
X131516452Y-106303689D01*
X131322632Y-106067518D01*
X131186500Y-105812834D01*
X131178611Y-105798075D01*
X131123760Y-105617255D01*
X131089923Y-105505709D01*
X131067481Y-105277850D01*
X131067480Y-101625471D01*
X131089922Y-101397612D01*
X131178610Y-101105247D01*
X131178610Y-101105246D01*
X131258876Y-100955081D01*
X131322631Y-100835803D01*
X131516451Y-100599631D01*
X131516453Y-100599630D01*
X131516454Y-100599628D01*
X131658154Y-100483339D01*
X131752622Y-100405811D01*
X131923790Y-100314320D01*
X132022065Y-100261790D01*
X132138204Y-100226560D01*
X132314431Y-100173102D01*
X132618480Y-100143156D01*
X132922528Y-100173102D01*
X132922528Y-100173102D01*
G37*
G36*
X177178922Y-102773078D02*
X177245107Y-102779597D01*
X177358333Y-102813944D01*
X177414947Y-102831117D01*
X177481182Y-102866521D01*
X177571471Y-102914782D01*
X177607209Y-102944112D01*
X177708666Y-103027374D01*
X177791928Y-103128831D01*
X177821258Y-103164569D01*
X177821259Y-103164571D01*
X177904923Y-103321093D01*
X177904923Y-103321094D01*
X177956443Y-103490933D01*
X177973839Y-103667560D01*
X177956443Y-103844187D01*
X177922096Y-103957413D01*
X177904923Y-104014027D01*
X177847055Y-104122289D01*
X177821258Y-104170551D01*
X177791928Y-104206289D01*
X177708666Y-104307746D01*
X177607209Y-104391008D01*
X177571471Y-104420338D01*
X177571469Y-104420339D01*
X177414947Y-104504003D01*
X177361222Y-104520300D01*
X177245107Y-104555523D01*
X177178922Y-104562042D01*
X177112740Y-104568560D01*
X177024220Y-104568560D01*
X176958038Y-104562042D01*
X176891853Y-104555523D01*
X176775738Y-104520300D01*
X176722013Y-104504003D01*
X176565491Y-104420339D01*
X176565489Y-104420338D01*
X176529751Y-104391008D01*
X176428294Y-104307746D01*
X176345032Y-104206289D01*
X176315702Y-104170551D01*
X176289905Y-104122289D01*
X176232037Y-104014027D01*
X176214864Y-103957413D01*
X176180517Y-103844187D01*
X176163121Y-103667560D01*
X176180517Y-103490933D01*
X176232037Y-103321094D01*
X176232037Y-103321093D01*
X176315701Y-103164571D01*
X176315702Y-103164569D01*
X176345032Y-103128831D01*
X176428294Y-103027374D01*
X176529751Y-102944112D01*
X176565489Y-102914782D01*
X176655778Y-102866521D01*
X176722013Y-102831117D01*
X176778627Y-102813944D01*
X176891853Y-102779597D01*
X176958037Y-102773079D01*
X177024220Y-102766560D01*
X177112740Y-102766560D01*
X177178922Y-102773078D01*
X177178922Y-102773078D01*
G37*
G36*
X173940422Y-102724818D02*
X174006607Y-102731337D01*
X174119833Y-102765684D01*
X174176447Y-102782857D01*
X174315067Y-102856952D01*
X174332971Y-102866522D01*
X174368709Y-102895852D01*
X174470166Y-102979114D01*
X174553428Y-103080571D01*
X174582758Y-103116309D01*
X174582759Y-103116311D01*
X174666423Y-103272833D01*
X174683596Y-103329447D01*
X174717943Y-103442673D01*
X174735339Y-103619300D01*
X174717943Y-103795927D01*
X174683596Y-103909153D01*
X174666423Y-103965767D01*
X174640627Y-104014027D01*
X174582758Y-104122291D01*
X174553428Y-104158029D01*
X174470166Y-104259486D01*
X174368709Y-104342748D01*
X174332971Y-104372078D01*
X174332969Y-104372079D01*
X174176447Y-104455743D01*
X174119833Y-104472916D01*
X174006607Y-104507263D01*
X173940422Y-104513782D01*
X173874240Y-104520300D01*
X173785720Y-104520300D01*
X173719538Y-104513782D01*
X173653353Y-104507263D01*
X173540127Y-104472916D01*
X173483513Y-104455743D01*
X173326991Y-104372079D01*
X173326989Y-104372078D01*
X173291251Y-104342748D01*
X173189794Y-104259486D01*
X173106532Y-104158029D01*
X173077202Y-104122291D01*
X173019333Y-104014027D01*
X172993537Y-103965767D01*
X172976364Y-103909153D01*
X172942017Y-103795927D01*
X172924621Y-103619300D01*
X172942017Y-103442673D01*
X172976364Y-103329447D01*
X172993537Y-103272833D01*
X173077201Y-103116311D01*
X173077202Y-103116309D01*
X173106532Y-103080571D01*
X173189794Y-102979114D01*
X173291251Y-102895852D01*
X173326989Y-102866522D01*
X173344893Y-102856952D01*
X173483513Y-102782857D01*
X173540127Y-102765684D01*
X173653353Y-102731337D01*
X173719538Y-102724818D01*
X173785720Y-102718300D01*
X173874240Y-102718300D01*
X173940422Y-102724818D01*
X173940422Y-102724818D01*
G37*
G36*
X140705764Y-102234684D02*
X140792819Y-102252000D01*
X140929492Y-102308612D01*
X140929493Y-102308613D01*
X141052498Y-102390802D01*
X141157098Y-102495402D01*
X141157100Y-102495405D01*
X141239288Y-102618408D01*
X141295900Y-102755081D01*
X141311024Y-102831117D01*
X141318067Y-102866521D01*
X141324760Y-102900173D01*
X141324760Y-103048107D01*
X141295900Y-103193199D01*
X141239288Y-103329872D01*
X141239287Y-103329873D01*
X141157098Y-103452878D01*
X141052498Y-103557478D01*
X141052495Y-103557480D01*
X140929492Y-103639668D01*
X140792819Y-103696280D01*
X140705764Y-103713596D01*
X140647729Y-103725140D01*
X140499791Y-103725140D01*
X140441756Y-103713596D01*
X140354701Y-103696280D01*
X140218028Y-103639668D01*
X140095025Y-103557480D01*
X140095022Y-103557478D01*
X139990422Y-103452878D01*
X139908233Y-103329873D01*
X139908232Y-103329872D01*
X139851620Y-103193199D01*
X139822760Y-103048107D01*
X139822760Y-102900173D01*
X139829454Y-102866521D01*
X139836496Y-102831117D01*
X139851620Y-102755081D01*
X139908232Y-102618408D01*
X139990420Y-102495405D01*
X139990422Y-102495402D01*
X140095022Y-102390802D01*
X140218027Y-102308613D01*
X140218028Y-102308612D01*
X140354701Y-102252000D01*
X140441756Y-102234684D01*
X140499791Y-102223140D01*
X140647729Y-102223140D01*
X140705764Y-102234684D01*
X140705764Y-102234684D01*
G37*
G36*
X177969480Y-102028560D02*
X176167480Y-102028560D01*
X176167480Y-100226560D01*
X177969480Y-100226560D01*
X177969480Y-102028560D01*
X177969480Y-102028560D01*
G37*
G36*
X174730980Y-101980300D02*
X172928980Y-101980300D01*
X172928980Y-100178300D01*
X174730980Y-100178300D01*
X174730980Y-101980300D01*
X174730980Y-101980300D01*
G37*
G36*
X135705764Y-100434684D02*
X135792819Y-100452000D01*
X135929492Y-100508612D01*
X135929493Y-100508613D01*
X136052498Y-100590802D01*
X136157098Y-100695402D01*
X136157100Y-100695405D01*
X136239288Y-100818408D01*
X136295900Y-100955081D01*
X136324760Y-101100173D01*
X136324760Y-101248107D01*
X136295900Y-101393199D01*
X136239288Y-101529872D01*
X136239287Y-101529873D01*
X136157098Y-101652878D01*
X136052498Y-101757478D01*
X136052495Y-101757480D01*
X135929492Y-101839668D01*
X135792819Y-101896280D01*
X135705764Y-101913596D01*
X135647729Y-101925140D01*
X135499791Y-101925140D01*
X135441756Y-101913596D01*
X135354701Y-101896280D01*
X135218028Y-101839668D01*
X135095025Y-101757480D01*
X135095022Y-101757478D01*
X134990422Y-101652878D01*
X134908233Y-101529873D01*
X134908232Y-101529872D01*
X134851620Y-101393199D01*
X134822760Y-101248107D01*
X134822760Y-101100173D01*
X134851620Y-100955081D01*
X134908232Y-100818408D01*
X134990420Y-100695405D01*
X134990422Y-100695402D01*
X135095022Y-100590802D01*
X135218027Y-100508613D01*
X135218028Y-100508612D01*
X135354701Y-100452000D01*
X135441756Y-100434684D01*
X135499791Y-100423140D01*
X135647729Y-100423140D01*
X135705764Y-100434684D01*
X135705764Y-100434684D01*
G37*
M02*
