G04 #@! TF.GenerationSoftware,KiCad,Pcbnew,(5.0.2)-1*
G04 #@! TF.CreationDate,2019-05-25T20:10:37+08:00*
G04 #@! TF.ProjectId,3RELAY,3352454c-4159-42e6-9b69-6361645f7063,rev?*
G04 #@! TF.SameCoordinates,Original*
G04 #@! TF.FileFunction,Paste,Top*
G04 #@! TF.FilePolarity,Positive*
%FSLAX46Y46*%
G04 Gerber Fmt 4.6, Leading zero omitted, Abs format (unit mm)*
G04 Created by KiCad (PCBNEW (5.0.2)-1) date 2019-05-25 20:10:37*
%MOMM*%
%LPD*%
G01*
G04 APERTURE LIST*
%ADD10R,0.930000X0.980000*%
%ADD11O,0.800000X3.000000*%
%ADD12R,2.500000X3.000000*%
%ADD13R,1.250000X1.000000*%
%ADD14R,1.250000X0.700000*%
G04 APERTURE END LIST*
D10*
G04 #@! TO.C,R2*
X172575980Y-118836440D03*
X171035980Y-118836440D03*
G04 #@! TD*
G04 #@! TO.C,R4*
X172573060Y-120904000D03*
X171033060Y-120904000D03*
G04 #@! TD*
G04 #@! TO.C,R3*
X174472220Y-120845580D03*
X176012220Y-120845580D03*
G04 #@! TD*
G04 #@! TO.C,R1*
X174464980Y-118856760D03*
X176004980Y-118856760D03*
G04 #@! TD*
G04 #@! TO.C,R6*
X172634020Y-122844560D03*
X171094020Y-122844560D03*
G04 #@! TD*
G04 #@! TO.C,R5*
X174502320Y-122867420D03*
X176042320Y-122867420D03*
G04 #@! TD*
D11*
G04 #@! TO.C,U1*
X166751000Y-127424180D03*
X161671000Y-127424180D03*
X168021000Y-127424180D03*
X169291000Y-127424180D03*
X160401000Y-127424180D03*
X173101000Y-127424180D03*
X171831000Y-127424180D03*
X170561000Y-127424180D03*
X164211000Y-127424180D03*
D12*
X175747680Y-127424180D03*
D11*
X159131000Y-127424180D03*
G04 #@! TD*
D13*
G04 #@! TO.C,D3*
X162059620Y-123891040D03*
X159109620Y-123891040D03*
G04 #@! TD*
D14*
G04 #@! TO.C,Q3*
X167363460Y-124246680D03*
X167363460Y-122346680D03*
X164863460Y-123296680D03*
G04 #@! TD*
D13*
G04 #@! TO.C,D2*
X162177520Y-119755920D03*
X159227520Y-119755920D03*
G04 #@! TD*
D14*
G04 #@! TO.C,Q2*
X167337740Y-120456960D03*
X167337740Y-118556960D03*
X164837740Y-119506960D03*
G04 #@! TD*
D13*
G04 #@! TO.C,D1*
X162103860Y-115445540D03*
X159153860Y-115445540D03*
G04 #@! TD*
D14*
G04 #@! TO.C,Q1*
X164865680Y-115859520D03*
X167365680Y-114909520D03*
X167365680Y-116809520D03*
G04 #@! TD*
M02*
