M48
;DRILL file {KiCad (5.0.2)-1} date 2019-05-25 20:10:39
;FORMAT={-:-/ absolute / inch / decimal}
FMAT,2
INCH,TZ
T1C0.0157
T2C0.0268
T3C0.0315
T4C0.0394
T5C0.0591
T6C0.0709
%
G90
G05
T1
X5.8701Y-4.5123
X6.2215Y-4.4695
X6.2653Y-4.9663
X6.3016Y-4.4695
X6.3146Y-4.969
X6.364Y-4.9696
X6.4467Y-4.6238
X6.5663Y-4.9703
X6.6378Y-4.52
X6.6632Y-4.668
X6.6657Y-4.7743
X6.6864Y-4.8459
X6.7642Y-4.97
X6.7938Y-4.3488
X6.7956Y-4.6048
X6.8155Y-4.9705
X6.8495Y-4.6094
X6.8811Y-4.9684
X6.8877Y-4.6201
T2
X5.5344Y-4.0541
T3
X5.3375Y-3.9832
X6.7462Y-4.5262
X6.8249Y-4.5262
T4
X6.9477Y-3.9896
X6.9477Y-4.0896
X6.9477Y-4.1896
X6.9477Y-4.2896
X6.9477Y-4.3896
X5.4852Y-4.3903
X5.4856Y-4.1903
X6.754Y-3.9948
X6.754Y-4.0948
X6.754Y-4.1948
X5.4411Y-4.879
X5.6411Y-4.879
X6.0411Y-4.879
X6.1411Y-4.879
X5.441Y-4.6544
X5.641Y-4.6544
X6.041Y-4.6544
X6.141Y-4.6544
X5.4424Y-5.0961
X5.6424Y-5.0961
X6.0424Y-5.0961
X6.1424Y-5.0961
T5
X5.2267Y-4.625G85X5.2857Y-4.625
G05
X5.2272Y-4.8582G85X5.2862Y-4.8582
G05
X5.2263Y-5.0787G85X5.2853Y-5.0787
G05
X5.225Y-4.3898G85X5.284Y-4.3898
G05
T6
X5.2212Y-4.0198G85X5.2212Y-4.126
G05
T0
M30
