G04 #@! TF.GenerationSoftware,KiCad,Pcbnew,(5.0.2)-1*
G04 #@! TF.CreationDate,2019-05-25T20:10:37+08:00*
G04 #@! TF.ProjectId,3RELAY,3352454c-4159-42e6-9b69-6361645f7063,rev?*
G04 #@! TF.SameCoordinates,Original*
G04 #@! TF.FileFunction,Profile,NP*
%FSLAX46Y46*%
G04 Gerber Fmt 4.6, Leading zero omitted, Abs format (unit mm)*
G04 Created by KiCad (PCBNEW (5.0.2)-1) date 2019-05-25 20:10:37*
%MOMM*%
%LPD*%
G01*
G04 APERTURE LIST*
%ADD10C,0.200000*%
%ADD11C,0.150000*%
G04 APERTURE END LIST*
D10*
X158053303Y-130193820D02*
G75*
G02X158036260Y-129141220I23597J526820D01*
G01*
X158064200Y-130192780D02*
X177358040Y-130192780D01*
X177391060Y-129138680D02*
X158028640Y-129141220D01*
X177384111Y-129139109D02*
G75*
G02X177370740Y-130190240I-23531J-525351D01*
G01*
X137796849Y-107971502D02*
G75*
G02X137731500Y-109057440I-42489J-542378D01*
G01*
X150588551Y-129139351D02*
G75*
G02X149537420Y-129125980I-525351J23531D01*
G01*
X149539960Y-116215160D02*
G75*
G02X150591091Y-116228531I525351J-23531D01*
G01*
X150594060Y-129125980D02*
X150594060Y-116225320D01*
X149539960Y-116202460D02*
X149539960Y-129161540D01*
X161861521Y-113364746D02*
G75*
G02X161825940Y-111574580I35540J896143D01*
G01*
X166095659Y-111567494D02*
G75*
G02X166131240Y-113357660I-35540J-896143D01*
G01*
X161843720Y-113360200D02*
X166161720Y-113355120D01*
X161836100Y-111569500D02*
X166105840Y-111569500D01*
X151107119Y-111524314D02*
G75*
G02X151142700Y-113314480I-35540J-896143D01*
G01*
X143675121Y-113316486D02*
G75*
G02X143639540Y-111526320I35540J896143D01*
G01*
X143637000Y-113314480D02*
X151127460Y-113314480D01*
X143642080Y-111526320D02*
X151132540Y-111526320D01*
X153481000Y-101284303D02*
G75*
G02X154533600Y-101267260I526820J-23597D01*
G01*
X154533171Y-114920431D02*
G75*
G02X153482040Y-114907060I-525351J23531D01*
G01*
X154533600Y-114914680D02*
X154533600Y-101254560D01*
X153479500Y-101257100D02*
X153479500Y-114950240D01*
X132134031Y-109058798D02*
G75*
G02X132199380Y-107972860I42489J542378D01*
G01*
X132156200Y-109059980D02*
X137726420Y-109059980D01*
X132196840Y-107972860D02*
X137782300Y-107970320D01*
D11*
X178633120Y-131030980D02*
X178633120Y-99524820D01*
X178633120Y-99517200D02*
X130462020Y-99517200D01*
X178633120Y-131028440D02*
X130444240Y-131028440D01*
X130454400Y-131028440D02*
X130462020Y-99517200D01*
M02*
