G04 #@! TF.GenerationSoftware,KiCad,Pcbnew,(5.0.2)-1*
G04 #@! TF.CreationDate,2019-05-25T20:07:42+08:00*
G04 #@! TF.ProjectId,1RELAY,3152454c-4159-42e6-9b69-6361645f7063,rev?*
G04 #@! TF.SameCoordinates,Original*
G04 #@! TF.FileFunction,Profile,NP*
%FSLAX46Y46*%
G04 Gerber Fmt 4.6, Leading zero omitted, Abs format (unit mm)*
G04 Created by KiCad (PCBNEW (5.0.2)-1) date 2019-05-25 20:07:42*
%MOMM*%
%LPD*%
G01*
G04 APERTURE LIST*
%ADD10C,0.200000*%
%ADD11C,0.150000*%
G04 APERTURE END LIST*
D10*
X158244540Y-119199660D02*
G75*
G02X158257911Y-118148529I23531J525351D01*
G01*
X158264860Y-118148100D02*
X177505360Y-118148100D01*
X158234380Y-119199660D02*
X177502820Y-119197120D01*
X177511111Y-118145989D02*
G75*
G02X177497740Y-119197120I-23531J-525351D01*
G01*
X136476740Y-107735851D02*
G75*
G02X136422942Y-108833920I-42947J-548248D01*
G01*
X148509149Y-116105269D02*
G75*
G02X149560280Y-116118640I525351J-23531D01*
G01*
X154159791Y-114775651D02*
G75*
G02X153108660Y-114762280I-525351J23531D01*
G01*
X149557740Y-118549420D02*
X149560280Y-116095780D01*
X148506180Y-118536720D02*
X148506180Y-116095780D01*
X161861521Y-113364746D02*
G75*
G02X161825940Y-111574580I35540J896143D01*
G01*
X166095659Y-111567494D02*
G75*
G02X166131240Y-113357660I-35540J-896143D01*
G01*
X161843720Y-113360200D02*
X166161720Y-113355120D01*
X161836100Y-111569500D02*
X166105840Y-111569500D01*
X151107119Y-111524314D02*
G75*
G02X151142700Y-113314480I-35540J-896143D01*
G01*
X143675121Y-113316486D02*
G75*
G02X143639540Y-111526320I35540J896143D01*
G01*
X143637000Y-113314480D02*
X151127460Y-113314480D01*
X143642080Y-111526320D02*
X151132540Y-111526320D01*
X153110160Y-101271603D02*
G75*
G02X154162760Y-101254560I526820J-23597D01*
G01*
X149559851Y-118555171D02*
G75*
G02X148508720Y-118541800I-525351J23531D01*
G01*
X154162760Y-114762280D02*
X154162760Y-101264720D01*
X153108660Y-101262180D02*
X153108660Y-114769900D01*
X131892731Y-108830198D02*
G75*
G02X131958080Y-107744260I42489J542378D01*
G01*
X131914900Y-108833920D02*
X136436100Y-108833920D01*
X131922520Y-107739180D02*
X136471660Y-107739180D01*
D11*
X178767740Y-119893080D02*
X178767740Y-99504500D01*
X178765200Y-99504500D02*
X130462020Y-99504500D01*
X178767740Y-119893080D02*
X130462020Y-119895620D01*
X130462020Y-119895620D02*
X130462020Y-99504500D01*
M02*
