G04 #@! TF.GenerationSoftware,KiCad,Pcbnew,(5.0.2)-1*
G04 #@! TF.CreationDate,2019-05-25T20:07:42+08:00*
G04 #@! TF.ProjectId,1RELAY,3152454c-4159-42e6-9b69-6361645f7063,rev?*
G04 #@! TF.SameCoordinates,Original*
G04 #@! TF.FileFunction,Legend,Bot*
G04 #@! TF.FilePolarity,Positive*
%FSLAX46Y46*%
G04 Gerber Fmt 4.6, Leading zero omitted, Abs format (unit mm)*
G04 Created by KiCad (PCBNEW (5.0.2)-1) date 2019-05-25 20:07:42*
%MOMM*%
%LPD*%
G01*
G04 APERTURE LIST*
%ADD10C,0.200000*%
%ADD11C,0.300000*%
%ADD12C,0.010000*%
G04 APERTURE END LIST*
D10*
X177164715Y-102260780D02*
X177259953Y-102213160D01*
X177402810Y-102213160D01*
X177545667Y-102260780D01*
X177640905Y-102356018D01*
X177688524Y-102451256D01*
X177736143Y-102641732D01*
X177736143Y-102784589D01*
X177688524Y-102975065D01*
X177640905Y-103070303D01*
X177545667Y-103165541D01*
X177402810Y-103213160D01*
X177307572Y-103213160D01*
X177164715Y-103165541D01*
X177117096Y-103117922D01*
X177117096Y-102784589D01*
X177307572Y-102784589D01*
X169804056Y-102228400D02*
X170280246Y-102228400D01*
X170327865Y-102704591D01*
X170280246Y-102656972D01*
X170185008Y-102609353D01*
X169946913Y-102609353D01*
X169851675Y-102656972D01*
X169804056Y-102704591D01*
X169756437Y-102799829D01*
X169756437Y-103037924D01*
X169804056Y-103133162D01*
X169851675Y-103180781D01*
X169946913Y-103228400D01*
X170185008Y-103228400D01*
X170280246Y-103180781D01*
X170327865Y-103133162D01*
X169470722Y-102228400D02*
X169137389Y-103228400D01*
X168804056Y-102228400D01*
X172898345Y-102917286D02*
X172422155Y-102917286D01*
X172993583Y-103203000D02*
X172660250Y-102203000D01*
X172326917Y-103203000D01*
X171565012Y-102536334D02*
X171565012Y-103203000D01*
X171803107Y-102155381D02*
X172041202Y-102869667D01*
X171422155Y-102869667D01*
X175456125Y-102917286D02*
X174979935Y-102917286D01*
X175551363Y-103203000D02*
X175218030Y-102203000D01*
X174884697Y-103203000D01*
X174075173Y-102203000D02*
X174551363Y-102203000D01*
X174598982Y-102679191D01*
X174551363Y-102631572D01*
X174456125Y-102583953D01*
X174218030Y-102583953D01*
X174122792Y-102631572D01*
X174075173Y-102679191D01*
X174027554Y-102774429D01*
X174027554Y-103012524D01*
X174075173Y-103107762D01*
X174122792Y-103155381D01*
X174218030Y-103203000D01*
X174456125Y-103203000D01*
X174551363Y-103155381D01*
X174598982Y-103107762D01*
X172278016Y-105652320D02*
X172754206Y-105652320D01*
X172801825Y-106128511D01*
X172754206Y-106080892D01*
X172658968Y-106033273D01*
X172420873Y-106033273D01*
X172325635Y-106080892D01*
X172278016Y-106128511D01*
X172230397Y-106223749D01*
X172230397Y-106461844D01*
X172278016Y-106557082D01*
X172325635Y-106604701D01*
X172420873Y-106652320D01*
X172658968Y-106652320D01*
X172754206Y-106604701D01*
X172801825Y-106557082D01*
X171944682Y-105652320D02*
X171611349Y-106652320D01*
X171278016Y-105652320D01*
X175618044Y-106523421D02*
X175475187Y-106571040D01*
X175237092Y-106571040D01*
X175141854Y-106523421D01*
X175094235Y-106475802D01*
X175046616Y-106380564D01*
X175046616Y-106285326D01*
X175094235Y-106190088D01*
X175141854Y-106142469D01*
X175237092Y-106094850D01*
X175427568Y-106047231D01*
X175522806Y-105999612D01*
X175570425Y-105951993D01*
X175618044Y-105856755D01*
X175618044Y-105761517D01*
X175570425Y-105666279D01*
X175522806Y-105618660D01*
X175427568Y-105571040D01*
X175189473Y-105571040D01*
X175046616Y-105618660D01*
X174094235Y-106571040D02*
X174665663Y-106571040D01*
X174379949Y-106571040D02*
X174379949Y-105571040D01*
X174475187Y-105713898D01*
X174570425Y-105809136D01*
X174665663Y-105856755D01*
X176994535Y-105659300D02*
X177089773Y-105611680D01*
X177232630Y-105611680D01*
X177375487Y-105659300D01*
X177470725Y-105754538D01*
X177518344Y-105849776D01*
X177565963Y-106040252D01*
X177565963Y-106183109D01*
X177518344Y-106373585D01*
X177470725Y-106468823D01*
X177375487Y-106564061D01*
X177232630Y-106611680D01*
X177137392Y-106611680D01*
X176994535Y-106564061D01*
X176946916Y-106516442D01*
X176946916Y-106183109D01*
X177137392Y-106183109D01*
X158671520Y-105102020D02*
X157671520Y-105102020D01*
X158671520Y-105673449D01*
X157671520Y-105673449D01*
X158671520Y-106721068D02*
X158195330Y-106387735D01*
X158671520Y-106149640D02*
X157671520Y-106149640D01*
X157671520Y-106530592D01*
X157719140Y-106625830D01*
X157766759Y-106673449D01*
X157861997Y-106721068D01*
X158004854Y-106721068D01*
X158100092Y-106673449D01*
X158147711Y-106625830D01*
X158195330Y-106530592D01*
X158195330Y-106149640D01*
X158147711Y-107482973D02*
X158147711Y-107149640D01*
X158671520Y-107149640D02*
X157671520Y-107149640D01*
X157671520Y-107625830D01*
X158290568Y-108006782D02*
X158290568Y-108768687D01*
X158671520Y-109816306D02*
X158195330Y-109482973D01*
X158671520Y-109244878D02*
X157671520Y-109244878D01*
X157671520Y-109625830D01*
X157719140Y-109721068D01*
X157766759Y-109768687D01*
X157861997Y-109816306D01*
X158004854Y-109816306D01*
X158100092Y-109768687D01*
X158147711Y-109721068D01*
X158195330Y-109625830D01*
X158195330Y-109244878D01*
X158671520Y-110768687D02*
X158671520Y-110197259D01*
X158671520Y-110482973D02*
X157671520Y-110482973D01*
X157814378Y-110387735D01*
X157909616Y-110292497D01*
X157957235Y-110197259D01*
X158290568Y-111197259D02*
X158290568Y-111959163D01*
X157671520Y-112292497D02*
X158671520Y-112625830D01*
X157671520Y-112959163D01*
X157766759Y-113244878D02*
X157719140Y-113292497D01*
X157671520Y-113387735D01*
X157671520Y-113625830D01*
X157719140Y-113721068D01*
X157766759Y-113768687D01*
X157861997Y-113816306D01*
X157957235Y-113816306D01*
X158100092Y-113768687D01*
X158671520Y-113197259D01*
X158671520Y-113816306D01*
X158576282Y-114244878D02*
X158623901Y-114292497D01*
X158671520Y-114244878D01*
X158623901Y-114197259D01*
X158576282Y-114244878D01*
X158671520Y-114244878D01*
X158671520Y-115244878D02*
X158671520Y-114673449D01*
X158671520Y-114959163D02*
X157671520Y-114959163D01*
X157814378Y-114863925D01*
X157909616Y-114768687D01*
X157957235Y-114673449D01*
X160436820Y-106451995D02*
X159436820Y-106451995D01*
X160151106Y-106785328D01*
X159436820Y-107118661D01*
X160436820Y-107118661D01*
X159770154Y-107499614D02*
X160436820Y-107737709D01*
X159770154Y-107975804D02*
X160436820Y-107737709D01*
X160674916Y-107642471D01*
X160722535Y-107594852D01*
X160770154Y-107499614D01*
X160389201Y-108309138D02*
X160436820Y-108404376D01*
X160436820Y-108594852D01*
X160389201Y-108690090D01*
X160293963Y-108737709D01*
X160246344Y-108737709D01*
X160151106Y-108690090D01*
X160103487Y-108594852D01*
X160103487Y-108451995D01*
X160055868Y-108356757D01*
X159960630Y-108309138D01*
X159913011Y-108309138D01*
X159817773Y-108356757D01*
X159770154Y-108451995D01*
X159770154Y-108594852D01*
X159817773Y-108690090D01*
X160389201Y-109547233D02*
X160436820Y-109451995D01*
X160436820Y-109261519D01*
X160389201Y-109166280D01*
X160293963Y-109118661D01*
X159913011Y-109118661D01*
X159817773Y-109166280D01*
X159770154Y-109261519D01*
X159770154Y-109451995D01*
X159817773Y-109547233D01*
X159913011Y-109594852D01*
X160008249Y-109594852D01*
X160103487Y-109118661D01*
X159770154Y-110023423D02*
X160436820Y-110023423D01*
X159865392Y-110023423D02*
X159817773Y-110071042D01*
X159770154Y-110166280D01*
X159770154Y-110309138D01*
X159817773Y-110404376D01*
X159913011Y-110451995D01*
X160436820Y-110451995D01*
X160389201Y-110880566D02*
X160436820Y-110975804D01*
X160436820Y-111166280D01*
X160389201Y-111261519D01*
X160293963Y-111309138D01*
X160246344Y-111309138D01*
X160151106Y-111261519D01*
X160103487Y-111166280D01*
X160103487Y-111023423D01*
X160055868Y-110928185D01*
X159960630Y-110880566D01*
X159913011Y-110880566D01*
X159817773Y-110928185D01*
X159770154Y-111023423D01*
X159770154Y-111166280D01*
X159817773Y-111261519D01*
X160436820Y-111880566D02*
X160389201Y-111785328D01*
X160341582Y-111737709D01*
X160246344Y-111690090D01*
X159960630Y-111690090D01*
X159865392Y-111737709D01*
X159817773Y-111785328D01*
X159770154Y-111880566D01*
X159770154Y-112023423D01*
X159817773Y-112118661D01*
X159865392Y-112166280D01*
X159960630Y-112213900D01*
X160246344Y-112213900D01*
X160341582Y-112166280D01*
X160389201Y-112118661D01*
X160436820Y-112023423D01*
X160436820Y-111880566D01*
X160436820Y-112642471D02*
X159770154Y-112642471D01*
X159960630Y-112642471D02*
X159865392Y-112690090D01*
X159817773Y-112737709D01*
X159770154Y-112832947D01*
X159770154Y-112928185D01*
X160341582Y-113261519D02*
X160389201Y-113309138D01*
X160436820Y-113261519D01*
X160389201Y-113213900D01*
X160341582Y-113261519D01*
X160436820Y-113261519D01*
X159770154Y-113737709D02*
X160770154Y-113737709D01*
X159817773Y-113737709D02*
X159770154Y-113832947D01*
X159770154Y-114023423D01*
X159817773Y-114118661D01*
X159865392Y-114166280D01*
X159960630Y-114213900D01*
X160246344Y-114213900D01*
X160341582Y-114166280D01*
X160389201Y-114118661D01*
X160436820Y-114023423D01*
X160436820Y-113832947D01*
X160389201Y-113737709D01*
X159770154Y-115071042D02*
X160436820Y-115071042D01*
X159770154Y-114642471D02*
X160293963Y-114642471D01*
X160389201Y-114690090D01*
X160436820Y-114785328D01*
X160436820Y-114928185D01*
X160389201Y-115023423D01*
X160341582Y-115071042D01*
X160436820Y-115547233D02*
X159436820Y-115547233D01*
X159817773Y-115547233D02*
X159770154Y-115642471D01*
X159770154Y-115832947D01*
X159817773Y-115928185D01*
X159865392Y-115975804D01*
X159960630Y-116023423D01*
X160246344Y-116023423D01*
X160341582Y-115975804D01*
X160389201Y-115928185D01*
X160436820Y-115832947D01*
X160436820Y-115642471D01*
X160389201Y-115547233D01*
D11*
X137937631Y-101387328D02*
X136437631Y-101387328D01*
X137937631Y-102244471D01*
X136437631Y-102244471D01*
X136496668Y-110871534D02*
X136496668Y-111585820D01*
X137996668Y-111585820D01*
X132762868Y-114763360D02*
X132762868Y-115477645D01*
X134262868Y-115477645D01*
X132762868Y-113477645D02*
X132762868Y-114334788D01*
X132762868Y-113906217D02*
X134262868Y-113906217D01*
X134048582Y-114049074D01*
X133905725Y-114191931D01*
X133834297Y-114334788D01*
D12*
G04 #@! TO.C,G\002A\002A\002A*
G36*
X145595340Y-102847140D02*
X145595340Y-108028740D01*
X146242234Y-108028740D01*
X146242234Y-107874749D01*
X146166155Y-107869208D01*
X146107430Y-107852983D01*
X146104199Y-107851385D01*
X146046323Y-107808789D01*
X145988191Y-107745287D01*
X145939025Y-107672488D01*
X145909216Y-107605926D01*
X145905137Y-107575680D01*
X145901380Y-107514195D01*
X145897944Y-107424097D01*
X145894830Y-107308012D01*
X145892040Y-107168567D01*
X145889573Y-107008387D01*
X145887431Y-106830099D01*
X145885613Y-106636330D01*
X145884122Y-106429704D01*
X145882956Y-106212848D01*
X145882117Y-105988388D01*
X145881605Y-105758951D01*
X145881422Y-105527163D01*
X145881567Y-105295649D01*
X145882042Y-105067037D01*
X145882847Y-104843951D01*
X145883982Y-104629019D01*
X145885449Y-104424866D01*
X145887247Y-104234118D01*
X145889378Y-104059402D01*
X145891842Y-103903344D01*
X145894640Y-103768570D01*
X145897772Y-103657706D01*
X145901240Y-103573378D01*
X145905043Y-103518212D01*
X145908226Y-103497174D01*
X145941647Y-103420561D01*
X145992310Y-103346007D01*
X146051963Y-103283686D01*
X146112356Y-103243773D01*
X146114469Y-103242870D01*
X146191401Y-103223944D01*
X146280932Y-103221595D01*
X146365998Y-103236060D01*
X146375980Y-103239235D01*
X146402495Y-103251698D01*
X146454939Y-103279390D01*
X146529999Y-103320458D01*
X146624362Y-103373047D01*
X146734715Y-103435302D01*
X146857746Y-103505371D01*
X146990141Y-103581398D01*
X147077007Y-103631601D01*
X147223794Y-103716643D01*
X147371759Y-103802366D01*
X147516095Y-103885984D01*
X147651998Y-103964714D01*
X147774660Y-104035772D01*
X147879277Y-104096373D01*
X147961044Y-104143735D01*
X147982940Y-104156417D01*
X148262395Y-104318305D01*
X148513916Y-104464097D01*
X148738906Y-104594616D01*
X148938769Y-104710685D01*
X149114909Y-104813128D01*
X149268728Y-104902768D01*
X149401630Y-104980428D01*
X149515019Y-105046931D01*
X149610298Y-105103102D01*
X149688871Y-105149763D01*
X149752140Y-105187738D01*
X149801510Y-105217849D01*
X149838383Y-105240921D01*
X149864163Y-105257776D01*
X149880253Y-105269239D01*
X149881600Y-105270291D01*
X149935437Y-105326428D01*
X149982600Y-105399544D01*
X150016700Y-105477484D01*
X150031354Y-105548096D01*
X150031502Y-105555565D01*
X150015108Y-105644709D01*
X149969890Y-105734709D01*
X149900183Y-105819542D01*
X149810324Y-105893183D01*
X149771033Y-105917410D01*
X149747294Y-105930994D01*
X149696193Y-105960364D01*
X149619702Y-106004385D01*
X149519796Y-106061918D01*
X149398446Y-106131827D01*
X149257626Y-106212976D01*
X149099307Y-106304226D01*
X148925464Y-106404442D01*
X148738069Y-106512485D01*
X148539095Y-106627220D01*
X148330515Y-106747508D01*
X148114301Y-106872214D01*
X148076074Y-106894263D01*
X147859049Y-107019333D01*
X147649468Y-107139892D01*
X147449287Y-107254828D01*
X147260461Y-107363027D01*
X147084945Y-107463376D01*
X146924693Y-107554763D01*
X146781661Y-107636075D01*
X146657803Y-107706199D01*
X146555075Y-107764022D01*
X146475430Y-107808431D01*
X146420825Y-107838313D01*
X146393214Y-107852556D01*
X146391207Y-107853393D01*
X146321855Y-107869509D01*
X146242234Y-107874749D01*
X146242234Y-108028740D01*
X150472140Y-108028740D01*
X150472140Y-102847140D01*
X145595340Y-102847140D01*
X145595340Y-102847140D01*
G37*
X145595340Y-102847140D02*
X145595340Y-108028740D01*
X146242234Y-108028740D01*
X146242234Y-107874749D01*
X146166155Y-107869208D01*
X146107430Y-107852983D01*
X146104199Y-107851385D01*
X146046323Y-107808789D01*
X145988191Y-107745287D01*
X145939025Y-107672488D01*
X145909216Y-107605926D01*
X145905137Y-107575680D01*
X145901380Y-107514195D01*
X145897944Y-107424097D01*
X145894830Y-107308012D01*
X145892040Y-107168567D01*
X145889573Y-107008387D01*
X145887431Y-106830099D01*
X145885613Y-106636330D01*
X145884122Y-106429704D01*
X145882956Y-106212848D01*
X145882117Y-105988388D01*
X145881605Y-105758951D01*
X145881422Y-105527163D01*
X145881567Y-105295649D01*
X145882042Y-105067037D01*
X145882847Y-104843951D01*
X145883982Y-104629019D01*
X145885449Y-104424866D01*
X145887247Y-104234118D01*
X145889378Y-104059402D01*
X145891842Y-103903344D01*
X145894640Y-103768570D01*
X145897772Y-103657706D01*
X145901240Y-103573378D01*
X145905043Y-103518212D01*
X145908226Y-103497174D01*
X145941647Y-103420561D01*
X145992310Y-103346007D01*
X146051963Y-103283686D01*
X146112356Y-103243773D01*
X146114469Y-103242870D01*
X146191401Y-103223944D01*
X146280932Y-103221595D01*
X146365998Y-103236060D01*
X146375980Y-103239235D01*
X146402495Y-103251698D01*
X146454939Y-103279390D01*
X146529999Y-103320458D01*
X146624362Y-103373047D01*
X146734715Y-103435302D01*
X146857746Y-103505371D01*
X146990141Y-103581398D01*
X147077007Y-103631601D01*
X147223794Y-103716643D01*
X147371759Y-103802366D01*
X147516095Y-103885984D01*
X147651998Y-103964714D01*
X147774660Y-104035772D01*
X147879277Y-104096373D01*
X147961044Y-104143735D01*
X147982940Y-104156417D01*
X148262395Y-104318305D01*
X148513916Y-104464097D01*
X148738906Y-104594616D01*
X148938769Y-104710685D01*
X149114909Y-104813128D01*
X149268728Y-104902768D01*
X149401630Y-104980428D01*
X149515019Y-105046931D01*
X149610298Y-105103102D01*
X149688871Y-105149763D01*
X149752140Y-105187738D01*
X149801510Y-105217849D01*
X149838383Y-105240921D01*
X149864163Y-105257776D01*
X149880253Y-105269239D01*
X149881600Y-105270291D01*
X149935437Y-105326428D01*
X149982600Y-105399544D01*
X150016700Y-105477484D01*
X150031354Y-105548096D01*
X150031502Y-105555565D01*
X150015108Y-105644709D01*
X149969890Y-105734709D01*
X149900183Y-105819542D01*
X149810324Y-105893183D01*
X149771033Y-105917410D01*
X149747294Y-105930994D01*
X149696193Y-105960364D01*
X149619702Y-106004385D01*
X149519796Y-106061918D01*
X149398446Y-106131827D01*
X149257626Y-106212976D01*
X149099307Y-106304226D01*
X148925464Y-106404442D01*
X148738069Y-106512485D01*
X148539095Y-106627220D01*
X148330515Y-106747508D01*
X148114301Y-106872214D01*
X148076074Y-106894263D01*
X147859049Y-107019333D01*
X147649468Y-107139892D01*
X147449287Y-107254828D01*
X147260461Y-107363027D01*
X147084945Y-107463376D01*
X146924693Y-107554763D01*
X146781661Y-107636075D01*
X146657803Y-107706199D01*
X146555075Y-107764022D01*
X146475430Y-107808431D01*
X146420825Y-107838313D01*
X146393214Y-107852556D01*
X146391207Y-107853393D01*
X146321855Y-107869509D01*
X146242234Y-107874749D01*
X146242234Y-108028740D01*
X150472140Y-108028740D01*
X150472140Y-102847140D01*
X145595340Y-102847140D01*
G36*
X149572398Y-105551975D02*
X149564039Y-105544148D01*
X149547303Y-105531983D01*
X149519892Y-105514102D01*
X149479511Y-105489128D01*
X149423865Y-105455681D01*
X149350657Y-105412384D01*
X149257592Y-105357860D01*
X149142374Y-105290728D01*
X149002707Y-105209613D01*
X148836295Y-105113135D01*
X148812674Y-105099449D01*
X148694561Y-105030999D01*
X148576442Y-104962518D01*
X148464306Y-104897477D01*
X148364141Y-104839352D01*
X148281934Y-104791615D01*
X148228474Y-104760536D01*
X148167888Y-104725353D01*
X148083847Y-104676660D01*
X147982238Y-104617860D01*
X147868946Y-104552358D01*
X147749857Y-104483558D01*
X147635807Y-104417722D01*
X147496175Y-104337093D01*
X147337891Y-104245594D01*
X147171582Y-104149374D01*
X147007875Y-104054583D01*
X146857398Y-103967371D01*
X146789141Y-103927774D01*
X146678870Y-103863846D01*
X146576645Y-103804708D01*
X146486560Y-103752720D01*
X146412709Y-103710240D01*
X146359188Y-103679628D01*
X146330090Y-103663241D01*
X146327707Y-103661955D01*
X146289607Y-103641816D01*
X146289607Y-105547411D01*
X146289674Y-105798388D01*
X146289868Y-106039702D01*
X146290180Y-106269216D01*
X146290603Y-106484793D01*
X146291128Y-106684295D01*
X146291745Y-106865586D01*
X146292447Y-107026529D01*
X146293225Y-107164987D01*
X146294070Y-107278822D01*
X146294974Y-107365898D01*
X146295928Y-107424078D01*
X146296924Y-107451223D01*
X146297256Y-107453007D01*
X146313886Y-107444961D01*
X146354171Y-107422900D01*
X146412547Y-107389937D01*
X146483455Y-107349186D01*
X146504689Y-107336867D01*
X146552748Y-107309027D01*
X146627270Y-107265987D01*
X146725355Y-107209418D01*
X146844100Y-107140991D01*
X146980604Y-107062376D01*
X147131965Y-106975246D01*
X147250444Y-106907070D01*
X147250444Y-106297775D01*
X147243835Y-106293420D01*
X147247275Y-106272802D01*
X147261825Y-106233438D01*
X147288550Y-106172849D01*
X147328512Y-106088551D01*
X147382774Y-105978063D01*
X147415444Y-105912533D01*
X147468080Y-105806607D01*
X147514907Y-105710964D01*
X147553997Y-105629658D01*
X147583424Y-105566740D01*
X147601259Y-105526263D01*
X147605775Y-105512330D01*
X147588811Y-105515755D01*
X147545795Y-105528726D01*
X147482523Y-105549270D01*
X147404790Y-105575415D01*
X147318392Y-105605187D01*
X147229125Y-105636614D01*
X147142784Y-105667722D01*
X147069667Y-105694836D01*
X147048323Y-105704374D01*
X147044368Y-105714962D01*
X147061061Y-105732361D01*
X147101660Y-105762331D01*
X147112000Y-105769677D01*
X147157585Y-105804191D01*
X147190485Y-105833158D01*
X147201971Y-105847472D01*
X147198890Y-105859134D01*
X147193504Y-105857160D01*
X147172851Y-105852785D01*
X147123761Y-105845654D01*
X147051491Y-105836429D01*
X146961299Y-105825775D01*
X146858442Y-105814354D01*
X146831474Y-105811468D01*
X146699648Y-105797335D01*
X146597848Y-105786003D01*
X146522400Y-105776903D01*
X146469632Y-105769465D01*
X146435869Y-105763122D01*
X146417439Y-105757303D01*
X146410668Y-105751439D01*
X146411171Y-105746349D01*
X146424412Y-105731355D01*
X146458225Y-105696489D01*
X146508898Y-105645481D01*
X146572716Y-105582063D01*
X146645967Y-105509967D01*
X146663325Y-105492974D01*
X146738372Y-105420102D01*
X146805360Y-105356060D01*
X146860499Y-105304386D01*
X146900001Y-105268621D01*
X146920080Y-105252304D01*
X146921558Y-105251674D01*
X146927381Y-105267133D01*
X146931522Y-105307634D01*
X146933074Y-105363552D01*
X146934891Y-105426200D01*
X146940933Y-105459469D01*
X146952084Y-105467683D01*
X146954241Y-105467026D01*
X146974527Y-105458688D01*
X147022204Y-105438955D01*
X147093394Y-105409436D01*
X147184216Y-105371740D01*
X147290793Y-105327479D01*
X147409244Y-105278260D01*
X147483407Y-105247433D01*
X147608000Y-105195754D01*
X147723880Y-105147912D01*
X147827000Y-105105561D01*
X147913313Y-105070355D01*
X147978771Y-105043947D01*
X148019326Y-105027992D01*
X148029739Y-105024211D01*
X148068071Y-105012178D01*
X148032182Y-105102293D01*
X147970367Y-105257929D01*
X147920462Y-105384583D01*
X147881574Y-105484627D01*
X147852811Y-105560431D01*
X147833282Y-105614369D01*
X147822094Y-105648810D01*
X147818354Y-105666127D01*
X147818943Y-105669054D01*
X147835498Y-105663796D01*
X147878431Y-105645057D01*
X147943903Y-105614657D01*
X148028078Y-105574414D01*
X148127118Y-105526144D01*
X148237186Y-105471667D01*
X148267045Y-105456756D01*
X148379453Y-105401035D01*
X148481971Y-105351203D01*
X148570739Y-105309058D01*
X148641894Y-105276398D01*
X148691575Y-105255022D01*
X148715920Y-105246727D01*
X148717618Y-105246929D01*
X148722388Y-105268058D01*
X148725645Y-105315126D01*
X148727392Y-105380240D01*
X148727634Y-105455506D01*
X148726373Y-105533031D01*
X148723614Y-105604921D01*
X148719361Y-105663283D01*
X148717409Y-105679872D01*
X148706810Y-105757197D01*
X147994597Y-106023310D01*
X147846328Y-106078632D01*
X147707101Y-106130430D01*
X147580274Y-106177466D01*
X147469209Y-106218501D01*
X147377263Y-106252295D01*
X147307798Y-106277610D01*
X147264172Y-106293205D01*
X147250444Y-106297775D01*
X147250444Y-106907070D01*
X147295281Y-106881269D01*
X147467651Y-106782118D01*
X147646172Y-106679462D01*
X147779740Y-106602679D01*
X147963907Y-106496811D01*
X148146301Y-106391938D01*
X148323730Y-106289897D01*
X148493003Y-106192525D01*
X148650926Y-106101660D01*
X148794307Y-106019139D01*
X148919954Y-105946797D01*
X149024674Y-105886474D01*
X149105275Y-105840004D01*
X149142874Y-105818298D01*
X149237219Y-105763829D01*
X149326395Y-105712423D01*
X149404373Y-105667552D01*
X149465121Y-105632686D01*
X149502610Y-105611294D01*
X149502707Y-105611239D01*
X149544505Y-105585026D01*
X149570467Y-105563817D01*
X149574674Y-105556842D01*
X149572398Y-105551975D01*
X149572398Y-105551975D01*
G37*
X149572398Y-105551975D02*
X149564039Y-105544148D01*
X149547303Y-105531983D01*
X149519892Y-105514102D01*
X149479511Y-105489128D01*
X149423865Y-105455681D01*
X149350657Y-105412384D01*
X149257592Y-105357860D01*
X149142374Y-105290728D01*
X149002707Y-105209613D01*
X148836295Y-105113135D01*
X148812674Y-105099449D01*
X148694561Y-105030999D01*
X148576442Y-104962518D01*
X148464306Y-104897477D01*
X148364141Y-104839352D01*
X148281934Y-104791615D01*
X148228474Y-104760536D01*
X148167888Y-104725353D01*
X148083847Y-104676660D01*
X147982238Y-104617860D01*
X147868946Y-104552358D01*
X147749857Y-104483558D01*
X147635807Y-104417722D01*
X147496175Y-104337093D01*
X147337891Y-104245594D01*
X147171582Y-104149374D01*
X147007875Y-104054583D01*
X146857398Y-103967371D01*
X146789141Y-103927774D01*
X146678870Y-103863846D01*
X146576645Y-103804708D01*
X146486560Y-103752720D01*
X146412709Y-103710240D01*
X146359188Y-103679628D01*
X146330090Y-103663241D01*
X146327707Y-103661955D01*
X146289607Y-103641816D01*
X146289607Y-105547411D01*
X146289674Y-105798388D01*
X146289868Y-106039702D01*
X146290180Y-106269216D01*
X146290603Y-106484793D01*
X146291128Y-106684295D01*
X146291745Y-106865586D01*
X146292447Y-107026529D01*
X146293225Y-107164987D01*
X146294070Y-107278822D01*
X146294974Y-107365898D01*
X146295928Y-107424078D01*
X146296924Y-107451223D01*
X146297256Y-107453007D01*
X146313886Y-107444961D01*
X146354171Y-107422900D01*
X146412547Y-107389937D01*
X146483455Y-107349186D01*
X146504689Y-107336867D01*
X146552748Y-107309027D01*
X146627270Y-107265987D01*
X146725355Y-107209418D01*
X146844100Y-107140991D01*
X146980604Y-107062376D01*
X147131965Y-106975246D01*
X147250444Y-106907070D01*
X147250444Y-106297775D01*
X147243835Y-106293420D01*
X147247275Y-106272802D01*
X147261825Y-106233438D01*
X147288550Y-106172849D01*
X147328512Y-106088551D01*
X147382774Y-105978063D01*
X147415444Y-105912533D01*
X147468080Y-105806607D01*
X147514907Y-105710964D01*
X147553997Y-105629658D01*
X147583424Y-105566740D01*
X147601259Y-105526263D01*
X147605775Y-105512330D01*
X147588811Y-105515755D01*
X147545795Y-105528726D01*
X147482523Y-105549270D01*
X147404790Y-105575415D01*
X147318392Y-105605187D01*
X147229125Y-105636614D01*
X147142784Y-105667722D01*
X147069667Y-105694836D01*
X147048323Y-105704374D01*
X147044368Y-105714962D01*
X147061061Y-105732361D01*
X147101660Y-105762331D01*
X147112000Y-105769677D01*
X147157585Y-105804191D01*
X147190485Y-105833158D01*
X147201971Y-105847472D01*
X147198890Y-105859134D01*
X147193504Y-105857160D01*
X147172851Y-105852785D01*
X147123761Y-105845654D01*
X147051491Y-105836429D01*
X146961299Y-105825775D01*
X146858442Y-105814354D01*
X146831474Y-105811468D01*
X146699648Y-105797335D01*
X146597848Y-105786003D01*
X146522400Y-105776903D01*
X146469632Y-105769465D01*
X146435869Y-105763122D01*
X146417439Y-105757303D01*
X146410668Y-105751439D01*
X146411171Y-105746349D01*
X146424412Y-105731355D01*
X146458225Y-105696489D01*
X146508898Y-105645481D01*
X146572716Y-105582063D01*
X146645967Y-105509967D01*
X146663325Y-105492974D01*
X146738372Y-105420102D01*
X146805360Y-105356060D01*
X146860499Y-105304386D01*
X146900001Y-105268621D01*
X146920080Y-105252304D01*
X146921558Y-105251674D01*
X146927381Y-105267133D01*
X146931522Y-105307634D01*
X146933074Y-105363552D01*
X146934891Y-105426200D01*
X146940933Y-105459469D01*
X146952084Y-105467683D01*
X146954241Y-105467026D01*
X146974527Y-105458688D01*
X147022204Y-105438955D01*
X147093394Y-105409436D01*
X147184216Y-105371740D01*
X147290793Y-105327479D01*
X147409244Y-105278260D01*
X147483407Y-105247433D01*
X147608000Y-105195754D01*
X147723880Y-105147912D01*
X147827000Y-105105561D01*
X147913313Y-105070355D01*
X147978771Y-105043947D01*
X148019326Y-105027992D01*
X148029739Y-105024211D01*
X148068071Y-105012178D01*
X148032182Y-105102293D01*
X147970367Y-105257929D01*
X147920462Y-105384583D01*
X147881574Y-105484627D01*
X147852811Y-105560431D01*
X147833282Y-105614369D01*
X147822094Y-105648810D01*
X147818354Y-105666127D01*
X147818943Y-105669054D01*
X147835498Y-105663796D01*
X147878431Y-105645057D01*
X147943903Y-105614657D01*
X148028078Y-105574414D01*
X148127118Y-105526144D01*
X148237186Y-105471667D01*
X148267045Y-105456756D01*
X148379453Y-105401035D01*
X148481971Y-105351203D01*
X148570739Y-105309058D01*
X148641894Y-105276398D01*
X148691575Y-105255022D01*
X148715920Y-105246727D01*
X148717618Y-105246929D01*
X148722388Y-105268058D01*
X148725645Y-105315126D01*
X148727392Y-105380240D01*
X148727634Y-105455506D01*
X148726373Y-105533031D01*
X148723614Y-105604921D01*
X148719361Y-105663283D01*
X148717409Y-105679872D01*
X148706810Y-105757197D01*
X147994597Y-106023310D01*
X147846328Y-106078632D01*
X147707101Y-106130430D01*
X147580274Y-106177466D01*
X147469209Y-106218501D01*
X147377263Y-106252295D01*
X147307798Y-106277610D01*
X147264172Y-106293205D01*
X147250444Y-106297775D01*
X147250444Y-106907070D01*
X147295281Y-106881269D01*
X147467651Y-106782118D01*
X147646172Y-106679462D01*
X147779740Y-106602679D01*
X147963907Y-106496811D01*
X148146301Y-106391938D01*
X148323730Y-106289897D01*
X148493003Y-106192525D01*
X148650926Y-106101660D01*
X148794307Y-106019139D01*
X148919954Y-105946797D01*
X149024674Y-105886474D01*
X149105275Y-105840004D01*
X149142874Y-105818298D01*
X149237219Y-105763829D01*
X149326395Y-105712423D01*
X149404373Y-105667552D01*
X149465121Y-105632686D01*
X149502610Y-105611294D01*
X149502707Y-105611239D01*
X149544505Y-105585026D01*
X149570467Y-105563817D01*
X149574674Y-105556842D01*
X149572398Y-105551975D01*
G36*
X167608696Y-114504617D02*
X167606980Y-114518736D01*
X167651930Y-114576089D01*
X167666050Y-114577805D01*
X167723403Y-114532855D01*
X167725119Y-114518736D01*
X167680169Y-114461382D01*
X167666050Y-114459666D01*
X167608696Y-114504617D01*
X167608696Y-114504617D01*
G37*
X167608696Y-114504617D02*
X167606980Y-114518736D01*
X167651930Y-114576089D01*
X167666050Y-114577805D01*
X167723403Y-114532855D01*
X167725119Y-114518736D01*
X167680169Y-114461382D01*
X167666050Y-114459666D01*
X167608696Y-114504617D01*
G36*
X170021456Y-114659026D02*
X169876626Y-114684987D01*
X169785663Y-114695943D01*
X169785177Y-114695945D01*
X169751008Y-114747895D01*
X169733935Y-114875628D01*
X169733491Y-114902689D01*
X169740644Y-115035060D01*
X169784811Y-115093887D01*
X169900050Y-115108971D01*
X169969770Y-115109433D01*
X170206050Y-115109433D01*
X170206050Y-114865771D01*
X170201396Y-114712447D01*
X170170513Y-114648831D01*
X170088019Y-114646494D01*
X170021456Y-114659026D01*
X170021456Y-114659026D01*
G37*
X170021456Y-114659026D02*
X169876626Y-114684987D01*
X169785663Y-114695943D01*
X169785177Y-114695945D01*
X169751008Y-114747895D01*
X169733935Y-114875628D01*
X169733491Y-114902689D01*
X169740644Y-115035060D01*
X169784811Y-115093887D01*
X169900050Y-115108971D01*
X169969770Y-115109433D01*
X170206050Y-115109433D01*
X170206050Y-114865771D01*
X170201396Y-114712447D01*
X170170513Y-114648831D01*
X170088019Y-114646494D01*
X170021456Y-114659026D01*
G36*
X173070302Y-114608615D02*
X173041398Y-114666410D01*
X173009502Y-114745018D01*
X172982329Y-114755015D01*
X172929849Y-114798066D01*
X172933896Y-114896840D01*
X172990197Y-115005763D01*
X173007644Y-115025048D01*
X173152710Y-115100294D01*
X173306975Y-115078049D01*
X173381050Y-115021075D01*
X173441428Y-114911363D01*
X173449838Y-114807388D01*
X173403705Y-114755546D01*
X173395817Y-114755015D01*
X173343411Y-114707171D01*
X173336747Y-114666410D01*
X173285398Y-114595147D01*
X173189073Y-114577805D01*
X173070302Y-114608615D01*
X173070302Y-114608615D01*
G37*
X173070302Y-114608615D02*
X173041398Y-114666410D01*
X173009502Y-114745018D01*
X172982329Y-114755015D01*
X172929849Y-114798066D01*
X172933896Y-114896840D01*
X172990197Y-115005763D01*
X173007644Y-115025048D01*
X173152710Y-115100294D01*
X173306975Y-115078049D01*
X173381050Y-115021075D01*
X173441428Y-114911363D01*
X173449838Y-114807388D01*
X173403705Y-114755546D01*
X173395817Y-114755015D01*
X173343411Y-114707171D01*
X173336747Y-114666410D01*
X173285398Y-114595147D01*
X173189073Y-114577805D01*
X173070302Y-114608615D01*
G36*
X171107873Y-114394820D02*
X171051386Y-114473221D01*
X170992622Y-114604915D01*
X170922141Y-114473221D01*
X170837654Y-114388699D01*
X170721634Y-114344090D01*
X170616112Y-114346152D01*
X170563123Y-114401645D01*
X170562312Y-114415364D01*
X170592599Y-114506968D01*
X170667015Y-114653090D01*
X170709683Y-114725480D01*
X170800016Y-114913703D01*
X170851201Y-115100896D01*
X170855514Y-115153736D01*
X170869659Y-115287889D01*
X170927696Y-115339795D01*
X170991630Y-115345712D01*
X171081943Y-115331020D01*
X171111579Y-115263961D01*
X171103942Y-115144410D01*
X171116872Y-114950612D01*
X171213330Y-114748354D01*
X171233943Y-114717210D01*
X171348365Y-114526667D01*
X171379068Y-114408210D01*
X171326481Y-114351001D01*
X171248797Y-114341526D01*
X171107873Y-114394820D01*
X171107873Y-114394820D01*
G37*
X171107873Y-114394820D02*
X171051386Y-114473221D01*
X170992622Y-114604915D01*
X170922141Y-114473221D01*
X170837654Y-114388699D01*
X170721634Y-114344090D01*
X170616112Y-114346152D01*
X170563123Y-114401645D01*
X170562312Y-114415364D01*
X170592599Y-114506968D01*
X170667015Y-114653090D01*
X170709683Y-114725480D01*
X170800016Y-114913703D01*
X170851201Y-115100896D01*
X170855514Y-115153736D01*
X170869659Y-115287889D01*
X170927696Y-115339795D01*
X170991630Y-115345712D01*
X171081943Y-115331020D01*
X171111579Y-115263961D01*
X171103942Y-115144410D01*
X171116872Y-114950612D01*
X171213330Y-114748354D01*
X171233943Y-114717210D01*
X171348365Y-114526667D01*
X171379068Y-114408210D01*
X171326481Y-114351001D01*
X171248797Y-114341526D01*
X171107873Y-114394820D01*
G36*
X175480353Y-114346136D02*
X175436709Y-114375560D01*
X175414054Y-114453186D01*
X175405507Y-114602405D01*
X175404189Y-114843619D01*
X175405545Y-115086756D01*
X175414199Y-115235144D01*
X175437030Y-115312173D01*
X175480918Y-115341232D01*
X175551863Y-115345712D01*
X175623374Y-115341102D01*
X175667018Y-115311679D01*
X175689673Y-115234053D01*
X175698220Y-115084834D01*
X175699538Y-114843619D01*
X175698182Y-114600483D01*
X175689528Y-114452095D01*
X175666697Y-114375066D01*
X175622809Y-114346007D01*
X175551863Y-114341526D01*
X175480353Y-114346136D01*
X175480353Y-114346136D01*
G37*
X175480353Y-114346136D02*
X175436709Y-114375560D01*
X175414054Y-114453186D01*
X175405507Y-114602405D01*
X175404189Y-114843619D01*
X175405545Y-115086756D01*
X175414199Y-115235144D01*
X175437030Y-115312173D01*
X175480918Y-115341232D01*
X175551863Y-115345712D01*
X175623374Y-115341102D01*
X175667018Y-115311679D01*
X175689673Y-115234053D01*
X175698220Y-115084834D01*
X175699538Y-114843619D01*
X175698182Y-114600483D01*
X175689528Y-114452095D01*
X175666697Y-114375066D01*
X175622809Y-114346007D01*
X175551863Y-114341526D01*
X175480353Y-114346136D01*
G36*
X171524725Y-114352275D02*
X171477585Y-114402515D01*
X171448007Y-114519243D01*
X171425395Y-114704610D01*
X171397725Y-114985452D01*
X171387944Y-115169396D01*
X171400498Y-115276914D01*
X171439835Y-115328480D01*
X171510403Y-115344569D01*
X171564654Y-115345712D01*
X171693370Y-115327955D01*
X171739370Y-115259646D01*
X171741863Y-115221029D01*
X171741863Y-115096345D01*
X171845236Y-115222619D01*
X171983980Y-115321422D01*
X172213794Y-115379280D01*
X172258724Y-115385066D01*
X172568840Y-115421238D01*
X172568840Y-114873154D01*
X172273491Y-114873154D01*
X172250585Y-115045236D01*
X172185128Y-115111611D01*
X172082014Y-115068675D01*
X172049026Y-115038550D01*
X171982273Y-114904452D01*
X172013800Y-114769113D01*
X172092399Y-114698023D01*
X172202085Y-114648143D01*
X172255267Y-114666470D01*
X172272239Y-114772630D01*
X172273491Y-114873154D01*
X172568840Y-114873154D01*
X172568840Y-114349830D01*
X172265588Y-114363761D01*
X172056222Y-114387649D01*
X171922641Y-114445225D01*
X171852099Y-114513828D01*
X171741863Y-114649963D01*
X171741863Y-114495745D01*
X171719173Y-114379410D01*
X171630964Y-114342364D01*
X171602604Y-114341526D01*
X171524725Y-114352275D01*
X171524725Y-114352275D01*
G37*
X171524725Y-114352275D02*
X171477585Y-114402515D01*
X171448007Y-114519243D01*
X171425395Y-114704610D01*
X171397725Y-114985452D01*
X171387944Y-115169396D01*
X171400498Y-115276914D01*
X171439835Y-115328480D01*
X171510403Y-115344569D01*
X171564654Y-115345712D01*
X171693370Y-115327955D01*
X171739370Y-115259646D01*
X171741863Y-115221029D01*
X171741863Y-115096345D01*
X171845236Y-115222619D01*
X171983980Y-115321422D01*
X172213794Y-115379280D01*
X172258724Y-115385066D01*
X172568840Y-115421238D01*
X172568840Y-114873154D01*
X172273491Y-114873154D01*
X172250585Y-115045236D01*
X172185128Y-115111611D01*
X172082014Y-115068675D01*
X172049026Y-115038550D01*
X171982273Y-114904452D01*
X172013800Y-114769113D01*
X172092399Y-114698023D01*
X172202085Y-114648143D01*
X172255267Y-114666470D01*
X172272239Y-114772630D01*
X172273491Y-114873154D01*
X172568840Y-114873154D01*
X172568840Y-114349830D01*
X172265588Y-114363761D01*
X172056222Y-114387649D01*
X171922641Y-114445225D01*
X171852099Y-114513828D01*
X171741863Y-114649963D01*
X171741863Y-114495745D01*
X171719173Y-114379410D01*
X171630964Y-114342364D01*
X171602604Y-114341526D01*
X171524725Y-114352275D01*
G36*
X173945623Y-114347051D02*
X173847416Y-114369940D01*
X173812050Y-114419663D01*
X173809305Y-114453346D01*
X173854319Y-114564995D01*
X173906043Y-114602288D01*
X173961152Y-114645546D01*
X173982219Y-114738507D01*
X173974477Y-114910999D01*
X173969361Y-114963221D01*
X173955633Y-115156700D01*
X173969707Y-115267475D01*
X174018294Y-115329081D01*
X174045949Y-115345908D01*
X174146466Y-115392005D01*
X174199232Y-115378310D01*
X174219565Y-115284762D01*
X174222794Y-115114265D01*
X174229822Y-114923701D01*
X174247631Y-114773136D01*
X174258648Y-114730311D01*
X174314739Y-114642121D01*
X174363929Y-114660523D01*
X174394872Y-114774052D01*
X174400003Y-114873154D01*
X174441772Y-115112370D01*
X174567078Y-115268049D01*
X174775921Y-115340191D01*
X174872561Y-115345712D01*
X175109605Y-115306255D01*
X175262976Y-115185011D01*
X175336765Y-114977668D01*
X175345119Y-114847907D01*
X175336782Y-114747967D01*
X175096449Y-114747967D01*
X175087196Y-114905968D01*
X175047692Y-114995177D01*
X174939808Y-115092751D01*
X174800001Y-115096269D01*
X174707166Y-115038550D01*
X174645776Y-114911229D01*
X174671017Y-114776644D01*
X174758712Y-114667572D01*
X174884687Y-114616790D01*
X174999833Y-114641763D01*
X175096449Y-114747967D01*
X175336782Y-114747967D01*
X175329510Y-114660801D01*
X175268847Y-114538116D01*
X175189479Y-114463953D01*
X174972826Y-114358342D01*
X174746919Y-114360826D01*
X174590356Y-114433481D01*
X174495539Y-114492413D01*
X174462400Y-114478543D01*
X174459073Y-114433481D01*
X174432765Y-114378538D01*
X174338041Y-114350132D01*
X174151204Y-114341557D01*
X174134189Y-114341526D01*
X173945623Y-114347051D01*
X173945623Y-114347051D01*
G37*
X173945623Y-114347051D02*
X173847416Y-114369940D01*
X173812050Y-114419663D01*
X173809305Y-114453346D01*
X173854319Y-114564995D01*
X173906043Y-114602288D01*
X173961152Y-114645546D01*
X173982219Y-114738507D01*
X173974477Y-114910999D01*
X173969361Y-114963221D01*
X173955633Y-115156700D01*
X173969707Y-115267475D01*
X174018294Y-115329081D01*
X174045949Y-115345908D01*
X174146466Y-115392005D01*
X174199232Y-115378310D01*
X174219565Y-115284762D01*
X174222794Y-115114265D01*
X174229822Y-114923701D01*
X174247631Y-114773136D01*
X174258648Y-114730311D01*
X174314739Y-114642121D01*
X174363929Y-114660523D01*
X174394872Y-114774052D01*
X174400003Y-114873154D01*
X174441772Y-115112370D01*
X174567078Y-115268049D01*
X174775921Y-115340191D01*
X174872561Y-115345712D01*
X175109605Y-115306255D01*
X175262976Y-115185011D01*
X175336765Y-114977668D01*
X175345119Y-114847907D01*
X175336782Y-114747967D01*
X175096449Y-114747967D01*
X175087196Y-114905968D01*
X175047692Y-114995177D01*
X174939808Y-115092751D01*
X174800001Y-115096269D01*
X174707166Y-115038550D01*
X174645776Y-114911229D01*
X174671017Y-114776644D01*
X174758712Y-114667572D01*
X174884687Y-114616790D01*
X174999833Y-114641763D01*
X175096449Y-114747967D01*
X175336782Y-114747967D01*
X175329510Y-114660801D01*
X175268847Y-114538116D01*
X175189479Y-114463953D01*
X174972826Y-114358342D01*
X174746919Y-114360826D01*
X174590356Y-114433481D01*
X174495539Y-114492413D01*
X174462400Y-114478543D01*
X174459073Y-114433481D01*
X174432765Y-114378538D01*
X174338041Y-114350132D01*
X174151204Y-114341557D01*
X174134189Y-114341526D01*
X173945623Y-114347051D01*
G36*
X167480277Y-113886914D02*
X167458522Y-113930507D01*
X167397492Y-114017953D01*
X167297931Y-114012295D01*
X167210637Y-113999628D01*
X167207684Y-114056401D01*
X167212237Y-114068896D01*
X167208814Y-114150039D01*
X167162103Y-114164317D01*
X167084692Y-114196805D01*
X167075352Y-114223387D01*
X167116242Y-114280780D01*
X167128892Y-114282457D01*
X167160395Y-114329088D01*
X167153667Y-114392450D01*
X167175004Y-114495779D01*
X167264918Y-114558305D01*
X167374055Y-114546174D01*
X167376031Y-114544976D01*
X167411060Y-114573604D01*
X167429110Y-114686603D01*
X167429770Y-114718508D01*
X167444842Y-114866624D01*
X167481720Y-114956279D01*
X167487631Y-114961011D01*
X167509875Y-115028917D01*
X167464767Y-115123674D01*
X167380893Y-115203196D01*
X167306577Y-115227573D01*
X167196575Y-115182741D01*
X167077321Y-115077928D01*
X166994661Y-114957656D01*
X166981771Y-114912133D01*
X166968386Y-114788014D01*
X166966209Y-114769782D01*
X166918113Y-114703855D01*
X166837605Y-114706290D01*
X166782852Y-114769605D01*
X166780003Y-114793741D01*
X166821002Y-114918897D01*
X166921890Y-115074506D01*
X167049505Y-115218231D01*
X167170683Y-115307737D01*
X167187829Y-115314380D01*
X167259818Y-115349053D01*
X167264019Y-115411213D01*
X167213985Y-115523298D01*
X167144405Y-115705006D01*
X167093682Y-115909052D01*
X167091895Y-115919823D01*
X167040926Y-116087070D01*
X166961931Y-116208531D01*
X166947639Y-116220341D01*
X166851208Y-116332369D01*
X166869872Y-116454995D01*
X166958434Y-116557748D01*
X167077795Y-116665768D01*
X166928899Y-116821182D01*
X166805369Y-117003713D01*
X166797397Y-117183598D01*
X166902430Y-117375653D01*
X167050899Y-117499900D01*
X167223468Y-117531294D01*
X167464491Y-117505604D01*
X167645165Y-117437035D01*
X167750075Y-117338334D01*
X167763811Y-117222251D01*
X167705844Y-117132284D01*
X167616007Y-117071665D01*
X167508322Y-117086577D01*
X167453854Y-117109541D01*
X167317116Y-117158281D01*
X167274417Y-117138361D01*
X167325265Y-117051975D01*
X167469164Y-116901314D01*
X167509323Y-116863423D01*
X167652606Y-116718700D01*
X167752041Y-116596683D01*
X167774347Y-116551074D01*
X167294108Y-116551074D01*
X167252561Y-116586178D01*
X167158308Y-116639305D01*
X167145751Y-116619296D01*
X167163956Y-116586178D01*
X167250223Y-116530016D01*
X167270815Y-116528012D01*
X167294108Y-116551074D01*
X167774347Y-116551074D01*
X167784189Y-116530953D01*
X167809407Y-116491966D01*
X167897807Y-116529620D01*
X167931603Y-116551040D01*
X168118785Y-116618013D01*
X168226064Y-116610723D01*
X168339743Y-116603601D01*
X168408590Y-116675338D01*
X168435906Y-116738980D01*
X168467308Y-116907498D01*
X168467707Y-117132566D01*
X168459523Y-117217719D01*
X168420344Y-117531294D01*
X168630408Y-117531294D01*
X168775497Y-117520071D01*
X168858653Y-117492507D01*
X168863102Y-117486992D01*
X168873710Y-117412952D01*
X168884735Y-117247287D01*
X168894702Y-117016496D01*
X168900722Y-116811324D01*
X168915713Y-116179959D01*
X168440185Y-116178914D01*
X168171829Y-116185389D01*
X167997250Y-116208802D01*
X167892815Y-116253010D01*
X167870747Y-116271779D01*
X167794418Y-116330339D01*
X167734035Y-116299867D01*
X167688559Y-116239654D01*
X167575060Y-116144969D01*
X167393851Y-116113814D01*
X167372881Y-116113619D01*
X167227023Y-116105944D01*
X167171055Y-116071383D01*
X167177119Y-115992639D01*
X167177250Y-115992139D01*
X167230459Y-115905750D01*
X167304627Y-115913582D01*
X167422266Y-115946545D01*
X167597496Y-115975777D01*
X167651282Y-115981940D01*
X167804601Y-116008605D01*
X167893428Y-116045598D01*
X167902329Y-116060498D01*
X167949719Y-116108763D01*
X167983550Y-116113619D01*
X168048912Y-116059872D01*
X168102394Y-115919885D01*
X168134059Y-115725544D01*
X168138577Y-115616748D01*
X168019449Y-115616748D01*
X168008561Y-115758480D01*
X167981088Y-115837961D01*
X167894629Y-115871314D01*
X167828720Y-115877340D01*
X167754536Y-115860159D01*
X167739841Y-115786584D01*
X167757163Y-115688710D01*
X167812163Y-115527755D01*
X167877796Y-115427071D01*
X167718170Y-115427071D01*
X167704996Y-115483451D01*
X167670675Y-115638719D01*
X167666050Y-115704962D01*
X167635159Y-115789154D01*
X167524033Y-115817660D01*
X167492326Y-115818271D01*
X167355853Y-115799982D01*
X167281942Y-115758952D01*
X167286649Y-115676224D01*
X167340806Y-115535328D01*
X167378866Y-115461952D01*
X167462003Y-115321764D01*
X167512465Y-115273022D01*
X167552639Y-115302651D01*
X167577553Y-115345914D01*
X167645187Y-115422304D01*
X167693298Y-115421402D01*
X167718170Y-115427071D01*
X167877796Y-115427071D01*
X167886277Y-115414061D01*
X167958761Y-115375153D01*
X167983901Y-115387905D01*
X168011351Y-115473568D01*
X168019449Y-115616748D01*
X168138577Y-115616748D01*
X168138608Y-115616009D01*
X168183329Y-115501240D01*
X168328673Y-115415980D01*
X168330584Y-115415257D01*
X168510323Y-115328208D01*
X168670604Y-115218105D01*
X168785158Y-115107265D01*
X168827713Y-115018005D01*
X168821954Y-114997838D01*
X168740799Y-114938449D01*
X168651942Y-114946948D01*
X168611166Y-115016541D01*
X168563509Y-115115846D01*
X168448753Y-115226130D01*
X168309219Y-115313828D01*
X168196115Y-115345712D01*
X168104800Y-115295325D01*
X168051230Y-115173491D01*
X168051124Y-115168503D01*
X167784189Y-115168503D01*
X167764035Y-115226037D01*
X167758140Y-115227573D01*
X167707708Y-115186181D01*
X167695584Y-115168503D01*
X167700268Y-115114071D01*
X167721633Y-115109433D01*
X167781785Y-115152313D01*
X167784189Y-115168503D01*
X168051124Y-115168503D01*
X168048042Y-115024207D01*
X168078108Y-114934895D01*
X168126147Y-114785434D01*
X168138608Y-114670293D01*
X168148678Y-114629642D01*
X168020468Y-114629642D01*
X167990880Y-114725017D01*
X167888603Y-114766618D01*
X167705367Y-114764187D01*
X167625334Y-114781707D01*
X167626570Y-114835441D01*
X167693535Y-114893888D01*
X167783624Y-114922820D01*
X167871472Y-114947912D01*
X167849432Y-114987279D01*
X167841250Y-114992535D01*
X167719693Y-115007718D01*
X167596638Y-114939018D01*
X167519989Y-114819171D01*
X167506337Y-114674643D01*
X167522393Y-114553294D01*
X167566561Y-114450213D01*
X167655080Y-114409417D01*
X167775825Y-114405260D01*
X167895026Y-114414951D01*
X167927784Y-114433371D01*
X167917096Y-114439717D01*
X167850818Y-114517424D01*
X167843259Y-114560426D01*
X167859185Y-114619074D01*
X167924787Y-114583620D01*
X167931863Y-114577805D01*
X167999757Y-114539758D01*
X168019982Y-114600984D01*
X168020468Y-114629642D01*
X168148678Y-114629642D01*
X168168749Y-114548619D01*
X168227212Y-114518736D01*
X168299283Y-114469115D01*
X168315817Y-114396713D01*
X168338847Y-114268682D01*
X168172919Y-114268682D01*
X168165024Y-114287502D01*
X168093312Y-114316768D01*
X168074493Y-114308873D01*
X168045227Y-114237161D01*
X168049654Y-114226605D01*
X167961398Y-114226605D01*
X167909862Y-114271624D01*
X167784189Y-114269857D01*
X167660599Y-114264404D01*
X167607042Y-114287184D01*
X167606980Y-114288356D01*
X167558467Y-114338711D01*
X167503608Y-114359878D01*
X167408685Y-114386107D01*
X167385468Y-114393744D01*
X167372392Y-114352258D01*
X167370701Y-114311992D01*
X167415820Y-114233630D01*
X167455086Y-114223387D01*
X167564212Y-114184491D01*
X167626429Y-114136429D01*
X167704754Y-114079616D01*
X167769171Y-114117336D01*
X167785016Y-114135779D01*
X167867847Y-114193075D01*
X167909022Y-114189715D01*
X167957335Y-114202442D01*
X167961398Y-114226605D01*
X168049654Y-114226605D01*
X168053121Y-114218342D01*
X168124833Y-114189076D01*
X168143653Y-114196970D01*
X168172919Y-114268682D01*
X168338847Y-114268682D01*
X168344250Y-114238650D01*
X168373698Y-114166539D01*
X168396330Y-114083453D01*
X168331449Y-114035563D01*
X168270917Y-114018065D01*
X168136508Y-113965050D01*
X168065362Y-113908587D01*
X168011669Y-113873249D01*
X167970952Y-113916067D01*
X167916107Y-113959058D01*
X167845579Y-113901299D01*
X167723625Y-113821926D01*
X167586031Y-113818325D01*
X167480277Y-113886914D01*
X167480277Y-113886914D01*
G37*
X167480277Y-113886914D02*
X167458522Y-113930507D01*
X167397492Y-114017953D01*
X167297931Y-114012295D01*
X167210637Y-113999628D01*
X167207684Y-114056401D01*
X167212237Y-114068896D01*
X167208814Y-114150039D01*
X167162103Y-114164317D01*
X167084692Y-114196805D01*
X167075352Y-114223387D01*
X167116242Y-114280780D01*
X167128892Y-114282457D01*
X167160395Y-114329088D01*
X167153667Y-114392450D01*
X167175004Y-114495779D01*
X167264918Y-114558305D01*
X167374055Y-114546174D01*
X167376031Y-114544976D01*
X167411060Y-114573604D01*
X167429110Y-114686603D01*
X167429770Y-114718508D01*
X167444842Y-114866624D01*
X167481720Y-114956279D01*
X167487631Y-114961011D01*
X167509875Y-115028917D01*
X167464767Y-115123674D01*
X167380893Y-115203196D01*
X167306577Y-115227573D01*
X167196575Y-115182741D01*
X167077321Y-115077928D01*
X166994661Y-114957656D01*
X166981771Y-114912133D01*
X166968386Y-114788014D01*
X166966209Y-114769782D01*
X166918113Y-114703855D01*
X166837605Y-114706290D01*
X166782852Y-114769605D01*
X166780003Y-114793741D01*
X166821002Y-114918897D01*
X166921890Y-115074506D01*
X167049505Y-115218231D01*
X167170683Y-115307737D01*
X167187829Y-115314380D01*
X167259818Y-115349053D01*
X167264019Y-115411213D01*
X167213985Y-115523298D01*
X167144405Y-115705006D01*
X167093682Y-115909052D01*
X167091895Y-115919823D01*
X167040926Y-116087070D01*
X166961931Y-116208531D01*
X166947639Y-116220341D01*
X166851208Y-116332369D01*
X166869872Y-116454995D01*
X166958434Y-116557748D01*
X167077795Y-116665768D01*
X166928899Y-116821182D01*
X166805369Y-117003713D01*
X166797397Y-117183598D01*
X166902430Y-117375653D01*
X167050899Y-117499900D01*
X167223468Y-117531294D01*
X167464491Y-117505604D01*
X167645165Y-117437035D01*
X167750075Y-117338334D01*
X167763811Y-117222251D01*
X167705844Y-117132284D01*
X167616007Y-117071665D01*
X167508322Y-117086577D01*
X167453854Y-117109541D01*
X167317116Y-117158281D01*
X167274417Y-117138361D01*
X167325265Y-117051975D01*
X167469164Y-116901314D01*
X167509323Y-116863423D01*
X167652606Y-116718700D01*
X167752041Y-116596683D01*
X167774347Y-116551074D01*
X167294108Y-116551074D01*
X167252561Y-116586178D01*
X167158308Y-116639305D01*
X167145751Y-116619296D01*
X167163956Y-116586178D01*
X167250223Y-116530016D01*
X167270815Y-116528012D01*
X167294108Y-116551074D01*
X167774347Y-116551074D01*
X167784189Y-116530953D01*
X167809407Y-116491966D01*
X167897807Y-116529620D01*
X167931603Y-116551040D01*
X168118785Y-116618013D01*
X168226064Y-116610723D01*
X168339743Y-116603601D01*
X168408590Y-116675338D01*
X168435906Y-116738980D01*
X168467308Y-116907498D01*
X168467707Y-117132566D01*
X168459523Y-117217719D01*
X168420344Y-117531294D01*
X168630408Y-117531294D01*
X168775497Y-117520071D01*
X168858653Y-117492507D01*
X168863102Y-117486992D01*
X168873710Y-117412952D01*
X168884735Y-117247287D01*
X168894702Y-117016496D01*
X168900722Y-116811324D01*
X168915713Y-116179959D01*
X168440185Y-116178914D01*
X168171829Y-116185389D01*
X167997250Y-116208802D01*
X167892815Y-116253010D01*
X167870747Y-116271779D01*
X167794418Y-116330339D01*
X167734035Y-116299867D01*
X167688559Y-116239654D01*
X167575060Y-116144969D01*
X167393851Y-116113814D01*
X167372881Y-116113619D01*
X167227023Y-116105944D01*
X167171055Y-116071383D01*
X167177119Y-115992639D01*
X167177250Y-115992139D01*
X167230459Y-115905750D01*
X167304627Y-115913582D01*
X167422266Y-115946545D01*
X167597496Y-115975777D01*
X167651282Y-115981940D01*
X167804601Y-116008605D01*
X167893428Y-116045598D01*
X167902329Y-116060498D01*
X167949719Y-116108763D01*
X167983550Y-116113619D01*
X168048912Y-116059872D01*
X168102394Y-115919885D01*
X168134059Y-115725544D01*
X168138577Y-115616748D01*
X168019449Y-115616748D01*
X168008561Y-115758480D01*
X167981088Y-115837961D01*
X167894629Y-115871314D01*
X167828720Y-115877340D01*
X167754536Y-115860159D01*
X167739841Y-115786584D01*
X167757163Y-115688710D01*
X167812163Y-115527755D01*
X167877796Y-115427071D01*
X167718170Y-115427071D01*
X167704996Y-115483451D01*
X167670675Y-115638719D01*
X167666050Y-115704962D01*
X167635159Y-115789154D01*
X167524033Y-115817660D01*
X167492326Y-115818271D01*
X167355853Y-115799982D01*
X167281942Y-115758952D01*
X167286649Y-115676224D01*
X167340806Y-115535328D01*
X167378866Y-115461952D01*
X167462003Y-115321764D01*
X167512465Y-115273022D01*
X167552639Y-115302651D01*
X167577553Y-115345914D01*
X167645187Y-115422304D01*
X167693298Y-115421402D01*
X167718170Y-115427071D01*
X167877796Y-115427071D01*
X167886277Y-115414061D01*
X167958761Y-115375153D01*
X167983901Y-115387905D01*
X168011351Y-115473568D01*
X168019449Y-115616748D01*
X168138577Y-115616748D01*
X168138608Y-115616009D01*
X168183329Y-115501240D01*
X168328673Y-115415980D01*
X168330584Y-115415257D01*
X168510323Y-115328208D01*
X168670604Y-115218105D01*
X168785158Y-115107265D01*
X168827713Y-115018005D01*
X168821954Y-114997838D01*
X168740799Y-114938449D01*
X168651942Y-114946948D01*
X168611166Y-115016541D01*
X168563509Y-115115846D01*
X168448753Y-115226130D01*
X168309219Y-115313828D01*
X168196115Y-115345712D01*
X168104800Y-115295325D01*
X168051230Y-115173491D01*
X168051124Y-115168503D01*
X167784189Y-115168503D01*
X167764035Y-115226037D01*
X167758140Y-115227573D01*
X167707708Y-115186181D01*
X167695584Y-115168503D01*
X167700268Y-115114071D01*
X167721633Y-115109433D01*
X167781785Y-115152313D01*
X167784189Y-115168503D01*
X168051124Y-115168503D01*
X168048042Y-115024207D01*
X168078108Y-114934895D01*
X168126147Y-114785434D01*
X168138608Y-114670293D01*
X168148678Y-114629642D01*
X168020468Y-114629642D01*
X167990880Y-114725017D01*
X167888603Y-114766618D01*
X167705367Y-114764187D01*
X167625334Y-114781707D01*
X167626570Y-114835441D01*
X167693535Y-114893888D01*
X167783624Y-114922820D01*
X167871472Y-114947912D01*
X167849432Y-114987279D01*
X167841250Y-114992535D01*
X167719693Y-115007718D01*
X167596638Y-114939018D01*
X167519989Y-114819171D01*
X167506337Y-114674643D01*
X167522393Y-114553294D01*
X167566561Y-114450213D01*
X167655080Y-114409417D01*
X167775825Y-114405260D01*
X167895026Y-114414951D01*
X167927784Y-114433371D01*
X167917096Y-114439717D01*
X167850818Y-114517424D01*
X167843259Y-114560426D01*
X167859185Y-114619074D01*
X167924787Y-114583620D01*
X167931863Y-114577805D01*
X167999757Y-114539758D01*
X168019982Y-114600984D01*
X168020468Y-114629642D01*
X168148678Y-114629642D01*
X168168749Y-114548619D01*
X168227212Y-114518736D01*
X168299283Y-114469115D01*
X168315817Y-114396713D01*
X168338847Y-114268682D01*
X168172919Y-114268682D01*
X168165024Y-114287502D01*
X168093312Y-114316768D01*
X168074493Y-114308873D01*
X168045227Y-114237161D01*
X168049654Y-114226605D01*
X167961398Y-114226605D01*
X167909862Y-114271624D01*
X167784189Y-114269857D01*
X167660599Y-114264404D01*
X167607042Y-114287184D01*
X167606980Y-114288356D01*
X167558467Y-114338711D01*
X167503608Y-114359878D01*
X167408685Y-114386107D01*
X167385468Y-114393744D01*
X167372392Y-114352258D01*
X167370701Y-114311992D01*
X167415820Y-114233630D01*
X167455086Y-114223387D01*
X167564212Y-114184491D01*
X167626429Y-114136429D01*
X167704754Y-114079616D01*
X167769171Y-114117336D01*
X167785016Y-114135779D01*
X167867847Y-114193075D01*
X167909022Y-114189715D01*
X167957335Y-114202442D01*
X167961398Y-114226605D01*
X168049654Y-114226605D01*
X168053121Y-114218342D01*
X168124833Y-114189076D01*
X168143653Y-114196970D01*
X168172919Y-114268682D01*
X168338847Y-114268682D01*
X168344250Y-114238650D01*
X168373698Y-114166539D01*
X168396330Y-114083453D01*
X168331449Y-114035563D01*
X168270917Y-114018065D01*
X168136508Y-113965050D01*
X168065362Y-113908587D01*
X168011669Y-113873249D01*
X167970952Y-113916067D01*
X167916107Y-113959058D01*
X167845579Y-113901299D01*
X167723625Y-113821926D01*
X167586031Y-113818325D01*
X167480277Y-113886914D01*
G36*
X169310041Y-116130992D02*
X169220700Y-116183769D01*
X169124909Y-116287757D01*
X169123840Y-116289027D01*
X169030121Y-116421153D01*
X168982231Y-116561103D01*
X168966242Y-116756616D01*
X168965584Y-116831533D01*
X168972761Y-117042501D01*
X169004075Y-117180509D01*
X169074200Y-117290357D01*
X169138250Y-117358628D01*
X169354525Y-117495167D01*
X169622165Y-117529626D01*
X169923232Y-117463384D01*
X170100063Y-117341723D01*
X170237505Y-117139382D01*
X170314677Y-116892360D01*
X170324189Y-116772114D01*
X170319843Y-116741210D01*
X169840053Y-116741210D01*
X169819944Y-116924122D01*
X169761997Y-117021792D01*
X169650726Y-117104751D01*
X169550198Y-117092652D01*
X169438143Y-116999666D01*
X169343315Y-116888211D01*
X169332966Y-116795795D01*
X169403508Y-116670553D01*
X169414319Y-116655018D01*
X169541911Y-116549198D01*
X169665366Y-116538503D01*
X169780736Y-116575284D01*
X169830788Y-116674525D01*
X169840053Y-116741210D01*
X170319843Y-116741210D01*
X170294080Y-116558032D01*
X170186407Y-116376092D01*
X170155761Y-116340467D01*
X170041145Y-116229675D01*
X169919895Y-116167737D01*
X169746894Y-116136123D01*
X169634713Y-116126457D01*
X169434268Y-116116272D01*
X169310041Y-116130992D01*
X169310041Y-116130992D01*
G37*
X169310041Y-116130992D02*
X169220700Y-116183769D01*
X169124909Y-116287757D01*
X169123840Y-116289027D01*
X169030121Y-116421153D01*
X168982231Y-116561103D01*
X168966242Y-116756616D01*
X168965584Y-116831533D01*
X168972761Y-117042501D01*
X169004075Y-117180509D01*
X169074200Y-117290357D01*
X169138250Y-117358628D01*
X169354525Y-117495167D01*
X169622165Y-117529626D01*
X169923232Y-117463384D01*
X170100063Y-117341723D01*
X170237505Y-117139382D01*
X170314677Y-116892360D01*
X170324189Y-116772114D01*
X170319843Y-116741210D01*
X169840053Y-116741210D01*
X169819944Y-116924122D01*
X169761997Y-117021792D01*
X169650726Y-117104751D01*
X169550198Y-117092652D01*
X169438143Y-116999666D01*
X169343315Y-116888211D01*
X169332966Y-116795795D01*
X169403508Y-116670553D01*
X169414319Y-116655018D01*
X169541911Y-116549198D01*
X169665366Y-116538503D01*
X169780736Y-116575284D01*
X169830788Y-116674525D01*
X169840053Y-116741210D01*
X170319843Y-116741210D01*
X170294080Y-116558032D01*
X170186407Y-116376092D01*
X170155761Y-116340467D01*
X170041145Y-116229675D01*
X169919895Y-116167737D01*
X169746894Y-116136123D01*
X169634713Y-116126457D01*
X169434268Y-116116272D01*
X169310041Y-116130992D01*
G36*
X170721032Y-116136177D02*
X170543448Y-116194680D01*
X170420010Y-116282927D01*
X170383259Y-116373628D01*
X170423603Y-116468261D01*
X170496485Y-116552196D01*
X170609748Y-116620629D01*
X170733527Y-116596107D01*
X170747531Y-116589680D01*
X170835445Y-116550486D01*
X170823617Y-116566152D01*
X170775581Y-116599739D01*
X170577578Y-116740968D01*
X170459978Y-116847487D01*
X170402310Y-116946079D01*
X170384100Y-117063522D01*
X170383259Y-117112938D01*
X170418573Y-117321914D01*
X170491282Y-117433534D01*
X170645532Y-117506018D01*
X170858950Y-117525870D01*
X171084837Y-117492899D01*
X171228607Y-117436549D01*
X171351876Y-117328400D01*
X171362834Y-117209742D01*
X171259925Y-117098305D01*
X171258383Y-117097330D01*
X171138664Y-117068018D01*
X171007426Y-117115700D01*
X170873604Y-117162677D01*
X170810705Y-117141890D01*
X170835937Y-117073345D01*
X170914771Y-117007976D01*
X171143780Y-116819223D01*
X171284567Y-116619745D01*
X171330602Y-116425855D01*
X171275358Y-116253864D01*
X171235551Y-116206443D01*
X171101395Y-116135329D01*
X170918451Y-116114150D01*
X170721032Y-116136177D01*
X170721032Y-116136177D01*
G37*
X170721032Y-116136177D02*
X170543448Y-116194680D01*
X170420010Y-116282927D01*
X170383259Y-116373628D01*
X170423603Y-116468261D01*
X170496485Y-116552196D01*
X170609748Y-116620629D01*
X170733527Y-116596107D01*
X170747531Y-116589680D01*
X170835445Y-116550486D01*
X170823617Y-116566152D01*
X170775581Y-116599739D01*
X170577578Y-116740968D01*
X170459978Y-116847487D01*
X170402310Y-116946079D01*
X170384100Y-117063522D01*
X170383259Y-117112938D01*
X170418573Y-117321914D01*
X170491282Y-117433534D01*
X170645532Y-117506018D01*
X170858950Y-117525870D01*
X171084837Y-117492899D01*
X171228607Y-117436549D01*
X171351876Y-117328400D01*
X171362834Y-117209742D01*
X171259925Y-117098305D01*
X171258383Y-117097330D01*
X171138664Y-117068018D01*
X171007426Y-117115700D01*
X170873604Y-117162677D01*
X170810705Y-117141890D01*
X170835937Y-117073345D01*
X170914771Y-117007976D01*
X171143780Y-116819223D01*
X171284567Y-116619745D01*
X171330602Y-116425855D01*
X171275358Y-116253864D01*
X171235551Y-116206443D01*
X171101395Y-116135329D01*
X170918451Y-116114150D01*
X170721032Y-116136177D01*
G36*
X171726501Y-116192659D02*
X171583369Y-116300855D01*
X171496838Y-116486879D01*
X171455254Y-116764235D01*
X171446515Y-117062581D01*
X171446515Y-117531294D01*
X171911590Y-117531294D01*
X171903090Y-117162108D01*
X171910998Y-116931935D01*
X171941203Y-116739305D01*
X171971667Y-116653123D01*
X172034682Y-116558956D01*
X172091200Y-116561248D01*
X172144431Y-116609011D01*
X172212102Y-116744824D01*
X172254059Y-116992537D01*
X172263470Y-117117995D01*
X172277575Y-117333736D01*
X172297376Y-117457239D01*
X172334942Y-117514231D01*
X172402344Y-117530440D01*
X172457367Y-117531294D01*
X172627910Y-117531294D01*
X172627910Y-116188864D01*
X172229189Y-116155728D01*
X171937889Y-116148784D01*
X171726501Y-116192659D01*
X171726501Y-116192659D01*
G37*
X171726501Y-116192659D02*
X171583369Y-116300855D01*
X171496838Y-116486879D01*
X171455254Y-116764235D01*
X171446515Y-117062581D01*
X171446515Y-117531294D01*
X171911590Y-117531294D01*
X171903090Y-117162108D01*
X171910998Y-116931935D01*
X171941203Y-116739305D01*
X171971667Y-116653123D01*
X172034682Y-116558956D01*
X172091200Y-116561248D01*
X172144431Y-116609011D01*
X172212102Y-116744824D01*
X172254059Y-116992537D01*
X172263470Y-117117995D01*
X172277575Y-117333736D01*
X172297376Y-117457239D01*
X172334942Y-117514231D01*
X172402344Y-117530440D01*
X172457367Y-117531294D01*
X172627910Y-117531294D01*
X172627910Y-116188864D01*
X172229189Y-116155728D01*
X171937889Y-116148784D01*
X171726501Y-116192659D01*
G36*
X173049454Y-116196560D02*
X172863238Y-116346374D01*
X172770931Y-116499599D01*
X172697120Y-116726185D01*
X172701862Y-116875366D01*
X172786773Y-116959391D01*
X172833613Y-116975148D01*
X172980246Y-117011950D01*
X172848380Y-117123767D01*
X172716515Y-117235584D01*
X172882250Y-117383439D01*
X173095248Y-117501274D01*
X173355223Y-117541935D01*
X173619829Y-117505567D01*
X173745803Y-117442689D01*
X173277677Y-117442689D01*
X173248143Y-117472224D01*
X173218608Y-117442689D01*
X173248143Y-117413154D01*
X173277677Y-117442689D01*
X173745803Y-117442689D01*
X173846722Y-117392317D01*
X173861834Y-117380059D01*
X173950941Y-117265480D01*
X173218608Y-117265480D01*
X173189073Y-117295015D01*
X173159538Y-117265480D01*
X173189073Y-117235945D01*
X173218608Y-117265480D01*
X173950941Y-117265480D01*
X174026164Y-117168756D01*
X174055002Y-117052719D01*
X173656022Y-117052719D01*
X173632096Y-117088271D01*
X173504043Y-117160604D01*
X173329499Y-117165788D01*
X173159042Y-117104013D01*
X173133480Y-117086392D01*
X173079906Y-117038177D01*
X173093654Y-117012120D01*
X173192392Y-117001522D01*
X173362225Y-116999666D01*
X173551372Y-117003360D01*
X173642602Y-117018844D01*
X173656022Y-117052719D01*
X174055002Y-117052719D01*
X174092235Y-116902904D01*
X174056179Y-116598997D01*
X174052474Y-116586178D01*
X173543491Y-116586178D01*
X173532986Y-116631649D01*
X173451341Y-116642010D01*
X173340219Y-116617262D01*
X173277677Y-116586178D01*
X173237020Y-116545010D01*
X173298664Y-116529242D01*
X173348029Y-116528012D01*
X173478825Y-116547161D01*
X173543491Y-116586178D01*
X174052474Y-116586178D01*
X174050010Y-116577655D01*
X173930559Y-116356234D01*
X173743801Y-116205768D01*
X173516713Y-116127903D01*
X173276272Y-116124284D01*
X173049454Y-116196560D01*
X173049454Y-116196560D01*
G37*
X173049454Y-116196560D02*
X172863238Y-116346374D01*
X172770931Y-116499599D01*
X172697120Y-116726185D01*
X172701862Y-116875366D01*
X172786773Y-116959391D01*
X172833613Y-116975148D01*
X172980246Y-117011950D01*
X172848380Y-117123767D01*
X172716515Y-117235584D01*
X172882250Y-117383439D01*
X173095248Y-117501274D01*
X173355223Y-117541935D01*
X173619829Y-117505567D01*
X173745803Y-117442689D01*
X173277677Y-117442689D01*
X173248143Y-117472224D01*
X173218608Y-117442689D01*
X173248143Y-117413154D01*
X173277677Y-117442689D01*
X173745803Y-117442689D01*
X173846722Y-117392317D01*
X173861834Y-117380059D01*
X173950941Y-117265480D01*
X173218608Y-117265480D01*
X173189073Y-117295015D01*
X173159538Y-117265480D01*
X173189073Y-117235945D01*
X173218608Y-117265480D01*
X173950941Y-117265480D01*
X174026164Y-117168756D01*
X174055002Y-117052719D01*
X173656022Y-117052719D01*
X173632096Y-117088271D01*
X173504043Y-117160604D01*
X173329499Y-117165788D01*
X173159042Y-117104013D01*
X173133480Y-117086392D01*
X173079906Y-117038177D01*
X173093654Y-117012120D01*
X173192392Y-117001522D01*
X173362225Y-116999666D01*
X173551372Y-117003360D01*
X173642602Y-117018844D01*
X173656022Y-117052719D01*
X174055002Y-117052719D01*
X174092235Y-116902904D01*
X174056179Y-116598997D01*
X174052474Y-116586178D01*
X173543491Y-116586178D01*
X173532986Y-116631649D01*
X173451341Y-116642010D01*
X173340219Y-116617262D01*
X173277677Y-116586178D01*
X173237020Y-116545010D01*
X173298664Y-116529242D01*
X173348029Y-116528012D01*
X173478825Y-116547161D01*
X173543491Y-116586178D01*
X174052474Y-116586178D01*
X174050010Y-116577655D01*
X173930559Y-116356234D01*
X173743801Y-116205768D01*
X173516713Y-116127903D01*
X173276272Y-116124284D01*
X173049454Y-116196560D01*
G36*
X174516956Y-115751207D02*
X174365922Y-115831320D01*
X174301557Y-115889866D01*
X174200938Y-115997764D01*
X174177363Y-116066680D01*
X174222953Y-116139758D01*
X174250300Y-116170448D01*
X174381517Y-116273663D01*
X174486170Y-116273402D01*
X174539504Y-116202224D01*
X174606473Y-116130512D01*
X174694817Y-116118305D01*
X174751443Y-116168348D01*
X174754422Y-116191116D01*
X174710569Y-116274002D01*
X174602245Y-116380147D01*
X174573681Y-116402239D01*
X174361509Y-116609491D01*
X174217710Y-116853087D01*
X174163955Y-117096194D01*
X174163945Y-117098751D01*
X174213792Y-117292498D01*
X174345534Y-117434038D01*
X174531705Y-117515855D01*
X174744837Y-117530429D01*
X174957465Y-117470243D01*
X175113384Y-117358628D01*
X175241146Y-117213915D01*
X175275351Y-117111359D01*
X175217606Y-117023107D01*
X175136178Y-116963260D01*
X175024378Y-116901390D01*
X174944604Y-116913546D01*
X174851790Y-116991433D01*
X174722625Y-117095858D01*
X174653697Y-117105934D01*
X174636282Y-117040712D01*
X174676404Y-116963584D01*
X174781665Y-116835038D01*
X174929406Y-116682701D01*
X174931631Y-116680566D01*
X175094098Y-116515099D01*
X175184126Y-116389628D01*
X175221517Y-116270336D01*
X175226980Y-116176117D01*
X175183428Y-115951112D01*
X175052122Y-115804588D01*
X174832086Y-115735685D01*
X174720028Y-115729666D01*
X174516956Y-115751207D01*
X174516956Y-115751207D01*
G37*
X174516956Y-115751207D02*
X174365922Y-115831320D01*
X174301557Y-115889866D01*
X174200938Y-115997764D01*
X174177363Y-116066680D01*
X174222953Y-116139758D01*
X174250300Y-116170448D01*
X174381517Y-116273663D01*
X174486170Y-116273402D01*
X174539504Y-116202224D01*
X174606473Y-116130512D01*
X174694817Y-116118305D01*
X174751443Y-116168348D01*
X174754422Y-116191116D01*
X174710569Y-116274002D01*
X174602245Y-116380147D01*
X174573681Y-116402239D01*
X174361509Y-116609491D01*
X174217710Y-116853087D01*
X174163955Y-117096194D01*
X174163945Y-117098751D01*
X174213792Y-117292498D01*
X174345534Y-117434038D01*
X174531705Y-117515855D01*
X174744837Y-117530429D01*
X174957465Y-117470243D01*
X175113384Y-117358628D01*
X175241146Y-117213915D01*
X175275351Y-117111359D01*
X175217606Y-117023107D01*
X175136178Y-116963260D01*
X175024378Y-116901390D01*
X174944604Y-116913546D01*
X174851790Y-116991433D01*
X174722625Y-117095858D01*
X174653697Y-117105934D01*
X174636282Y-117040712D01*
X174676404Y-116963584D01*
X174781665Y-116835038D01*
X174929406Y-116682701D01*
X174931631Y-116680566D01*
X175094098Y-116515099D01*
X175184126Y-116389628D01*
X175221517Y-116270336D01*
X175226980Y-116176117D01*
X175183428Y-115951112D01*
X175052122Y-115804588D01*
X174832086Y-115735685D01*
X174720028Y-115729666D01*
X174516956Y-115751207D01*
G36*
X176943376Y-115777867D02*
X176863785Y-115857627D01*
X176827642Y-115945225D01*
X176781174Y-116114962D01*
X176761889Y-116255341D01*
X176746434Y-116329668D01*
X176717587Y-116313017D01*
X176632799Y-116254079D01*
X176496980Y-116208968D01*
X176381414Y-116196488D01*
X176300559Y-116236384D01*
X176217634Y-116352162D01*
X176185100Y-116408291D01*
X176094447Y-116549424D01*
X176019818Y-116634234D01*
X175997704Y-116645247D01*
X175947803Y-116594713D01*
X175888603Y-116468907D01*
X175872768Y-116423736D01*
X175797974Y-116241782D01*
X175703413Y-116148774D01*
X175553221Y-116116617D01*
X175478026Y-116114524D01*
X175376016Y-116119856D01*
X175315827Y-116148574D01*
X175297953Y-116218031D01*
X175322889Y-116345575D01*
X175391130Y-116548558D01*
X175498479Y-116832157D01*
X175601341Y-117105355D01*
X175697742Y-117372125D01*
X175772685Y-117590546D01*
X175796116Y-117664201D01*
X175852239Y-117831131D01*
X175910062Y-117913845D01*
X176003188Y-117941877D01*
X176115315Y-117944782D01*
X176262484Y-117936634D01*
X176343718Y-117916302D01*
X176349305Y-117908408D01*
X176331068Y-117836016D01*
X176284588Y-117692014D01*
X176251036Y-117595351D01*
X176152768Y-117318669D01*
X176406603Y-116891401D01*
X176524141Y-116700201D01*
X176618598Y-116558933D01*
X176674888Y-116489673D01*
X176683092Y-116486786D01*
X176686518Y-116552075D01*
X176674087Y-116702261D01*
X176648477Y-116905564D01*
X176646835Y-116916995D01*
X176607939Y-117192878D01*
X176590504Y-117371744D01*
X176599848Y-117473609D01*
X176641291Y-117518486D01*
X176720150Y-117526391D01*
X176807096Y-117520092D01*
X176953454Y-117498323D01*
X177019324Y-117442135D01*
X177042349Y-117315755D01*
X177043958Y-117295015D01*
X177066392Y-117080935D01*
X177095637Y-116881526D01*
X177116304Y-116776684D01*
X177136165Y-116746160D01*
X177164855Y-116801391D01*
X177212011Y-116953816D01*
X177240900Y-117053954D01*
X177315393Y-117294340D01*
X177379915Y-117439735D01*
X177450005Y-117510501D01*
X177541203Y-117527001D01*
X177597725Y-117521528D01*
X177714614Y-117462536D01*
X177829828Y-117312458D01*
X177950543Y-117060656D01*
X178007573Y-116914025D01*
X178049339Y-116814570D01*
X178079720Y-116790715D01*
X178104587Y-116853850D01*
X178129811Y-117015365D01*
X178150664Y-117191643D01*
X178188969Y-117531294D01*
X178605946Y-117531294D01*
X178565124Y-117103038D01*
X178536682Y-116849353D01*
X178502418Y-116606640D01*
X178471968Y-116438503D01*
X178436644Y-116232922D01*
X178418681Y-116038841D01*
X178418191Y-116016567D01*
X178387281Y-115863047D01*
X178284652Y-115782384D01*
X178093436Y-115759201D01*
X177977631Y-115796907D01*
X177916283Y-115921643D01*
X177863507Y-116091675D01*
X177789799Y-116281603D01*
X177709883Y-116458867D01*
X177638483Y-116590905D01*
X177590322Y-116645156D01*
X177589070Y-116645247D01*
X177550154Y-116593533D01*
X177510799Y-116465486D01*
X177503123Y-116428159D01*
X177451600Y-116221388D01*
X177380071Y-116005762D01*
X177371995Y-115985136D01*
X177300410Y-115838082D01*
X177217937Y-115773437D01*
X177087042Y-115759201D01*
X176943376Y-115777867D01*
X176943376Y-115777867D01*
G37*
X176943376Y-115777867D02*
X176863785Y-115857627D01*
X176827642Y-115945225D01*
X176781174Y-116114962D01*
X176761889Y-116255341D01*
X176746434Y-116329668D01*
X176717587Y-116313017D01*
X176632799Y-116254079D01*
X176496980Y-116208968D01*
X176381414Y-116196488D01*
X176300559Y-116236384D01*
X176217634Y-116352162D01*
X176185100Y-116408291D01*
X176094447Y-116549424D01*
X176019818Y-116634234D01*
X175997704Y-116645247D01*
X175947803Y-116594713D01*
X175888603Y-116468907D01*
X175872768Y-116423736D01*
X175797974Y-116241782D01*
X175703413Y-116148774D01*
X175553221Y-116116617D01*
X175478026Y-116114524D01*
X175376016Y-116119856D01*
X175315827Y-116148574D01*
X175297953Y-116218031D01*
X175322889Y-116345575D01*
X175391130Y-116548558D01*
X175498479Y-116832157D01*
X175601341Y-117105355D01*
X175697742Y-117372125D01*
X175772685Y-117590546D01*
X175796116Y-117664201D01*
X175852239Y-117831131D01*
X175910062Y-117913845D01*
X176003188Y-117941877D01*
X176115315Y-117944782D01*
X176262484Y-117936634D01*
X176343718Y-117916302D01*
X176349305Y-117908408D01*
X176331068Y-117836016D01*
X176284588Y-117692014D01*
X176251036Y-117595351D01*
X176152768Y-117318669D01*
X176406603Y-116891401D01*
X176524141Y-116700201D01*
X176618598Y-116558933D01*
X176674888Y-116489673D01*
X176683092Y-116486786D01*
X176686518Y-116552075D01*
X176674087Y-116702261D01*
X176648477Y-116905564D01*
X176646835Y-116916995D01*
X176607939Y-117192878D01*
X176590504Y-117371744D01*
X176599848Y-117473609D01*
X176641291Y-117518486D01*
X176720150Y-117526391D01*
X176807096Y-117520092D01*
X176953454Y-117498323D01*
X177019324Y-117442135D01*
X177042349Y-117315755D01*
X177043958Y-117295015D01*
X177066392Y-117080935D01*
X177095637Y-116881526D01*
X177116304Y-116776684D01*
X177136165Y-116746160D01*
X177164855Y-116801391D01*
X177212011Y-116953816D01*
X177240900Y-117053954D01*
X177315393Y-117294340D01*
X177379915Y-117439735D01*
X177450005Y-117510501D01*
X177541203Y-117527001D01*
X177597725Y-117521528D01*
X177714614Y-117462536D01*
X177829828Y-117312458D01*
X177950543Y-117060656D01*
X178007573Y-116914025D01*
X178049339Y-116814570D01*
X178079720Y-116790715D01*
X178104587Y-116853850D01*
X178129811Y-117015365D01*
X178150664Y-117191643D01*
X178188969Y-117531294D01*
X178605946Y-117531294D01*
X178565124Y-117103038D01*
X178536682Y-116849353D01*
X178502418Y-116606640D01*
X178471968Y-116438503D01*
X178436644Y-116232922D01*
X178418681Y-116038841D01*
X178418191Y-116016567D01*
X178387281Y-115863047D01*
X178284652Y-115782384D01*
X178093436Y-115759201D01*
X177977631Y-115796907D01*
X177916283Y-115921643D01*
X177863507Y-116091675D01*
X177789799Y-116281603D01*
X177709883Y-116458867D01*
X177638483Y-116590905D01*
X177590322Y-116645156D01*
X177589070Y-116645247D01*
X177550154Y-116593533D01*
X177510799Y-116465486D01*
X177503123Y-116428159D01*
X177451600Y-116221388D01*
X177380071Y-116005762D01*
X177371995Y-115985136D01*
X177300410Y-115838082D01*
X177217937Y-115773437D01*
X177087042Y-115759201D01*
X176943376Y-115777867D01*
G04 #@! TD*
M02*
