M48
;DRILL file {KiCad (5.0.2)-1} date 2019-05-21 15:52:37
;FORMAT={-:-/ absolute / inch / decimal}
FMAT,2
INCH,TZ
T1C0.0157
T2C0.0315
T3C0.0394
T4C0.0591
T5C0.0709
%
G90
G05
T1
X5.8229Y-4.521
X6.2062Y-4.6289
X6.599Y-4.1594
X6.6611Y-4.4086
X6.7408Y-4.5175
X6.7812Y-4.5718
X6.8182Y-4.4596
X6.9208Y-4.4624
T2
X5.3375Y-3.9832
X5.5344Y-4.0541
X6.7381Y-4.238
X6.7381Y-4.3167
T3
X5.4838Y-4.4109
X5.4842Y-4.2109
X5.4434Y-4.6623
X5.6434Y-4.6623
X6.0434Y-4.6623
X6.1434Y-4.6623
X6.774Y-4.1086
X6.874Y-4.1086
X6.974Y-4.1086
X6.6808Y-3.9819
X6.7808Y-3.9819
X6.8808Y-3.9819
X6.9808Y-3.9819
T4
X5.226Y-4.638G85X5.285Y-4.638
G05
X5.225Y-4.3898G85X5.284Y-4.3898
G05
T5
X5.2212Y-4.0198G85X5.2212Y-4.126
G05
T0
M30
