G04 #@! TF.GenerationSoftware,KiCad,Pcbnew,(5.0.2)-1*
G04 #@! TF.CreationDate,2019-05-25T20:07:42+08:00*
G04 #@! TF.ProjectId,1RELAY,3152454c-4159-42e6-9b69-6361645f7063,rev?*
G04 #@! TF.SameCoordinates,Original*
G04 #@! TF.FileFunction,Soldermask,Top*
G04 #@! TF.FilePolarity,Negative*
%FSLAX46Y46*%
G04 Gerber Fmt 4.6, Leading zero omitted, Abs format (unit mm)*
G04 Created by KiCad (PCBNEW (5.0.2)-1) date 2019-05-25 20:07:42*
%MOMM*%
%LPD*%
G01*
G04 APERTURE LIST*
%ADD10C,0.100000*%
G04 APERTURE END LIST*
D10*
G36*
X143648925Y-117411809D02*
X143840194Y-117491035D01*
X144012336Y-117606057D01*
X144158723Y-117752444D01*
X144273745Y-117924586D01*
X144352971Y-118115855D01*
X144393360Y-118318904D01*
X144393360Y-118525936D01*
X144352971Y-118728985D01*
X144273745Y-118920254D01*
X144158723Y-119092396D01*
X144012336Y-119238783D01*
X143840194Y-119353805D01*
X143648925Y-119433031D01*
X143445876Y-119473420D01*
X143238844Y-119473420D01*
X143035795Y-119433031D01*
X142844526Y-119353805D01*
X142672384Y-119238783D01*
X142525997Y-119092396D01*
X142410975Y-118920254D01*
X142331749Y-118728985D01*
X142291360Y-118525936D01*
X142291360Y-118318904D01*
X142331749Y-118115855D01*
X142410975Y-117924586D01*
X142525997Y-117752444D01*
X142672384Y-117606057D01*
X142844526Y-117491035D01*
X143035795Y-117411809D01*
X143238844Y-117371420D01*
X143445876Y-117371420D01*
X143648925Y-117411809D01*
X143648925Y-117411809D01*
G37*
G36*
X153808925Y-117411809D02*
X154000194Y-117491035D01*
X154172336Y-117606057D01*
X154318723Y-117752444D01*
X154433745Y-117924586D01*
X154512971Y-118115855D01*
X154553360Y-118318904D01*
X154553360Y-118525936D01*
X154512971Y-118728985D01*
X154433745Y-118920254D01*
X154318723Y-119092396D01*
X154172336Y-119238783D01*
X154000194Y-119353805D01*
X153808925Y-119433031D01*
X153605876Y-119473420D01*
X153398844Y-119473420D01*
X153195795Y-119433031D01*
X153004526Y-119353805D01*
X152832384Y-119238783D01*
X152685997Y-119092396D01*
X152570975Y-118920254D01*
X152491749Y-118728985D01*
X152451360Y-118525936D01*
X152451360Y-118318904D01*
X152491749Y-118115855D01*
X152570975Y-117924586D01*
X152685997Y-117752444D01*
X152832384Y-117606057D01*
X153004526Y-117491035D01*
X153195795Y-117411809D01*
X153398844Y-117371420D01*
X153605876Y-117371420D01*
X153808925Y-117411809D01*
X153808925Y-117411809D01*
G37*
G36*
X156348925Y-117411809D02*
X156540194Y-117491035D01*
X156712336Y-117606057D01*
X156858723Y-117752444D01*
X156973745Y-117924586D01*
X157052971Y-118115855D01*
X157093360Y-118318904D01*
X157093360Y-118525936D01*
X157052971Y-118728985D01*
X156973745Y-118920254D01*
X156858723Y-119092396D01*
X156712336Y-119238783D01*
X156540194Y-119353805D01*
X156348925Y-119433031D01*
X156145876Y-119473420D01*
X155938844Y-119473420D01*
X155735795Y-119433031D01*
X155544526Y-119353805D01*
X155372384Y-119238783D01*
X155225997Y-119092396D01*
X155110975Y-118920254D01*
X155031749Y-118728985D01*
X154991360Y-118525936D01*
X154991360Y-118318904D01*
X155031749Y-118115855D01*
X155110975Y-117924586D01*
X155225997Y-117752444D01*
X155372384Y-117606057D01*
X155544526Y-117491035D01*
X155735795Y-117411809D01*
X155938844Y-117371420D01*
X156145876Y-117371420D01*
X156348925Y-117411809D01*
X156348925Y-117411809D01*
G37*
G36*
X138568925Y-117411809D02*
X138760194Y-117491035D01*
X138932336Y-117606057D01*
X139078723Y-117752444D01*
X139193745Y-117924586D01*
X139272971Y-118115855D01*
X139313360Y-118318904D01*
X139313360Y-118525936D01*
X139272971Y-118728985D01*
X139193745Y-118920254D01*
X139078723Y-119092396D01*
X138932336Y-119238783D01*
X138760194Y-119353805D01*
X138568925Y-119433031D01*
X138365876Y-119473420D01*
X138158844Y-119473420D01*
X137955795Y-119433031D01*
X137764526Y-119353805D01*
X137592384Y-119238783D01*
X137445997Y-119092396D01*
X137330975Y-118920254D01*
X137251749Y-118728985D01*
X137211360Y-118525936D01*
X137211360Y-118318904D01*
X137251749Y-118115855D01*
X137330975Y-117924586D01*
X137445997Y-117752444D01*
X137592384Y-117606057D01*
X137764526Y-117491035D01*
X137955795Y-117411809D01*
X138158844Y-117371420D01*
X138365876Y-117371420D01*
X138568925Y-117411809D01*
X138568925Y-117411809D01*
G37*
G36*
X134641843Y-116261681D02*
X134793749Y-116276642D01*
X134988659Y-116335767D01*
X135086115Y-116365330D01*
X135184390Y-116417860D01*
X135355558Y-116509351D01*
X135591729Y-116703171D01*
X135785549Y-116939342D01*
X135877040Y-117110510D01*
X135929570Y-117208785D01*
X135929570Y-117208786D01*
X136018258Y-117501151D01*
X136048204Y-117805200D01*
X136018258Y-118109249D01*
X136016254Y-118115855D01*
X135929570Y-118401615D01*
X135877040Y-118499890D01*
X135785549Y-118671058D01*
X135591729Y-118907229D01*
X135355558Y-119101049D01*
X135184390Y-119192540D01*
X135086115Y-119245070D01*
X134988659Y-119274633D01*
X134793749Y-119333758D01*
X134641843Y-119348719D01*
X134565891Y-119356200D01*
X132413509Y-119356200D01*
X132337557Y-119348719D01*
X132185651Y-119333758D01*
X131990741Y-119274633D01*
X131893285Y-119245070D01*
X131795010Y-119192540D01*
X131623842Y-119101049D01*
X131387671Y-118907229D01*
X131193851Y-118671058D01*
X131102360Y-118499890D01*
X131049830Y-118401615D01*
X130963146Y-118115855D01*
X130961142Y-118109249D01*
X130931196Y-117805200D01*
X130961142Y-117501151D01*
X131049830Y-117208786D01*
X131049830Y-117208785D01*
X131102360Y-117110510D01*
X131193851Y-116939342D01*
X131387671Y-116703171D01*
X131623842Y-116509351D01*
X131795010Y-116417860D01*
X131893285Y-116365330D01*
X131990741Y-116335767D01*
X132185651Y-116276642D01*
X132337557Y-116261681D01*
X132413509Y-116254200D01*
X134565891Y-116254200D01*
X134641843Y-116261681D01*
X134641843Y-116261681D01*
G37*
G36*
X163423113Y-115810765D02*
X163498156Y-115833530D01*
X163508125Y-115836554D01*
X163586474Y-115878433D01*
X163655148Y-115934792D01*
X163711507Y-116003466D01*
X163753386Y-116081815D01*
X163753387Y-116081819D01*
X163779175Y-116166827D01*
X163785700Y-116233082D01*
X163785700Y-117477398D01*
X163779175Y-117543653D01*
X163760244Y-117606057D01*
X163753386Y-117628665D01*
X163711507Y-117707014D01*
X163655150Y-117775686D01*
X163655146Y-117775690D01*
X163586477Y-117832045D01*
X163586473Y-117832047D01*
X163508124Y-117873926D01*
X163498155Y-117876950D01*
X163423112Y-117899715D01*
X163334700Y-117908422D01*
X163246287Y-117899715D01*
X163171244Y-117876950D01*
X163161275Y-117873926D01*
X163082926Y-117832047D01*
X163014252Y-117775688D01*
X163014250Y-117775686D01*
X162957895Y-117707017D01*
X162953364Y-117698539D01*
X162916014Y-117628664D01*
X162909156Y-117606055D01*
X162890225Y-117543652D01*
X162883700Y-117477397D01*
X162883701Y-116233082D01*
X162890226Y-116166827D01*
X162916014Y-116081819D01*
X162916015Y-116081815D01*
X162957894Y-116003466D01*
X163014253Y-115934792D01*
X163082927Y-115878433D01*
X163161276Y-115836554D01*
X163171245Y-115833530D01*
X163246288Y-115810765D01*
X163334700Y-115802058D01*
X163423113Y-115810765D01*
X163423113Y-115810765D01*
G37*
G36*
X173583113Y-115810765D02*
X173658156Y-115833530D01*
X173668125Y-115836554D01*
X173746474Y-115878433D01*
X173815148Y-115934792D01*
X173871507Y-116003466D01*
X173913386Y-116081815D01*
X173913387Y-116081819D01*
X173939175Y-116166827D01*
X173945700Y-116233082D01*
X173945700Y-117477398D01*
X173939175Y-117543653D01*
X173920244Y-117606057D01*
X173913386Y-117628665D01*
X173871507Y-117707014D01*
X173815150Y-117775686D01*
X173815146Y-117775690D01*
X173746477Y-117832045D01*
X173746473Y-117832047D01*
X173668124Y-117873926D01*
X173658155Y-117876950D01*
X173583112Y-117899715D01*
X173494700Y-117908422D01*
X173406287Y-117899715D01*
X173331244Y-117876950D01*
X173321275Y-117873926D01*
X173242926Y-117832047D01*
X173174252Y-117775688D01*
X173174250Y-117775686D01*
X173117895Y-117707017D01*
X173113364Y-117698539D01*
X173076014Y-117628664D01*
X173069156Y-117606055D01*
X173050225Y-117543652D01*
X173043700Y-117477397D01*
X173043701Y-116233082D01*
X173050226Y-116166827D01*
X173076014Y-116081819D01*
X173076015Y-116081815D01*
X173117894Y-116003466D01*
X173174253Y-115934792D01*
X173242927Y-115878433D01*
X173321276Y-115836554D01*
X173331245Y-115833530D01*
X173406288Y-115810765D01*
X173494700Y-115802058D01*
X173583113Y-115810765D01*
X173583113Y-115810765D01*
G37*
G36*
X172313113Y-115810765D02*
X172388156Y-115833530D01*
X172398125Y-115836554D01*
X172476474Y-115878433D01*
X172545148Y-115934792D01*
X172601507Y-116003466D01*
X172643386Y-116081815D01*
X172643387Y-116081819D01*
X172669175Y-116166827D01*
X172675700Y-116233082D01*
X172675700Y-117477398D01*
X172669175Y-117543653D01*
X172650244Y-117606057D01*
X172643386Y-117628665D01*
X172601507Y-117707014D01*
X172545150Y-117775686D01*
X172545146Y-117775690D01*
X172476477Y-117832045D01*
X172476473Y-117832047D01*
X172398124Y-117873926D01*
X172388155Y-117876950D01*
X172313112Y-117899715D01*
X172224700Y-117908422D01*
X172136287Y-117899715D01*
X172061244Y-117876950D01*
X172051275Y-117873926D01*
X171972926Y-117832047D01*
X171904252Y-117775688D01*
X171904250Y-117775686D01*
X171847895Y-117707017D01*
X171843364Y-117698539D01*
X171806014Y-117628664D01*
X171799156Y-117606055D01*
X171780225Y-117543652D01*
X171773700Y-117477397D01*
X171773701Y-116233082D01*
X171780226Y-116166827D01*
X171806014Y-116081819D01*
X171806015Y-116081815D01*
X171847894Y-116003466D01*
X171904253Y-115934792D01*
X171972927Y-115878433D01*
X172051276Y-115836554D01*
X172061245Y-115833530D01*
X172136288Y-115810765D01*
X172224700Y-115802058D01*
X172313113Y-115810765D01*
X172313113Y-115810765D01*
G37*
G36*
X171043113Y-115810765D02*
X171118156Y-115833530D01*
X171128125Y-115836554D01*
X171206474Y-115878433D01*
X171275148Y-115934792D01*
X171331507Y-116003466D01*
X171373386Y-116081815D01*
X171373387Y-116081819D01*
X171399175Y-116166827D01*
X171405700Y-116233082D01*
X171405700Y-117477398D01*
X171399175Y-117543653D01*
X171380244Y-117606057D01*
X171373386Y-117628665D01*
X171331507Y-117707014D01*
X171275150Y-117775686D01*
X171275146Y-117775690D01*
X171206477Y-117832045D01*
X171206473Y-117832047D01*
X171128124Y-117873926D01*
X171118155Y-117876950D01*
X171043112Y-117899715D01*
X170954700Y-117908422D01*
X170866287Y-117899715D01*
X170791244Y-117876950D01*
X170781275Y-117873926D01*
X170702926Y-117832047D01*
X170634252Y-117775688D01*
X170634250Y-117775686D01*
X170577895Y-117707017D01*
X170573364Y-117698539D01*
X170536014Y-117628664D01*
X170529156Y-117606055D01*
X170510225Y-117543652D01*
X170503700Y-117477397D01*
X170503701Y-116233082D01*
X170510226Y-116166827D01*
X170536014Y-116081819D01*
X170536015Y-116081815D01*
X170577894Y-116003466D01*
X170634253Y-115934792D01*
X170702927Y-115878433D01*
X170781276Y-115836554D01*
X170791245Y-115833530D01*
X170866288Y-115810765D01*
X170954700Y-115802058D01*
X171043113Y-115810765D01*
X171043113Y-115810765D01*
G37*
G36*
X162153113Y-115810765D02*
X162228156Y-115833530D01*
X162238125Y-115836554D01*
X162316474Y-115878433D01*
X162385148Y-115934792D01*
X162441507Y-116003466D01*
X162483386Y-116081815D01*
X162483387Y-116081819D01*
X162509175Y-116166827D01*
X162515700Y-116233082D01*
X162515700Y-117477398D01*
X162509175Y-117543653D01*
X162490244Y-117606057D01*
X162483386Y-117628665D01*
X162441507Y-117707014D01*
X162385150Y-117775686D01*
X162385146Y-117775690D01*
X162316477Y-117832045D01*
X162316473Y-117832047D01*
X162238124Y-117873926D01*
X162228155Y-117876950D01*
X162153112Y-117899715D01*
X162064700Y-117908422D01*
X161976287Y-117899715D01*
X161901244Y-117876950D01*
X161891275Y-117873926D01*
X161812926Y-117832047D01*
X161744252Y-117775688D01*
X161744250Y-117775686D01*
X161687895Y-117707017D01*
X161683364Y-117698539D01*
X161646014Y-117628664D01*
X161639156Y-117606055D01*
X161620225Y-117543652D01*
X161613700Y-117477397D01*
X161613701Y-116233082D01*
X161620226Y-116166827D01*
X161646014Y-116081819D01*
X161646015Y-116081815D01*
X161687894Y-116003466D01*
X161744253Y-115934792D01*
X161812927Y-115878433D01*
X161891276Y-115836554D01*
X161901245Y-115833530D01*
X161976288Y-115810765D01*
X162064700Y-115802058D01*
X162153113Y-115810765D01*
X162153113Y-115810765D01*
G37*
G36*
X159613113Y-115810765D02*
X159688156Y-115833530D01*
X159698125Y-115836554D01*
X159776474Y-115878433D01*
X159845148Y-115934792D01*
X159901507Y-116003466D01*
X159943386Y-116081815D01*
X159943387Y-116081819D01*
X159969175Y-116166827D01*
X159975700Y-116233082D01*
X159975700Y-117477398D01*
X159969175Y-117543653D01*
X159950244Y-117606057D01*
X159943386Y-117628665D01*
X159901507Y-117707014D01*
X159845150Y-117775686D01*
X159845146Y-117775690D01*
X159776477Y-117832045D01*
X159776473Y-117832047D01*
X159698124Y-117873926D01*
X159688155Y-117876950D01*
X159613112Y-117899715D01*
X159524700Y-117908422D01*
X159436287Y-117899715D01*
X159361244Y-117876950D01*
X159351275Y-117873926D01*
X159272926Y-117832047D01*
X159204252Y-117775688D01*
X159204250Y-117775686D01*
X159147895Y-117707017D01*
X159143364Y-117698539D01*
X159106014Y-117628664D01*
X159099156Y-117606055D01*
X159080225Y-117543652D01*
X159073700Y-117477397D01*
X159073701Y-116233082D01*
X159080226Y-116166827D01*
X159106014Y-116081819D01*
X159106015Y-116081815D01*
X159147894Y-116003466D01*
X159204253Y-115934792D01*
X159272927Y-115878433D01*
X159351276Y-115836554D01*
X159361245Y-115833530D01*
X159436288Y-115810765D01*
X159524700Y-115802058D01*
X159613113Y-115810765D01*
X159613113Y-115810765D01*
G37*
G36*
X177442380Y-117906240D02*
X174840380Y-117906240D01*
X174840380Y-115804240D01*
X177442380Y-115804240D01*
X177442380Y-117906240D01*
X177442380Y-117906240D01*
G37*
G36*
X177665740Y-114665520D02*
X176313740Y-114665520D01*
X176313740Y-113863520D01*
X177665740Y-113863520D01*
X177665740Y-114665520D01*
X177665740Y-114665520D01*
G37*
G36*
X169579860Y-113835000D02*
X168227860Y-113835000D01*
X168227860Y-112733000D01*
X169579860Y-112733000D01*
X169579860Y-113835000D01*
X169579860Y-113835000D01*
G37*
G36*
X172529860Y-113835000D02*
X171177860Y-113835000D01*
X171177860Y-112733000D01*
X172529860Y-112733000D01*
X172529860Y-113835000D01*
X172529860Y-113835000D01*
G37*
G36*
X175165740Y-113715520D02*
X173813740Y-113715520D01*
X173813740Y-112913520D01*
X175165740Y-112913520D01*
X175165740Y-113715520D01*
X175165740Y-113715520D01*
G37*
G36*
X139595085Y-111026249D02*
X139786354Y-111105475D01*
X139958496Y-111220497D01*
X140104883Y-111366884D01*
X140219905Y-111539026D01*
X140299131Y-111730295D01*
X140339520Y-111933344D01*
X140339520Y-112140376D01*
X140299131Y-112343425D01*
X140219905Y-112534694D01*
X140104883Y-112706836D01*
X139958496Y-112853223D01*
X139786354Y-112968245D01*
X139595085Y-113047471D01*
X139392036Y-113087860D01*
X139185004Y-113087860D01*
X138981955Y-113047471D01*
X138790686Y-112968245D01*
X138618544Y-112853223D01*
X138472157Y-112706836D01*
X138357135Y-112534694D01*
X138277909Y-112343425D01*
X138237520Y-112140376D01*
X138237520Y-111933344D01*
X138277909Y-111730295D01*
X138357135Y-111539026D01*
X138472157Y-111366884D01*
X138618544Y-111220497D01*
X138790686Y-111105475D01*
X138981955Y-111026249D01*
X139185004Y-110985860D01*
X139392036Y-110985860D01*
X139595085Y-111026249D01*
X139595085Y-111026249D01*
G37*
G36*
X134616443Y-109956481D02*
X134768349Y-109971442D01*
X134963259Y-110030567D01*
X135060715Y-110060130D01*
X135158990Y-110112660D01*
X135330158Y-110204151D01*
X135566329Y-110397971D01*
X135760149Y-110634142D01*
X135851640Y-110805310D01*
X135904170Y-110903585D01*
X135904170Y-110903586D01*
X135992858Y-111195951D01*
X136022804Y-111500000D01*
X135992858Y-111804049D01*
X135953637Y-111933344D01*
X135904170Y-112096415D01*
X135880673Y-112140374D01*
X135760149Y-112365858D01*
X135566329Y-112602029D01*
X135330158Y-112795849D01*
X135222815Y-112853225D01*
X135060715Y-112939870D01*
X134967178Y-112968244D01*
X134768349Y-113028558D01*
X134616443Y-113043519D01*
X134540491Y-113051000D01*
X132388109Y-113051000D01*
X132312157Y-113043519D01*
X132160251Y-113028558D01*
X131961422Y-112968244D01*
X131867885Y-112939870D01*
X131705785Y-112853225D01*
X131598442Y-112795849D01*
X131362271Y-112602029D01*
X131168451Y-112365858D01*
X131047927Y-112140374D01*
X131024430Y-112096415D01*
X130974963Y-111933344D01*
X130935742Y-111804049D01*
X130905796Y-111500000D01*
X130935742Y-111195951D01*
X131024430Y-110903586D01*
X131024430Y-110903585D01*
X131076960Y-110805310D01*
X131168451Y-110634142D01*
X131362271Y-110397971D01*
X131598442Y-110204151D01*
X131769610Y-110112660D01*
X131867885Y-110060130D01*
X131965341Y-110030567D01*
X132160251Y-109971442D01*
X132312157Y-109956481D01*
X132388109Y-109949000D01*
X134540491Y-109949000D01*
X134616443Y-109956481D01*
X134616443Y-109956481D01*
G37*
G36*
X177665740Y-112765520D02*
X176313740Y-112765520D01*
X176313740Y-111963520D01*
X177665740Y-111963520D01*
X177665740Y-112765520D01*
X177665740Y-112765520D01*
G37*
G36*
X177444780Y-111386600D02*
X176412780Y-111386600D01*
X176412780Y-110304600D01*
X177444780Y-110304600D01*
X177444780Y-111386600D01*
X177444780Y-111386600D01*
G37*
G36*
X175904780Y-111386600D02*
X174872780Y-111386600D01*
X174872780Y-110304600D01*
X175904780Y-110304600D01*
X175904780Y-111386600D01*
X175904780Y-111386600D01*
G37*
G36*
X171998740Y-110495180D02*
X170296740Y-110495180D01*
X170296740Y-108793180D01*
X171998740Y-108793180D01*
X171998740Y-110495180D01*
X171998740Y-110495180D01*
G37*
G36*
X177516280Y-109507000D02*
X176484280Y-109507000D01*
X176484280Y-108425000D01*
X177516280Y-108425000D01*
X177516280Y-109507000D01*
X177516280Y-109507000D01*
G37*
G36*
X175976280Y-109507000D02*
X174944280Y-109507000D01*
X174944280Y-108425000D01*
X175976280Y-108425000D01*
X175976280Y-109507000D01*
X175976280Y-109507000D01*
G37*
G36*
X171395968Y-106825883D02*
X171550840Y-106890033D01*
X171690221Y-106983165D01*
X171808755Y-107101699D01*
X171901887Y-107241080D01*
X171966037Y-107395952D01*
X171998740Y-107560364D01*
X171998740Y-107727996D01*
X171966037Y-107892408D01*
X171901887Y-108047280D01*
X171808755Y-108186661D01*
X171690221Y-108305195D01*
X171550840Y-108398327D01*
X171395968Y-108462477D01*
X171231556Y-108495180D01*
X171063924Y-108495180D01*
X170899512Y-108462477D01*
X170744640Y-108398327D01*
X170605259Y-108305195D01*
X170486725Y-108186661D01*
X170393593Y-108047280D01*
X170329443Y-107892408D01*
X170296740Y-107727996D01*
X170296740Y-107560364D01*
X170329443Y-107395952D01*
X170393593Y-107241080D01*
X170486725Y-107101699D01*
X170605259Y-106983165D01*
X170744640Y-106890033D01*
X170899512Y-106825883D01*
X171063924Y-106793180D01*
X171231556Y-106793180D01*
X171395968Y-106825883D01*
X171395968Y-106825883D01*
G37*
G36*
X139605085Y-105946249D02*
X139796354Y-106025475D01*
X139968496Y-106140497D01*
X140114883Y-106286884D01*
X140229905Y-106459026D01*
X140309131Y-106650295D01*
X140349520Y-106853344D01*
X140349520Y-107060376D01*
X140309131Y-107263425D01*
X140229905Y-107454694D01*
X140114883Y-107626836D01*
X139968496Y-107773223D01*
X139796354Y-107888245D01*
X139605085Y-107967471D01*
X139402036Y-108007860D01*
X139195004Y-108007860D01*
X138991955Y-107967471D01*
X138800686Y-107888245D01*
X138628544Y-107773223D01*
X138482157Y-107626836D01*
X138367135Y-107454694D01*
X138287909Y-107263425D01*
X138247520Y-107060376D01*
X138247520Y-106853344D01*
X138287909Y-106650295D01*
X138367135Y-106459026D01*
X138482157Y-106286884D01*
X138628544Y-106140497D01*
X138800686Y-106025475D01*
X138991955Y-105946249D01*
X139195004Y-105905860D01*
X139402036Y-105905860D01*
X139605085Y-105946249D01*
X139605085Y-105946249D01*
G37*
G36*
X132922528Y-100173102D02*
X133117438Y-100232227D01*
X133214894Y-100261790D01*
X133293520Y-100303817D01*
X133484337Y-100405811D01*
X133720509Y-100599631D01*
X133720510Y-100599633D01*
X133720512Y-100599634D01*
X133836801Y-100741334D01*
X133914329Y-100835802D01*
X133982656Y-100963633D01*
X134058350Y-101105245D01*
X134087913Y-101202701D01*
X134147038Y-101397611D01*
X134169480Y-101625470D01*
X134169480Y-105277850D01*
X134147038Y-105505709D01*
X134087913Y-105700619D01*
X134058350Y-105798075D01*
X134005820Y-105896350D01*
X133914329Y-106067518D01*
X133720509Y-106303689D01*
X133484338Y-106497509D01*
X133313170Y-106589000D01*
X133214895Y-106641530D01*
X133186000Y-106650295D01*
X132922529Y-106730218D01*
X132618480Y-106760164D01*
X132314432Y-106730218D01*
X132050961Y-106650295D01*
X132022066Y-106641530D01*
X131923791Y-106589000D01*
X131752623Y-106497509D01*
X131516452Y-106303689D01*
X131322632Y-106067518D01*
X131231141Y-105896350D01*
X131178611Y-105798075D01*
X131149048Y-105700619D01*
X131089923Y-105505709D01*
X131067481Y-105277850D01*
X131067480Y-101625471D01*
X131089922Y-101397612D01*
X131178610Y-101105247D01*
X131178610Y-101105246D01*
X131258876Y-100955081D01*
X131322631Y-100835803D01*
X131516451Y-100599631D01*
X131516453Y-100599630D01*
X131516454Y-100599628D01*
X131658154Y-100483339D01*
X131752622Y-100405811D01*
X131943439Y-100303817D01*
X132022065Y-100261790D01*
X132119521Y-100232227D01*
X132314431Y-100173102D01*
X132618480Y-100143156D01*
X132922528Y-100173102D01*
X132922528Y-100173102D01*
G37*
G36*
X172170043Y-103463959D02*
X172236227Y-103470477D01*
X172349453Y-103504824D01*
X172406067Y-103521997D01*
X172472446Y-103557478D01*
X172562591Y-103605662D01*
X172598329Y-103634992D01*
X172699786Y-103718254D01*
X172783048Y-103819711D01*
X172812378Y-103855449D01*
X172812379Y-103855451D01*
X172896043Y-104011973D01*
X172896043Y-104011974D01*
X172947563Y-104181813D01*
X172964959Y-104358440D01*
X172947563Y-104535067D01*
X172913216Y-104648293D01*
X172896043Y-104704907D01*
X172821948Y-104843527D01*
X172812378Y-104861431D01*
X172783048Y-104897169D01*
X172699786Y-104998626D01*
X172598329Y-105081888D01*
X172562591Y-105111218D01*
X172562589Y-105111219D01*
X172406067Y-105194883D01*
X172349453Y-105212056D01*
X172236227Y-105246403D01*
X172170042Y-105252922D01*
X172103860Y-105259440D01*
X172015340Y-105259440D01*
X171949158Y-105252922D01*
X171882973Y-105246403D01*
X171769747Y-105212056D01*
X171713133Y-105194883D01*
X171556611Y-105111219D01*
X171556609Y-105111218D01*
X171520871Y-105081888D01*
X171419414Y-104998626D01*
X171336152Y-104897169D01*
X171306822Y-104861431D01*
X171297252Y-104843527D01*
X171223157Y-104704907D01*
X171205984Y-104648293D01*
X171171637Y-104535067D01*
X171154241Y-104358440D01*
X171171637Y-104181813D01*
X171223157Y-104011974D01*
X171223157Y-104011973D01*
X171306821Y-103855451D01*
X171306822Y-103855449D01*
X171336152Y-103819711D01*
X171419414Y-103718254D01*
X171520871Y-103634992D01*
X171556609Y-103605662D01*
X171646754Y-103557478D01*
X171713133Y-103521997D01*
X171769747Y-103504824D01*
X171882973Y-103470477D01*
X171949157Y-103463959D01*
X172015340Y-103457440D01*
X172103860Y-103457440D01*
X172170043Y-103463959D01*
X172170043Y-103463959D01*
G37*
G36*
X178040600Y-105259440D02*
X176238600Y-105259440D01*
X176238600Y-103457440D01*
X178040600Y-103457440D01*
X178040600Y-105259440D01*
X178040600Y-105259440D01*
G37*
G36*
X174710043Y-103463959D02*
X174776227Y-103470477D01*
X174889453Y-103504824D01*
X174946067Y-103521997D01*
X175012446Y-103557478D01*
X175102591Y-103605662D01*
X175138329Y-103634992D01*
X175239786Y-103718254D01*
X175323048Y-103819711D01*
X175352378Y-103855449D01*
X175352379Y-103855451D01*
X175436043Y-104011973D01*
X175436043Y-104011974D01*
X175487563Y-104181813D01*
X175504959Y-104358440D01*
X175487563Y-104535067D01*
X175453216Y-104648293D01*
X175436043Y-104704907D01*
X175361948Y-104843527D01*
X175352378Y-104861431D01*
X175323048Y-104897169D01*
X175239786Y-104998626D01*
X175138329Y-105081888D01*
X175102591Y-105111218D01*
X175102589Y-105111219D01*
X174946067Y-105194883D01*
X174889453Y-105212056D01*
X174776227Y-105246403D01*
X174710042Y-105252922D01*
X174643860Y-105259440D01*
X174555340Y-105259440D01*
X174489158Y-105252922D01*
X174422973Y-105246403D01*
X174309747Y-105212056D01*
X174253133Y-105194883D01*
X174096611Y-105111219D01*
X174096609Y-105111218D01*
X174060871Y-105081888D01*
X173959414Y-104998626D01*
X173876152Y-104897169D01*
X173846822Y-104861431D01*
X173837252Y-104843527D01*
X173763157Y-104704907D01*
X173745984Y-104648293D01*
X173711637Y-104535067D01*
X173694241Y-104358440D01*
X173711637Y-104181813D01*
X173763157Y-104011974D01*
X173763157Y-104011973D01*
X173846821Y-103855451D01*
X173846822Y-103855449D01*
X173876152Y-103819711D01*
X173959414Y-103718254D01*
X174060871Y-103634992D01*
X174096609Y-103605662D01*
X174186754Y-103557478D01*
X174253133Y-103521997D01*
X174309747Y-103504824D01*
X174422973Y-103470477D01*
X174489157Y-103463959D01*
X174555340Y-103457440D01*
X174643860Y-103457440D01*
X174710043Y-103463959D01*
X174710043Y-103463959D01*
G37*
G36*
X140705764Y-102234684D02*
X140792819Y-102252000D01*
X140929492Y-102308612D01*
X140929493Y-102308613D01*
X141052498Y-102390802D01*
X141157098Y-102495402D01*
X141157100Y-102495405D01*
X141239288Y-102618408D01*
X141295900Y-102755081D01*
X141324760Y-102900173D01*
X141324760Y-103048107D01*
X141295900Y-103193199D01*
X141239288Y-103329872D01*
X141239287Y-103329873D01*
X141157098Y-103452878D01*
X141052498Y-103557478D01*
X141052495Y-103557480D01*
X140929492Y-103639668D01*
X140792819Y-103696280D01*
X140705764Y-103713596D01*
X140647729Y-103725140D01*
X140499791Y-103725140D01*
X140441756Y-103713596D01*
X140354701Y-103696280D01*
X140218028Y-103639668D01*
X140095025Y-103557480D01*
X140095022Y-103557478D01*
X139990422Y-103452878D01*
X139908233Y-103329873D01*
X139908232Y-103329872D01*
X139851620Y-103193199D01*
X139822760Y-103048107D01*
X139822760Y-102900173D01*
X139851620Y-102755081D01*
X139908232Y-102618408D01*
X139990420Y-102495405D01*
X139990422Y-102495402D01*
X140095022Y-102390802D01*
X140218027Y-102308613D01*
X140218028Y-102308612D01*
X140354701Y-102252000D01*
X140441756Y-102234684D01*
X140499791Y-102223140D01*
X140647729Y-102223140D01*
X140705764Y-102234684D01*
X140705764Y-102234684D01*
G37*
G36*
X178213320Y-102041260D02*
X176411320Y-102041260D01*
X176411320Y-100239260D01*
X178213320Y-100239260D01*
X178213320Y-102041260D01*
X178213320Y-102041260D01*
G37*
G36*
X174882762Y-100245778D02*
X174948947Y-100252297D01*
X175062173Y-100286644D01*
X175118787Y-100303817D01*
X175257407Y-100377912D01*
X175275311Y-100387482D01*
X175297645Y-100405811D01*
X175412506Y-100500074D01*
X175486962Y-100590800D01*
X175525098Y-100637269D01*
X175525099Y-100637271D01*
X175608763Y-100793793D01*
X175608763Y-100793794D01*
X175660283Y-100963633D01*
X175677679Y-101140260D01*
X175660283Y-101316887D01*
X175637135Y-101393196D01*
X175608763Y-101486727D01*
X175534668Y-101625347D01*
X175525098Y-101643251D01*
X175517197Y-101652878D01*
X175412506Y-101780446D01*
X175311049Y-101863708D01*
X175275311Y-101893038D01*
X175275309Y-101893039D01*
X175118787Y-101976703D01*
X175062173Y-101993876D01*
X174948947Y-102028223D01*
X174882762Y-102034742D01*
X174816580Y-102041260D01*
X174728060Y-102041260D01*
X174661878Y-102034742D01*
X174595693Y-102028223D01*
X174482467Y-101993876D01*
X174425853Y-101976703D01*
X174269331Y-101893039D01*
X174269329Y-101893038D01*
X174233591Y-101863708D01*
X174132134Y-101780446D01*
X174027443Y-101652878D01*
X174019542Y-101643251D01*
X174009972Y-101625347D01*
X173935877Y-101486727D01*
X173907505Y-101393196D01*
X173884357Y-101316887D01*
X173866961Y-101140260D01*
X173884357Y-100963633D01*
X173935877Y-100793794D01*
X173935877Y-100793793D01*
X174019541Y-100637271D01*
X174019542Y-100637269D01*
X174057678Y-100590800D01*
X174132134Y-100500074D01*
X174246995Y-100405811D01*
X174269329Y-100387482D01*
X174287233Y-100377912D01*
X174425853Y-100303817D01*
X174482467Y-100286644D01*
X174595693Y-100252297D01*
X174661877Y-100245779D01*
X174728060Y-100239260D01*
X174816580Y-100239260D01*
X174882762Y-100245778D01*
X174882762Y-100245778D01*
G37*
G36*
X172342762Y-100245778D02*
X172408947Y-100252297D01*
X172522173Y-100286644D01*
X172578787Y-100303817D01*
X172717407Y-100377912D01*
X172735311Y-100387482D01*
X172757645Y-100405811D01*
X172872506Y-100500074D01*
X172946962Y-100590800D01*
X172985098Y-100637269D01*
X172985099Y-100637271D01*
X173068763Y-100793793D01*
X173068763Y-100793794D01*
X173120283Y-100963633D01*
X173137679Y-101140260D01*
X173120283Y-101316887D01*
X173097135Y-101393196D01*
X173068763Y-101486727D01*
X172994668Y-101625347D01*
X172985098Y-101643251D01*
X172977197Y-101652878D01*
X172872506Y-101780446D01*
X172771049Y-101863708D01*
X172735311Y-101893038D01*
X172735309Y-101893039D01*
X172578787Y-101976703D01*
X172522173Y-101993876D01*
X172408947Y-102028223D01*
X172342762Y-102034742D01*
X172276580Y-102041260D01*
X172188060Y-102041260D01*
X172121878Y-102034742D01*
X172055693Y-102028223D01*
X171942467Y-101993876D01*
X171885853Y-101976703D01*
X171729331Y-101893039D01*
X171729329Y-101893038D01*
X171693591Y-101863708D01*
X171592134Y-101780446D01*
X171487443Y-101652878D01*
X171479542Y-101643251D01*
X171469972Y-101625347D01*
X171395877Y-101486727D01*
X171367505Y-101393196D01*
X171344357Y-101316887D01*
X171326961Y-101140260D01*
X171344357Y-100963633D01*
X171395877Y-100793794D01*
X171395877Y-100793793D01*
X171479541Y-100637271D01*
X171479542Y-100637269D01*
X171517678Y-100590800D01*
X171592134Y-100500074D01*
X171706995Y-100405811D01*
X171729329Y-100387482D01*
X171747233Y-100377912D01*
X171885853Y-100303817D01*
X171942467Y-100286644D01*
X172055693Y-100252297D01*
X172121877Y-100245779D01*
X172188060Y-100239260D01*
X172276580Y-100239260D01*
X172342762Y-100245778D01*
X172342762Y-100245778D01*
G37*
G36*
X169802762Y-100245778D02*
X169868947Y-100252297D01*
X169982173Y-100286644D01*
X170038787Y-100303817D01*
X170177407Y-100377912D01*
X170195311Y-100387482D01*
X170217645Y-100405811D01*
X170332506Y-100500074D01*
X170406962Y-100590800D01*
X170445098Y-100637269D01*
X170445099Y-100637271D01*
X170528763Y-100793793D01*
X170528763Y-100793794D01*
X170580283Y-100963633D01*
X170597679Y-101140260D01*
X170580283Y-101316887D01*
X170557135Y-101393196D01*
X170528763Y-101486727D01*
X170454668Y-101625347D01*
X170445098Y-101643251D01*
X170437197Y-101652878D01*
X170332506Y-101780446D01*
X170231049Y-101863708D01*
X170195311Y-101893038D01*
X170195309Y-101893039D01*
X170038787Y-101976703D01*
X169982173Y-101993876D01*
X169868947Y-102028223D01*
X169802762Y-102034742D01*
X169736580Y-102041260D01*
X169648060Y-102041260D01*
X169581878Y-102034742D01*
X169515693Y-102028223D01*
X169402467Y-101993876D01*
X169345853Y-101976703D01*
X169189331Y-101893039D01*
X169189329Y-101893038D01*
X169153591Y-101863708D01*
X169052134Y-101780446D01*
X168947443Y-101652878D01*
X168939542Y-101643251D01*
X168929972Y-101625347D01*
X168855877Y-101486727D01*
X168827505Y-101393196D01*
X168804357Y-101316887D01*
X168786961Y-101140260D01*
X168804357Y-100963633D01*
X168855877Y-100793794D01*
X168855877Y-100793793D01*
X168939541Y-100637271D01*
X168939542Y-100637269D01*
X168977678Y-100590800D01*
X169052134Y-100500074D01*
X169166995Y-100405811D01*
X169189329Y-100387482D01*
X169207233Y-100377912D01*
X169345853Y-100303817D01*
X169402467Y-100286644D01*
X169515693Y-100252297D01*
X169581877Y-100245779D01*
X169648060Y-100239260D01*
X169736580Y-100239260D01*
X169802762Y-100245778D01*
X169802762Y-100245778D01*
G37*
G36*
X135705764Y-100434684D02*
X135792819Y-100452000D01*
X135929492Y-100508612D01*
X135929493Y-100508613D01*
X136052498Y-100590802D01*
X136157098Y-100695402D01*
X136157100Y-100695405D01*
X136239288Y-100818408D01*
X136295900Y-100955081D01*
X136324760Y-101100173D01*
X136324760Y-101248107D01*
X136295900Y-101393199D01*
X136239288Y-101529872D01*
X136239287Y-101529873D01*
X136157098Y-101652878D01*
X136052498Y-101757478D01*
X136052495Y-101757480D01*
X135929492Y-101839668D01*
X135792819Y-101896280D01*
X135705764Y-101913596D01*
X135647729Y-101925140D01*
X135499791Y-101925140D01*
X135441756Y-101913596D01*
X135354701Y-101896280D01*
X135218028Y-101839668D01*
X135095025Y-101757480D01*
X135095022Y-101757478D01*
X134990422Y-101652878D01*
X134908233Y-101529873D01*
X134908232Y-101529872D01*
X134851620Y-101393199D01*
X134822760Y-101248107D01*
X134822760Y-101100173D01*
X134851620Y-100955081D01*
X134908232Y-100818408D01*
X134990420Y-100695405D01*
X134990422Y-100695402D01*
X135095022Y-100590802D01*
X135218027Y-100508613D01*
X135218028Y-100508612D01*
X135354701Y-100452000D01*
X135441756Y-100434684D01*
X135499791Y-100423140D01*
X135647729Y-100423140D01*
X135705764Y-100434684D01*
X135705764Y-100434684D01*
G37*
M02*
