G04 #@! TF.GenerationSoftware,KiCad,Pcbnew,(5.0.2)-1*
G04 #@! TF.CreationDate,2019-05-25T20:07:42+08:00*
G04 #@! TF.ProjectId,1RELAY,3152454c-4159-42e6-9b69-6361645f7063,rev?*
G04 #@! TF.SameCoordinates,Original*
G04 #@! TF.FileFunction,Legend,Top*
G04 #@! TF.FilePolarity,Positive*
%FSLAX46Y46*%
G04 Gerber Fmt 4.6, Leading zero omitted, Abs format (unit mm)*
G04 Created by KiCad (PCBNEW (5.0.2)-1) date 2019-05-25 20:07:42*
%MOMM*%
%LPD*%
G01*
G04 APERTURE LIST*
%ADD10C,0.120000*%
%ADD11C,0.200000*%
%ADD12C,0.150000*%
%ADD13C,0.254000*%
G04 APERTURE END LIST*
D10*
G04 #@! TO.C,C1*
X173767740Y-108644180D02*
G75*
G03X173767740Y-108644180I-2620000J0D01*
G01*
X170107740Y-108644180D02*
X168567740Y-108644180D01*
X173727740Y-108644180D02*
X172187740Y-108644180D01*
X170107740Y-108684180D02*
X168567740Y-108684180D01*
X173727740Y-108684180D02*
X172187740Y-108684180D01*
X173726740Y-108724180D02*
X172187740Y-108724180D01*
X170107740Y-108724180D02*
X168568740Y-108724180D01*
X173725740Y-108764180D02*
X172187740Y-108764180D01*
X170107740Y-108764180D02*
X168569740Y-108764180D01*
X173723740Y-108804180D02*
X172187740Y-108804180D01*
X170107740Y-108804180D02*
X168571740Y-108804180D01*
X173720740Y-108844180D02*
X172187740Y-108844180D01*
X170107740Y-108844180D02*
X168574740Y-108844180D01*
X173716740Y-108884180D02*
X172187740Y-108884180D01*
X170107740Y-108884180D02*
X168578740Y-108884180D01*
X173712740Y-108924180D02*
X172187740Y-108924180D01*
X170107740Y-108924180D02*
X168582740Y-108924180D01*
X173708740Y-108964180D02*
X172187740Y-108964180D01*
X170107740Y-108964180D02*
X168586740Y-108964180D01*
X173703740Y-109004180D02*
X172187740Y-109004180D01*
X170107740Y-109004180D02*
X168591740Y-109004180D01*
X173697740Y-109044180D02*
X172187740Y-109044180D01*
X170107740Y-109044180D02*
X168597740Y-109044180D01*
X173690740Y-109084180D02*
X172187740Y-109084180D01*
X170107740Y-109084180D02*
X168604740Y-109084180D01*
X173683740Y-109124180D02*
X172187740Y-109124180D01*
X170107740Y-109124180D02*
X168611740Y-109124180D01*
X173675740Y-109164180D02*
X172187740Y-109164180D01*
X170107740Y-109164180D02*
X168619740Y-109164180D01*
X173667740Y-109204180D02*
X172187740Y-109204180D01*
X170107740Y-109204180D02*
X168627740Y-109204180D01*
X173658740Y-109244180D02*
X172187740Y-109244180D01*
X170107740Y-109244180D02*
X168636740Y-109244180D01*
X173648740Y-109284180D02*
X172187740Y-109284180D01*
X170107740Y-109284180D02*
X168646740Y-109284180D01*
X173638740Y-109324180D02*
X172187740Y-109324180D01*
X170107740Y-109324180D02*
X168656740Y-109324180D01*
X173627740Y-109365180D02*
X172187740Y-109365180D01*
X170107740Y-109365180D02*
X168667740Y-109365180D01*
X173615740Y-109405180D02*
X172187740Y-109405180D01*
X170107740Y-109405180D02*
X168679740Y-109405180D01*
X173602740Y-109445180D02*
X172187740Y-109445180D01*
X170107740Y-109445180D02*
X168692740Y-109445180D01*
X173589740Y-109485180D02*
X172187740Y-109485180D01*
X170107740Y-109485180D02*
X168705740Y-109485180D01*
X173575740Y-109525180D02*
X172187740Y-109525180D01*
X170107740Y-109525180D02*
X168719740Y-109525180D01*
X173561740Y-109565180D02*
X172187740Y-109565180D01*
X170107740Y-109565180D02*
X168733740Y-109565180D01*
X173545740Y-109605180D02*
X172187740Y-109605180D01*
X170107740Y-109605180D02*
X168749740Y-109605180D01*
X173529740Y-109645180D02*
X172187740Y-109645180D01*
X170107740Y-109645180D02*
X168765740Y-109645180D01*
X173512740Y-109685180D02*
X172187740Y-109685180D01*
X170107740Y-109685180D02*
X168782740Y-109685180D01*
X173495740Y-109725180D02*
X172187740Y-109725180D01*
X170107740Y-109725180D02*
X168799740Y-109725180D01*
X173476740Y-109765180D02*
X172187740Y-109765180D01*
X170107740Y-109765180D02*
X168818740Y-109765180D01*
X173457740Y-109805180D02*
X172187740Y-109805180D01*
X170107740Y-109805180D02*
X168837740Y-109805180D01*
X173437740Y-109845180D02*
X172187740Y-109845180D01*
X170107740Y-109845180D02*
X168857740Y-109845180D01*
X173415740Y-109885180D02*
X172187740Y-109885180D01*
X170107740Y-109885180D02*
X168879740Y-109885180D01*
X173394740Y-109925180D02*
X172187740Y-109925180D01*
X170107740Y-109925180D02*
X168900740Y-109925180D01*
X173371740Y-109965180D02*
X172187740Y-109965180D01*
X170107740Y-109965180D02*
X168923740Y-109965180D01*
X173347740Y-110005180D02*
X172187740Y-110005180D01*
X170107740Y-110005180D02*
X168947740Y-110005180D01*
X173322740Y-110045180D02*
X172187740Y-110045180D01*
X170107740Y-110045180D02*
X168972740Y-110045180D01*
X173296740Y-110085180D02*
X172187740Y-110085180D01*
X170107740Y-110085180D02*
X168998740Y-110085180D01*
X173269740Y-110125180D02*
X172187740Y-110125180D01*
X170107740Y-110125180D02*
X169025740Y-110125180D01*
X173242740Y-110165180D02*
X172187740Y-110165180D01*
X170107740Y-110165180D02*
X169052740Y-110165180D01*
X173212740Y-110205180D02*
X172187740Y-110205180D01*
X170107740Y-110205180D02*
X169082740Y-110205180D01*
X173182740Y-110245180D02*
X172187740Y-110245180D01*
X170107740Y-110245180D02*
X169112740Y-110245180D01*
X173151740Y-110285180D02*
X172187740Y-110285180D01*
X170107740Y-110285180D02*
X169143740Y-110285180D01*
X173118740Y-110325180D02*
X172187740Y-110325180D01*
X170107740Y-110325180D02*
X169176740Y-110325180D01*
X173084740Y-110365180D02*
X172187740Y-110365180D01*
X170107740Y-110365180D02*
X169210740Y-110365180D01*
X173048740Y-110405180D02*
X172187740Y-110405180D01*
X170107740Y-110405180D02*
X169246740Y-110405180D01*
X173011740Y-110445180D02*
X172187740Y-110445180D01*
X170107740Y-110445180D02*
X169283740Y-110445180D01*
X172973740Y-110485180D02*
X172187740Y-110485180D01*
X170107740Y-110485180D02*
X169321740Y-110485180D01*
X172932740Y-110525180D02*
X172187740Y-110525180D01*
X170107740Y-110525180D02*
X169362740Y-110525180D01*
X172890740Y-110565180D02*
X172187740Y-110565180D01*
X170107740Y-110565180D02*
X169404740Y-110565180D01*
X172846740Y-110605180D02*
X172187740Y-110605180D01*
X170107740Y-110605180D02*
X169448740Y-110605180D01*
X172800740Y-110645180D02*
X172187740Y-110645180D01*
X170107740Y-110645180D02*
X169494740Y-110645180D01*
X172752740Y-110685180D02*
X169542740Y-110685180D01*
X172701740Y-110725180D02*
X169593740Y-110725180D01*
X172647740Y-110765180D02*
X169647740Y-110765180D01*
X172590740Y-110805180D02*
X169704740Y-110805180D01*
X172530740Y-110845180D02*
X169764740Y-110845180D01*
X172466740Y-110885180D02*
X169828740Y-110885180D01*
X172398740Y-110925180D02*
X169896740Y-110925180D01*
X172325740Y-110965180D02*
X169969740Y-110965180D01*
X172245740Y-111005180D02*
X170049740Y-111005180D01*
X172158740Y-111045180D02*
X170136740Y-111045180D01*
X172062740Y-111085180D02*
X170232740Y-111085180D01*
X171952740Y-111125180D02*
X170342740Y-111125180D01*
X171824740Y-111165180D02*
X170470740Y-111165180D01*
X171665740Y-111205180D02*
X170629740Y-111205180D01*
X171431740Y-111245180D02*
X170863740Y-111245180D01*
X172622740Y-105839405D02*
X172622740Y-106339405D01*
X172872740Y-106089405D02*
X172372740Y-106089405D01*
D11*
G04 #@! TO.C,R2*
X174623780Y-110055600D02*
X175758780Y-110055600D01*
X177693780Y-111635600D02*
X177693780Y-110055600D01*
X174623780Y-111635600D02*
X174623780Y-110055600D01*
X176558780Y-110055600D02*
X177693780Y-110055600D01*
X174623780Y-111635600D02*
X175758780Y-111635600D01*
X176558780Y-111635600D02*
X177693780Y-111635600D01*
G04 #@! TO.C,R1*
X176630280Y-109756000D02*
X177765280Y-109756000D01*
X174695280Y-109756000D02*
X175830280Y-109756000D01*
X176630280Y-108176000D02*
X177765280Y-108176000D01*
X174695280Y-109756000D02*
X174695280Y-108176000D01*
X177765280Y-109756000D02*
X177765280Y-108176000D01*
X174695280Y-108176000D02*
X175830280Y-108176000D01*
D10*
G04 #@! TO.C,J4*
X170729600Y-103028440D02*
X170729600Y-105688440D01*
G04 #@! TO.C,F1*
X141418520Y-105126860D02*
X141418520Y-113866860D01*
X141418520Y-105126860D02*
X137178520Y-105126860D01*
X137178520Y-113866860D02*
X141418520Y-113866860D01*
X137178520Y-113866860D02*
X137178520Y-105126860D01*
D12*
G04 #@! TO.C,TH1*
X141573760Y-99974140D02*
X134573760Y-99974140D01*
X141573760Y-104174140D02*
X134573760Y-104174140D01*
X134573760Y-104174140D02*
X134573760Y-99974140D01*
X141573760Y-104174140D02*
X141573760Y-99974140D01*
D11*
G04 #@! TO.C,D1*
X170178860Y-113984000D02*
X170178860Y-112584000D01*
X169878860Y-113984000D02*
X169878860Y-112584000D01*
X170878860Y-113984000D02*
X170878860Y-112584000D01*
X169878860Y-113984000D02*
X170878860Y-113984000D01*
X169878860Y-112584000D02*
X170878860Y-112584000D01*
G04 #@! TO.C,Q1*
X176639740Y-113614520D02*
X176639740Y-113014520D01*
D13*
X175089740Y-114774520D02*
X175089740Y-114114520D01*
X175089740Y-114774520D02*
X175904740Y-114774520D01*
X175089740Y-111854520D02*
X175904740Y-111854520D01*
X175089740Y-112514520D02*
X175089740Y-111854520D01*
X175089740Y-112514520D02*
X175089740Y-111854520D01*
X175089740Y-112514520D02*
X175089740Y-111854520D01*
G04 #@! TO.C,C1*
D12*
X174402453Y-107016822D02*
X174354834Y-107064441D01*
X174211977Y-107112060D01*
X174116739Y-107112060D01*
X173973881Y-107064441D01*
X173878643Y-106969203D01*
X173831024Y-106873965D01*
X173783405Y-106683489D01*
X173783405Y-106540632D01*
X173831024Y-106350156D01*
X173878643Y-106254918D01*
X173973881Y-106159680D01*
X174116739Y-106112060D01*
X174211977Y-106112060D01*
X174354834Y-106159680D01*
X174402453Y-106207299D01*
X175354834Y-107112060D02*
X174783405Y-107112060D01*
X175069120Y-107112060D02*
X175069120Y-106112060D01*
X174973881Y-106254918D01*
X174878643Y-106350156D01*
X174783405Y-106397775D01*
G04 #@! TO.C,R2*
X176820533Y-107968040D02*
X176487200Y-107491850D01*
X176249104Y-107968040D02*
X176249104Y-106968040D01*
X176630057Y-106968040D01*
X176725295Y-107015660D01*
X176772914Y-107063279D01*
X176820533Y-107158517D01*
X176820533Y-107301374D01*
X176772914Y-107396612D01*
X176725295Y-107444231D01*
X176630057Y-107491850D01*
X176249104Y-107491850D01*
X177201485Y-107063279D02*
X177249104Y-107015660D01*
X177344342Y-106968040D01*
X177582438Y-106968040D01*
X177677676Y-107015660D01*
X177725295Y-107063279D01*
X177772914Y-107158517D01*
X177772914Y-107253755D01*
X177725295Y-107396612D01*
X177153866Y-107968040D01*
X177772914Y-107968040D01*
G04 #@! TO.C,R1*
X176843393Y-106649780D02*
X176510060Y-106173590D01*
X176271964Y-106649780D02*
X176271964Y-105649780D01*
X176652917Y-105649780D01*
X176748155Y-105697400D01*
X176795774Y-105745019D01*
X176843393Y-105840257D01*
X176843393Y-105983114D01*
X176795774Y-106078352D01*
X176748155Y-106125971D01*
X176652917Y-106173590D01*
X176271964Y-106173590D01*
X177795774Y-106649780D02*
X177224345Y-106649780D01*
X177510060Y-106649780D02*
X177510060Y-105649780D01*
X177414821Y-105792638D01*
X177319583Y-105887876D01*
X177224345Y-105935495D01*
G04 #@! TO.C,F1*
X139514271Y-109987673D02*
X139514271Y-110321006D01*
X140038080Y-110321006D02*
X139038080Y-110321006D01*
X139038080Y-109844816D01*
X140038080Y-108940054D02*
X140038080Y-109511482D01*
X140038080Y-109225768D02*
X139038080Y-109225768D01*
X139180938Y-109321006D01*
X139276176Y-109416244D01*
X139323795Y-109511482D01*
G04 #@! TO.C,TH1*
X136793765Y-101527360D02*
X137365194Y-101527360D01*
X137079480Y-102527360D02*
X137079480Y-101527360D01*
X137698527Y-102527360D02*
X137698527Y-101527360D01*
X137698527Y-102003551D02*
X138269956Y-102003551D01*
X138269956Y-102527360D02*
X138269956Y-101527360D01*
X139269956Y-102527360D02*
X138698527Y-102527360D01*
X138984241Y-102527360D02*
X138984241Y-101527360D01*
X138889003Y-101670218D01*
X138793765Y-101765456D01*
X138698527Y-101813075D01*
G04 #@! TO.C,D1*
X169723844Y-115328960D02*
X169723844Y-114328960D01*
X169961940Y-114328960D01*
X170104797Y-114376580D01*
X170200035Y-114471818D01*
X170247654Y-114567056D01*
X170295273Y-114757532D01*
X170295273Y-114900389D01*
X170247654Y-115090865D01*
X170200035Y-115186103D01*
X170104797Y-115281341D01*
X169961940Y-115328960D01*
X169723844Y-115328960D01*
X171247654Y-115328960D02*
X170676225Y-115328960D01*
X170961940Y-115328960D02*
X170961940Y-114328960D01*
X170866701Y-114471818D01*
X170771463Y-114567056D01*
X170676225Y-114614675D01*
G04 #@! TO.C,Q1*
X173262301Y-112579439D02*
X173167063Y-112531820D01*
X173071825Y-112436581D01*
X172928968Y-112293724D01*
X172833730Y-112246105D01*
X172738492Y-112246105D01*
X172786111Y-112484200D02*
X172690873Y-112436581D01*
X172595635Y-112341343D01*
X172548016Y-112150867D01*
X172548016Y-111817534D01*
X172595635Y-111627058D01*
X172690873Y-111531820D01*
X172786111Y-111484200D01*
X172976587Y-111484200D01*
X173071825Y-111531820D01*
X173167063Y-111627058D01*
X173214682Y-111817534D01*
X173214682Y-112150867D01*
X173167063Y-112341343D01*
X173071825Y-112436581D01*
X172976587Y-112484200D01*
X172786111Y-112484200D01*
X174167063Y-112484200D02*
X173595635Y-112484200D01*
X173881349Y-112484200D02*
X173881349Y-111484200D01*
X173786111Y-111627058D01*
X173690873Y-111722296D01*
X173595635Y-111769915D01*
G04 #@! TD*
M02*
