G04 #@! TF.GenerationSoftware,KiCad,Pcbnew,(5.0.2)-1*
G04 #@! TF.CreationDate,2019-05-25T20:10:37+08:00*
G04 #@! TF.ProjectId,3RELAY,3352454c-4159-42e6-9b69-6361645f7063,rev?*
G04 #@! TF.SameCoordinates,Original*
G04 #@! TF.FileFunction,Legend,Bot*
G04 #@! TF.FilePolarity,Positive*
%FSLAX46Y46*%
G04 Gerber Fmt 4.6, Leading zero omitted, Abs format (unit mm)*
G04 Created by KiCad (PCBNEW (5.0.2)-1) date 2019-05-25 20:10:37*
%MOMM*%
%LPD*%
G01*
G04 APERTURE LIST*
%ADD10C,0.300000*%
%ADD11C,0.200000*%
%ADD12C,0.010000*%
G04 APERTURE END LIST*
D10*
X132450448Y-126460060D02*
X132450448Y-127174345D01*
X133950448Y-127174345D01*
X133950448Y-126102917D02*
X133950448Y-125174345D01*
X133379020Y-125674345D01*
X133379020Y-125460060D01*
X133307591Y-125317202D01*
X133236162Y-125245774D01*
X133093305Y-125174345D01*
X132736162Y-125174345D01*
X132593305Y-125245774D01*
X132521877Y-125317202D01*
X132450448Y-125460060D01*
X132450448Y-125888631D01*
X132521877Y-126031488D01*
X132593305Y-126102917D01*
D11*
X162240220Y-115898255D02*
X161240220Y-115898255D01*
X161954506Y-116231588D01*
X161240220Y-116564921D01*
X162240220Y-116564921D01*
X161573554Y-116945874D02*
X162240220Y-117183969D01*
X161573554Y-117422064D02*
X162240220Y-117183969D01*
X162478316Y-117088731D01*
X162525935Y-117041112D01*
X162573554Y-116945874D01*
X162192601Y-117755398D02*
X162240220Y-117850636D01*
X162240220Y-118041112D01*
X162192601Y-118136350D01*
X162097363Y-118183969D01*
X162049744Y-118183969D01*
X161954506Y-118136350D01*
X161906887Y-118041112D01*
X161906887Y-117898255D01*
X161859268Y-117803017D01*
X161764030Y-117755398D01*
X161716411Y-117755398D01*
X161621173Y-117803017D01*
X161573554Y-117898255D01*
X161573554Y-118041112D01*
X161621173Y-118136350D01*
X162192601Y-118993493D02*
X162240220Y-118898255D01*
X162240220Y-118707779D01*
X162192601Y-118612540D01*
X162097363Y-118564921D01*
X161716411Y-118564921D01*
X161621173Y-118612540D01*
X161573554Y-118707779D01*
X161573554Y-118898255D01*
X161621173Y-118993493D01*
X161716411Y-119041112D01*
X161811649Y-119041112D01*
X161906887Y-118564921D01*
X161573554Y-119469683D02*
X162240220Y-119469683D01*
X161668792Y-119469683D02*
X161621173Y-119517302D01*
X161573554Y-119612540D01*
X161573554Y-119755398D01*
X161621173Y-119850636D01*
X161716411Y-119898255D01*
X162240220Y-119898255D01*
X162192601Y-120326826D02*
X162240220Y-120422064D01*
X162240220Y-120612540D01*
X162192601Y-120707779D01*
X162097363Y-120755398D01*
X162049744Y-120755398D01*
X161954506Y-120707779D01*
X161906887Y-120612540D01*
X161906887Y-120469683D01*
X161859268Y-120374445D01*
X161764030Y-120326826D01*
X161716411Y-120326826D01*
X161621173Y-120374445D01*
X161573554Y-120469683D01*
X161573554Y-120612540D01*
X161621173Y-120707779D01*
X162240220Y-121326826D02*
X162192601Y-121231588D01*
X162144982Y-121183969D01*
X162049744Y-121136350D01*
X161764030Y-121136350D01*
X161668792Y-121183969D01*
X161621173Y-121231588D01*
X161573554Y-121326826D01*
X161573554Y-121469683D01*
X161621173Y-121564921D01*
X161668792Y-121612540D01*
X161764030Y-121660160D01*
X162049744Y-121660160D01*
X162144982Y-121612540D01*
X162192601Y-121564921D01*
X162240220Y-121469683D01*
X162240220Y-121326826D01*
X162240220Y-122088731D02*
X161573554Y-122088731D01*
X161764030Y-122088731D02*
X161668792Y-122136350D01*
X161621173Y-122183969D01*
X161573554Y-122279207D01*
X161573554Y-122374445D01*
X162144982Y-122707779D02*
X162192601Y-122755398D01*
X162240220Y-122707779D01*
X162192601Y-122660160D01*
X162144982Y-122707779D01*
X162240220Y-122707779D01*
X161573554Y-123183969D02*
X162573554Y-123183969D01*
X161621173Y-123183969D02*
X161573554Y-123279207D01*
X161573554Y-123469683D01*
X161621173Y-123564921D01*
X161668792Y-123612540D01*
X161764030Y-123660160D01*
X162049744Y-123660160D01*
X162144982Y-123612540D01*
X162192601Y-123564921D01*
X162240220Y-123469683D01*
X162240220Y-123279207D01*
X162192601Y-123183969D01*
X161573554Y-124517302D02*
X162240220Y-124517302D01*
X161573554Y-124088731D02*
X162097363Y-124088731D01*
X162192601Y-124136350D01*
X162240220Y-124231588D01*
X162240220Y-124374445D01*
X162192601Y-124469683D01*
X162144982Y-124517302D01*
X162240220Y-124993493D02*
X161240220Y-124993493D01*
X161621173Y-124993493D02*
X161573554Y-125088731D01*
X161573554Y-125279207D01*
X161621173Y-125374445D01*
X161668792Y-125422064D01*
X161764030Y-125469683D01*
X162049744Y-125469683D01*
X162144982Y-125422064D01*
X162192601Y-125374445D01*
X162240220Y-125279207D01*
X162240220Y-125088731D01*
X162192601Y-124993493D01*
D10*
X132549508Y-120618060D02*
X132549508Y-121332345D01*
X134049508Y-121332345D01*
X133906651Y-120189488D02*
X133978080Y-120118060D01*
X134049508Y-119975202D01*
X134049508Y-119618060D01*
X133978080Y-119475202D01*
X133906651Y-119403774D01*
X133763794Y-119332345D01*
X133620937Y-119332345D01*
X133406651Y-119403774D01*
X132549508Y-120260917D01*
X132549508Y-119332345D01*
D11*
X164627820Y-117746140D02*
X163627820Y-117746140D01*
X164627820Y-118317569D01*
X163627820Y-118317569D01*
X164627820Y-119365188D02*
X164151630Y-119031855D01*
X164627820Y-118793760D02*
X163627820Y-118793760D01*
X163627820Y-119174712D01*
X163675440Y-119269950D01*
X163723059Y-119317569D01*
X163818297Y-119365188D01*
X163961154Y-119365188D01*
X164056392Y-119317569D01*
X164104011Y-119269950D01*
X164151630Y-119174712D01*
X164151630Y-118793760D01*
X164104011Y-120127093D02*
X164104011Y-119793760D01*
X164627820Y-119793760D02*
X163627820Y-119793760D01*
X163627820Y-120269950D01*
X164246868Y-120650902D02*
X164246868Y-121412807D01*
X164627820Y-122460426D02*
X164151630Y-122127093D01*
X164627820Y-121888998D02*
X163627820Y-121888998D01*
X163627820Y-122269950D01*
X163675440Y-122365188D01*
X163723059Y-122412807D01*
X163818297Y-122460426D01*
X163961154Y-122460426D01*
X164056392Y-122412807D01*
X164104011Y-122365188D01*
X164151630Y-122269950D01*
X164151630Y-121888998D01*
X163627820Y-122793760D02*
X163627820Y-123412807D01*
X164008773Y-123079474D01*
X164008773Y-123222331D01*
X164056392Y-123317569D01*
X164104011Y-123365188D01*
X164199249Y-123412807D01*
X164437344Y-123412807D01*
X164532582Y-123365188D01*
X164580201Y-123317569D01*
X164627820Y-123222331D01*
X164627820Y-122936617D01*
X164580201Y-122841379D01*
X164532582Y-122793760D01*
X164246868Y-123841379D02*
X164246868Y-124603283D01*
X163627820Y-124936617D02*
X164627820Y-125269950D01*
X163627820Y-125603283D01*
X164627820Y-126460426D02*
X164627820Y-125888998D01*
X164627820Y-126174712D02*
X163627820Y-126174712D01*
X163770678Y-126079474D01*
X163865916Y-125984236D01*
X163913535Y-125888998D01*
X164532582Y-126888998D02*
X164580201Y-126936617D01*
X164627820Y-126888998D01*
X164580201Y-126841379D01*
X164532582Y-126888998D01*
X164627820Y-126888998D01*
X163627820Y-127555664D02*
X163627820Y-127650902D01*
X163675440Y-127746140D01*
X163723059Y-127793760D01*
X163818297Y-127841379D01*
X164008773Y-127888998D01*
X164246868Y-127888998D01*
X164437344Y-127841379D01*
X164532582Y-127793760D01*
X164580201Y-127746140D01*
X164627820Y-127650902D01*
X164627820Y-127555664D01*
X164580201Y-127460426D01*
X164532582Y-127412807D01*
X164437344Y-127365188D01*
X164246868Y-127317569D01*
X164008773Y-127317569D01*
X163818297Y-127365188D01*
X163723059Y-127412807D01*
X163675440Y-127460426D01*
X163627820Y-127555664D01*
D10*
X138145911Y-101016488D02*
X136645911Y-101016488D01*
X138145911Y-101873631D01*
X136645911Y-101873631D01*
X136496668Y-110871534D02*
X136496668Y-111585820D01*
X137996668Y-111585820D01*
X132712068Y-114816700D02*
X132712068Y-115530985D01*
X134212068Y-115530985D01*
X132712068Y-113530985D02*
X132712068Y-114388128D01*
X132712068Y-113959557D02*
X134212068Y-113959557D01*
X133997782Y-114102414D01*
X133854925Y-114245271D01*
X133783497Y-114388128D01*
D12*
G04 #@! TO.C,G\002A\002A\002A*
G36*
X146169380Y-102659180D02*
X146169380Y-107840780D01*
X146816274Y-107840780D01*
X146816274Y-107686789D01*
X146740195Y-107681248D01*
X146681470Y-107665023D01*
X146678239Y-107663425D01*
X146620363Y-107620829D01*
X146562231Y-107557327D01*
X146513065Y-107484528D01*
X146483256Y-107417966D01*
X146479177Y-107387720D01*
X146475420Y-107326235D01*
X146471984Y-107236137D01*
X146468870Y-107120052D01*
X146466080Y-106980607D01*
X146463613Y-106820427D01*
X146461471Y-106642139D01*
X146459653Y-106448370D01*
X146458162Y-106241744D01*
X146456996Y-106024888D01*
X146456157Y-105800428D01*
X146455645Y-105570991D01*
X146455462Y-105339203D01*
X146455607Y-105107689D01*
X146456082Y-104879077D01*
X146456887Y-104655991D01*
X146458022Y-104441059D01*
X146459489Y-104236906D01*
X146461287Y-104046158D01*
X146463418Y-103871442D01*
X146465882Y-103715384D01*
X146468680Y-103580610D01*
X146471812Y-103469746D01*
X146475280Y-103385418D01*
X146479083Y-103330252D01*
X146482266Y-103309214D01*
X146515687Y-103232601D01*
X146566350Y-103158047D01*
X146626003Y-103095726D01*
X146686396Y-103055813D01*
X146688509Y-103054910D01*
X146765441Y-103035984D01*
X146854972Y-103033635D01*
X146940038Y-103048100D01*
X146950020Y-103051275D01*
X146976535Y-103063738D01*
X147028979Y-103091430D01*
X147104039Y-103132498D01*
X147198402Y-103185087D01*
X147308755Y-103247342D01*
X147431786Y-103317411D01*
X147564181Y-103393438D01*
X147651047Y-103443641D01*
X147797834Y-103528683D01*
X147945799Y-103614406D01*
X148090135Y-103698024D01*
X148226038Y-103776754D01*
X148348700Y-103847812D01*
X148453317Y-103908413D01*
X148535084Y-103955775D01*
X148556980Y-103968457D01*
X148836435Y-104130345D01*
X149087956Y-104276137D01*
X149312946Y-104406656D01*
X149512809Y-104522725D01*
X149688949Y-104625168D01*
X149842768Y-104714808D01*
X149975670Y-104792468D01*
X150089059Y-104858971D01*
X150184338Y-104915142D01*
X150262911Y-104961803D01*
X150326180Y-104999778D01*
X150375550Y-105029889D01*
X150412423Y-105052961D01*
X150438203Y-105069816D01*
X150454293Y-105081279D01*
X150455640Y-105082331D01*
X150509477Y-105138468D01*
X150556640Y-105211584D01*
X150590740Y-105289524D01*
X150605394Y-105360136D01*
X150605542Y-105367605D01*
X150589148Y-105456749D01*
X150543930Y-105546749D01*
X150474223Y-105631582D01*
X150384364Y-105705223D01*
X150345073Y-105729450D01*
X150321334Y-105743034D01*
X150270233Y-105772404D01*
X150193742Y-105816425D01*
X150093836Y-105873958D01*
X149972486Y-105943867D01*
X149831666Y-106025016D01*
X149673347Y-106116266D01*
X149499504Y-106216482D01*
X149312109Y-106324525D01*
X149113135Y-106439260D01*
X148904555Y-106559548D01*
X148688341Y-106684254D01*
X148650114Y-106706303D01*
X148433089Y-106831373D01*
X148223508Y-106951932D01*
X148023327Y-107066868D01*
X147834501Y-107175067D01*
X147658985Y-107275416D01*
X147498733Y-107366803D01*
X147355701Y-107448115D01*
X147231843Y-107518239D01*
X147129115Y-107576062D01*
X147049470Y-107620471D01*
X146994865Y-107650353D01*
X146967254Y-107664596D01*
X146965247Y-107665433D01*
X146895895Y-107681549D01*
X146816274Y-107686789D01*
X146816274Y-107840780D01*
X151046180Y-107840780D01*
X151046180Y-102659180D01*
X146169380Y-102659180D01*
X146169380Y-102659180D01*
G37*
X146169380Y-102659180D02*
X146169380Y-107840780D01*
X146816274Y-107840780D01*
X146816274Y-107686789D01*
X146740195Y-107681248D01*
X146681470Y-107665023D01*
X146678239Y-107663425D01*
X146620363Y-107620829D01*
X146562231Y-107557327D01*
X146513065Y-107484528D01*
X146483256Y-107417966D01*
X146479177Y-107387720D01*
X146475420Y-107326235D01*
X146471984Y-107236137D01*
X146468870Y-107120052D01*
X146466080Y-106980607D01*
X146463613Y-106820427D01*
X146461471Y-106642139D01*
X146459653Y-106448370D01*
X146458162Y-106241744D01*
X146456996Y-106024888D01*
X146456157Y-105800428D01*
X146455645Y-105570991D01*
X146455462Y-105339203D01*
X146455607Y-105107689D01*
X146456082Y-104879077D01*
X146456887Y-104655991D01*
X146458022Y-104441059D01*
X146459489Y-104236906D01*
X146461287Y-104046158D01*
X146463418Y-103871442D01*
X146465882Y-103715384D01*
X146468680Y-103580610D01*
X146471812Y-103469746D01*
X146475280Y-103385418D01*
X146479083Y-103330252D01*
X146482266Y-103309214D01*
X146515687Y-103232601D01*
X146566350Y-103158047D01*
X146626003Y-103095726D01*
X146686396Y-103055813D01*
X146688509Y-103054910D01*
X146765441Y-103035984D01*
X146854972Y-103033635D01*
X146940038Y-103048100D01*
X146950020Y-103051275D01*
X146976535Y-103063738D01*
X147028979Y-103091430D01*
X147104039Y-103132498D01*
X147198402Y-103185087D01*
X147308755Y-103247342D01*
X147431786Y-103317411D01*
X147564181Y-103393438D01*
X147651047Y-103443641D01*
X147797834Y-103528683D01*
X147945799Y-103614406D01*
X148090135Y-103698024D01*
X148226038Y-103776754D01*
X148348700Y-103847812D01*
X148453317Y-103908413D01*
X148535084Y-103955775D01*
X148556980Y-103968457D01*
X148836435Y-104130345D01*
X149087956Y-104276137D01*
X149312946Y-104406656D01*
X149512809Y-104522725D01*
X149688949Y-104625168D01*
X149842768Y-104714808D01*
X149975670Y-104792468D01*
X150089059Y-104858971D01*
X150184338Y-104915142D01*
X150262911Y-104961803D01*
X150326180Y-104999778D01*
X150375550Y-105029889D01*
X150412423Y-105052961D01*
X150438203Y-105069816D01*
X150454293Y-105081279D01*
X150455640Y-105082331D01*
X150509477Y-105138468D01*
X150556640Y-105211584D01*
X150590740Y-105289524D01*
X150605394Y-105360136D01*
X150605542Y-105367605D01*
X150589148Y-105456749D01*
X150543930Y-105546749D01*
X150474223Y-105631582D01*
X150384364Y-105705223D01*
X150345073Y-105729450D01*
X150321334Y-105743034D01*
X150270233Y-105772404D01*
X150193742Y-105816425D01*
X150093836Y-105873958D01*
X149972486Y-105943867D01*
X149831666Y-106025016D01*
X149673347Y-106116266D01*
X149499504Y-106216482D01*
X149312109Y-106324525D01*
X149113135Y-106439260D01*
X148904555Y-106559548D01*
X148688341Y-106684254D01*
X148650114Y-106706303D01*
X148433089Y-106831373D01*
X148223508Y-106951932D01*
X148023327Y-107066868D01*
X147834501Y-107175067D01*
X147658985Y-107275416D01*
X147498733Y-107366803D01*
X147355701Y-107448115D01*
X147231843Y-107518239D01*
X147129115Y-107576062D01*
X147049470Y-107620471D01*
X146994865Y-107650353D01*
X146967254Y-107664596D01*
X146965247Y-107665433D01*
X146895895Y-107681549D01*
X146816274Y-107686789D01*
X146816274Y-107840780D01*
X151046180Y-107840780D01*
X151046180Y-102659180D01*
X146169380Y-102659180D01*
G36*
X150146438Y-105364015D02*
X150138079Y-105356188D01*
X150121343Y-105344023D01*
X150093932Y-105326142D01*
X150053551Y-105301168D01*
X149997905Y-105267721D01*
X149924697Y-105224424D01*
X149831632Y-105169900D01*
X149716414Y-105102768D01*
X149576747Y-105021653D01*
X149410335Y-104925175D01*
X149386714Y-104911489D01*
X149268601Y-104843039D01*
X149150482Y-104774558D01*
X149038346Y-104709517D01*
X148938181Y-104651392D01*
X148855974Y-104603655D01*
X148802514Y-104572576D01*
X148741928Y-104537393D01*
X148657887Y-104488700D01*
X148556278Y-104429900D01*
X148442986Y-104364398D01*
X148323897Y-104295598D01*
X148209847Y-104229762D01*
X148070215Y-104149133D01*
X147911931Y-104057634D01*
X147745622Y-103961414D01*
X147581915Y-103866623D01*
X147431438Y-103779411D01*
X147363181Y-103739814D01*
X147252910Y-103675886D01*
X147150685Y-103616748D01*
X147060600Y-103564760D01*
X146986749Y-103522280D01*
X146933228Y-103491668D01*
X146904130Y-103475281D01*
X146901747Y-103473995D01*
X146863647Y-103453856D01*
X146863647Y-105359451D01*
X146863714Y-105610428D01*
X146863908Y-105851742D01*
X146864220Y-106081256D01*
X146864643Y-106296833D01*
X146865168Y-106496335D01*
X146865785Y-106677626D01*
X146866487Y-106838569D01*
X146867265Y-106977027D01*
X146868110Y-107090862D01*
X146869014Y-107177938D01*
X146869968Y-107236118D01*
X146870964Y-107263263D01*
X146871296Y-107265047D01*
X146887926Y-107257001D01*
X146928211Y-107234940D01*
X146986587Y-107201977D01*
X147057495Y-107161226D01*
X147078729Y-107148907D01*
X147126788Y-107121067D01*
X147201310Y-107078027D01*
X147299395Y-107021458D01*
X147418140Y-106953031D01*
X147554644Y-106874416D01*
X147706005Y-106787286D01*
X147824484Y-106719110D01*
X147824484Y-106109815D01*
X147817875Y-106105460D01*
X147821315Y-106084842D01*
X147835865Y-106045478D01*
X147862590Y-105984889D01*
X147902552Y-105900591D01*
X147956814Y-105790103D01*
X147989484Y-105724573D01*
X148042120Y-105618647D01*
X148088947Y-105523004D01*
X148128037Y-105441698D01*
X148157464Y-105378780D01*
X148175299Y-105338303D01*
X148179815Y-105324370D01*
X148162851Y-105327795D01*
X148119835Y-105340766D01*
X148056563Y-105361310D01*
X147978830Y-105387455D01*
X147892432Y-105417227D01*
X147803165Y-105448654D01*
X147716824Y-105479762D01*
X147643707Y-105506876D01*
X147622363Y-105516414D01*
X147618408Y-105527002D01*
X147635101Y-105544401D01*
X147675700Y-105574371D01*
X147686040Y-105581717D01*
X147731625Y-105616231D01*
X147764525Y-105645198D01*
X147776011Y-105659512D01*
X147772930Y-105671174D01*
X147767544Y-105669200D01*
X147746891Y-105664825D01*
X147697801Y-105657694D01*
X147625531Y-105648469D01*
X147535339Y-105637815D01*
X147432482Y-105626394D01*
X147405514Y-105623508D01*
X147273688Y-105609375D01*
X147171888Y-105598043D01*
X147096440Y-105588943D01*
X147043672Y-105581505D01*
X147009909Y-105575162D01*
X146991479Y-105569343D01*
X146984708Y-105563479D01*
X146985211Y-105558389D01*
X146998452Y-105543395D01*
X147032265Y-105508529D01*
X147082938Y-105457521D01*
X147146756Y-105394103D01*
X147220007Y-105322007D01*
X147237365Y-105305014D01*
X147312412Y-105232142D01*
X147379400Y-105168100D01*
X147434539Y-105116426D01*
X147474041Y-105080661D01*
X147494120Y-105064344D01*
X147495598Y-105063714D01*
X147501421Y-105079173D01*
X147505562Y-105119674D01*
X147507114Y-105175592D01*
X147508931Y-105238240D01*
X147514973Y-105271509D01*
X147526124Y-105279723D01*
X147528281Y-105279066D01*
X147548567Y-105270728D01*
X147596244Y-105250995D01*
X147667434Y-105221476D01*
X147758256Y-105183780D01*
X147864833Y-105139519D01*
X147983284Y-105090300D01*
X148057447Y-105059473D01*
X148182040Y-105007794D01*
X148297920Y-104959952D01*
X148401040Y-104917601D01*
X148487353Y-104882395D01*
X148552811Y-104855987D01*
X148593366Y-104840032D01*
X148603779Y-104836251D01*
X148642111Y-104824218D01*
X148606222Y-104914333D01*
X148544407Y-105069969D01*
X148494502Y-105196623D01*
X148455614Y-105296667D01*
X148426851Y-105372471D01*
X148407322Y-105426409D01*
X148396134Y-105460850D01*
X148392394Y-105478167D01*
X148392983Y-105481094D01*
X148409538Y-105475836D01*
X148452471Y-105457097D01*
X148517943Y-105426697D01*
X148602118Y-105386454D01*
X148701158Y-105338184D01*
X148811226Y-105283707D01*
X148841085Y-105268796D01*
X148953493Y-105213075D01*
X149056011Y-105163243D01*
X149144779Y-105121098D01*
X149215934Y-105088438D01*
X149265615Y-105067062D01*
X149289960Y-105058767D01*
X149291658Y-105058969D01*
X149296428Y-105080098D01*
X149299685Y-105127166D01*
X149301432Y-105192280D01*
X149301674Y-105267546D01*
X149300413Y-105345071D01*
X149297654Y-105416961D01*
X149293401Y-105475323D01*
X149291449Y-105491912D01*
X149280850Y-105569237D01*
X148568637Y-105835350D01*
X148420368Y-105890672D01*
X148281141Y-105942470D01*
X148154314Y-105989506D01*
X148043249Y-106030541D01*
X147951303Y-106064335D01*
X147881838Y-106089650D01*
X147838212Y-106105245D01*
X147824484Y-106109815D01*
X147824484Y-106719110D01*
X147869321Y-106693309D01*
X148041691Y-106594158D01*
X148220212Y-106491502D01*
X148353780Y-106414719D01*
X148537947Y-106308851D01*
X148720341Y-106203978D01*
X148897770Y-106101937D01*
X149067043Y-106004565D01*
X149224966Y-105913700D01*
X149368347Y-105831179D01*
X149493994Y-105758837D01*
X149598714Y-105698514D01*
X149679315Y-105652044D01*
X149716914Y-105630338D01*
X149811259Y-105575869D01*
X149900435Y-105524463D01*
X149978413Y-105479592D01*
X150039161Y-105444726D01*
X150076650Y-105423334D01*
X150076747Y-105423279D01*
X150118545Y-105397066D01*
X150144507Y-105375857D01*
X150148714Y-105368882D01*
X150146438Y-105364015D01*
X150146438Y-105364015D01*
G37*
X150146438Y-105364015D02*
X150138079Y-105356188D01*
X150121343Y-105344023D01*
X150093932Y-105326142D01*
X150053551Y-105301168D01*
X149997905Y-105267721D01*
X149924697Y-105224424D01*
X149831632Y-105169900D01*
X149716414Y-105102768D01*
X149576747Y-105021653D01*
X149410335Y-104925175D01*
X149386714Y-104911489D01*
X149268601Y-104843039D01*
X149150482Y-104774558D01*
X149038346Y-104709517D01*
X148938181Y-104651392D01*
X148855974Y-104603655D01*
X148802514Y-104572576D01*
X148741928Y-104537393D01*
X148657887Y-104488700D01*
X148556278Y-104429900D01*
X148442986Y-104364398D01*
X148323897Y-104295598D01*
X148209847Y-104229762D01*
X148070215Y-104149133D01*
X147911931Y-104057634D01*
X147745622Y-103961414D01*
X147581915Y-103866623D01*
X147431438Y-103779411D01*
X147363181Y-103739814D01*
X147252910Y-103675886D01*
X147150685Y-103616748D01*
X147060600Y-103564760D01*
X146986749Y-103522280D01*
X146933228Y-103491668D01*
X146904130Y-103475281D01*
X146901747Y-103473995D01*
X146863647Y-103453856D01*
X146863647Y-105359451D01*
X146863714Y-105610428D01*
X146863908Y-105851742D01*
X146864220Y-106081256D01*
X146864643Y-106296833D01*
X146865168Y-106496335D01*
X146865785Y-106677626D01*
X146866487Y-106838569D01*
X146867265Y-106977027D01*
X146868110Y-107090862D01*
X146869014Y-107177938D01*
X146869968Y-107236118D01*
X146870964Y-107263263D01*
X146871296Y-107265047D01*
X146887926Y-107257001D01*
X146928211Y-107234940D01*
X146986587Y-107201977D01*
X147057495Y-107161226D01*
X147078729Y-107148907D01*
X147126788Y-107121067D01*
X147201310Y-107078027D01*
X147299395Y-107021458D01*
X147418140Y-106953031D01*
X147554644Y-106874416D01*
X147706005Y-106787286D01*
X147824484Y-106719110D01*
X147824484Y-106109815D01*
X147817875Y-106105460D01*
X147821315Y-106084842D01*
X147835865Y-106045478D01*
X147862590Y-105984889D01*
X147902552Y-105900591D01*
X147956814Y-105790103D01*
X147989484Y-105724573D01*
X148042120Y-105618647D01*
X148088947Y-105523004D01*
X148128037Y-105441698D01*
X148157464Y-105378780D01*
X148175299Y-105338303D01*
X148179815Y-105324370D01*
X148162851Y-105327795D01*
X148119835Y-105340766D01*
X148056563Y-105361310D01*
X147978830Y-105387455D01*
X147892432Y-105417227D01*
X147803165Y-105448654D01*
X147716824Y-105479762D01*
X147643707Y-105506876D01*
X147622363Y-105516414D01*
X147618408Y-105527002D01*
X147635101Y-105544401D01*
X147675700Y-105574371D01*
X147686040Y-105581717D01*
X147731625Y-105616231D01*
X147764525Y-105645198D01*
X147776011Y-105659512D01*
X147772930Y-105671174D01*
X147767544Y-105669200D01*
X147746891Y-105664825D01*
X147697801Y-105657694D01*
X147625531Y-105648469D01*
X147535339Y-105637815D01*
X147432482Y-105626394D01*
X147405514Y-105623508D01*
X147273688Y-105609375D01*
X147171888Y-105598043D01*
X147096440Y-105588943D01*
X147043672Y-105581505D01*
X147009909Y-105575162D01*
X146991479Y-105569343D01*
X146984708Y-105563479D01*
X146985211Y-105558389D01*
X146998452Y-105543395D01*
X147032265Y-105508529D01*
X147082938Y-105457521D01*
X147146756Y-105394103D01*
X147220007Y-105322007D01*
X147237365Y-105305014D01*
X147312412Y-105232142D01*
X147379400Y-105168100D01*
X147434539Y-105116426D01*
X147474041Y-105080661D01*
X147494120Y-105064344D01*
X147495598Y-105063714D01*
X147501421Y-105079173D01*
X147505562Y-105119674D01*
X147507114Y-105175592D01*
X147508931Y-105238240D01*
X147514973Y-105271509D01*
X147526124Y-105279723D01*
X147528281Y-105279066D01*
X147548567Y-105270728D01*
X147596244Y-105250995D01*
X147667434Y-105221476D01*
X147758256Y-105183780D01*
X147864833Y-105139519D01*
X147983284Y-105090300D01*
X148057447Y-105059473D01*
X148182040Y-105007794D01*
X148297920Y-104959952D01*
X148401040Y-104917601D01*
X148487353Y-104882395D01*
X148552811Y-104855987D01*
X148593366Y-104840032D01*
X148603779Y-104836251D01*
X148642111Y-104824218D01*
X148606222Y-104914333D01*
X148544407Y-105069969D01*
X148494502Y-105196623D01*
X148455614Y-105296667D01*
X148426851Y-105372471D01*
X148407322Y-105426409D01*
X148396134Y-105460850D01*
X148392394Y-105478167D01*
X148392983Y-105481094D01*
X148409538Y-105475836D01*
X148452471Y-105457097D01*
X148517943Y-105426697D01*
X148602118Y-105386454D01*
X148701158Y-105338184D01*
X148811226Y-105283707D01*
X148841085Y-105268796D01*
X148953493Y-105213075D01*
X149056011Y-105163243D01*
X149144779Y-105121098D01*
X149215934Y-105088438D01*
X149265615Y-105067062D01*
X149289960Y-105058767D01*
X149291658Y-105058969D01*
X149296428Y-105080098D01*
X149299685Y-105127166D01*
X149301432Y-105192280D01*
X149301674Y-105267546D01*
X149300413Y-105345071D01*
X149297654Y-105416961D01*
X149293401Y-105475323D01*
X149291449Y-105491912D01*
X149280850Y-105569237D01*
X148568637Y-105835350D01*
X148420368Y-105890672D01*
X148281141Y-105942470D01*
X148154314Y-105989506D01*
X148043249Y-106030541D01*
X147951303Y-106064335D01*
X147881838Y-106089650D01*
X147838212Y-106105245D01*
X147824484Y-106109815D01*
X147824484Y-106719110D01*
X147869321Y-106693309D01*
X148041691Y-106594158D01*
X148220212Y-106491502D01*
X148353780Y-106414719D01*
X148537947Y-106308851D01*
X148720341Y-106203978D01*
X148897770Y-106101937D01*
X149067043Y-106004565D01*
X149224966Y-105913700D01*
X149368347Y-105831179D01*
X149493994Y-105758837D01*
X149598714Y-105698514D01*
X149679315Y-105652044D01*
X149716914Y-105630338D01*
X149811259Y-105575869D01*
X149900435Y-105524463D01*
X149978413Y-105479592D01*
X150039161Y-105444726D01*
X150076650Y-105423334D01*
X150076747Y-105423279D01*
X150118545Y-105397066D01*
X150144507Y-105375857D01*
X150148714Y-105368882D01*
X150146438Y-105364015D01*
G36*
X167530367Y-117572164D02*
X167610127Y-117651755D01*
X167697725Y-117687898D01*
X167867462Y-117734366D01*
X168007841Y-117753651D01*
X168082168Y-117769106D01*
X168065517Y-117797953D01*
X168006579Y-117882741D01*
X167961468Y-118018560D01*
X167948988Y-118134126D01*
X167988884Y-118214981D01*
X168104662Y-118297906D01*
X168160791Y-118330440D01*
X168301924Y-118421093D01*
X168386734Y-118495722D01*
X168397747Y-118517836D01*
X168347213Y-118567737D01*
X168221407Y-118626937D01*
X168176236Y-118642772D01*
X167994282Y-118717566D01*
X167901274Y-118812127D01*
X167869117Y-118962319D01*
X167867024Y-119037514D01*
X167872356Y-119139524D01*
X167901074Y-119199713D01*
X167970531Y-119217587D01*
X168098075Y-119192651D01*
X168301058Y-119124410D01*
X168584657Y-119017061D01*
X168857855Y-118914199D01*
X169124625Y-118817798D01*
X169343046Y-118742855D01*
X169416701Y-118719424D01*
X169583631Y-118663301D01*
X169666345Y-118605478D01*
X169694377Y-118512352D01*
X169697282Y-118400225D01*
X169689134Y-118253056D01*
X169668802Y-118171822D01*
X169660908Y-118166235D01*
X169588516Y-118184472D01*
X169444514Y-118230952D01*
X169347851Y-118264504D01*
X169071169Y-118362772D01*
X168643901Y-118108937D01*
X168452701Y-117991399D01*
X168311433Y-117896942D01*
X168242173Y-117840652D01*
X168239286Y-117832448D01*
X168304575Y-117829022D01*
X168454761Y-117841453D01*
X168658064Y-117867063D01*
X168669495Y-117868705D01*
X168945378Y-117907601D01*
X169124244Y-117925036D01*
X169226109Y-117915692D01*
X169270986Y-117874249D01*
X169278891Y-117795390D01*
X169272592Y-117708444D01*
X169250823Y-117562086D01*
X169194635Y-117496216D01*
X169068255Y-117473191D01*
X169047515Y-117471582D01*
X168833435Y-117449148D01*
X168634026Y-117419903D01*
X168529184Y-117399236D01*
X168498660Y-117379375D01*
X168553891Y-117350685D01*
X168706316Y-117303529D01*
X168806454Y-117274640D01*
X169046840Y-117200147D01*
X169192235Y-117135625D01*
X169263001Y-117065535D01*
X169279501Y-116974337D01*
X169274028Y-116917815D01*
X169215036Y-116800926D01*
X169064958Y-116685712D01*
X168813156Y-116564997D01*
X168666525Y-116507967D01*
X168567070Y-116466201D01*
X168543215Y-116435820D01*
X168606350Y-116410953D01*
X168767865Y-116385729D01*
X168944143Y-116364876D01*
X169283794Y-116326571D01*
X169283794Y-115909594D01*
X168855538Y-115950416D01*
X168601853Y-115978858D01*
X168359140Y-116013122D01*
X168191003Y-116043572D01*
X167985422Y-116078896D01*
X167791341Y-116096859D01*
X167769067Y-116097349D01*
X167615547Y-116128259D01*
X167534884Y-116230888D01*
X167511701Y-116422104D01*
X167549407Y-116537909D01*
X167674143Y-116599257D01*
X167844175Y-116652033D01*
X168034103Y-116725741D01*
X168211367Y-116805657D01*
X168343405Y-116877057D01*
X168397656Y-116925218D01*
X168397747Y-116926470D01*
X168346033Y-116965386D01*
X168217986Y-117004741D01*
X168180659Y-117012417D01*
X167973888Y-117063940D01*
X167758262Y-117135469D01*
X167737636Y-117143545D01*
X167590582Y-117215130D01*
X167525937Y-117297603D01*
X167511701Y-117428498D01*
X167530367Y-117572164D01*
X167530367Y-117572164D01*
G37*
X167530367Y-117572164D02*
X167610127Y-117651755D01*
X167697725Y-117687898D01*
X167867462Y-117734366D01*
X168007841Y-117753651D01*
X168082168Y-117769106D01*
X168065517Y-117797953D01*
X168006579Y-117882741D01*
X167961468Y-118018560D01*
X167948988Y-118134126D01*
X167988884Y-118214981D01*
X168104662Y-118297906D01*
X168160791Y-118330440D01*
X168301924Y-118421093D01*
X168386734Y-118495722D01*
X168397747Y-118517836D01*
X168347213Y-118567737D01*
X168221407Y-118626937D01*
X168176236Y-118642772D01*
X167994282Y-118717566D01*
X167901274Y-118812127D01*
X167869117Y-118962319D01*
X167867024Y-119037514D01*
X167872356Y-119139524D01*
X167901074Y-119199713D01*
X167970531Y-119217587D01*
X168098075Y-119192651D01*
X168301058Y-119124410D01*
X168584657Y-119017061D01*
X168857855Y-118914199D01*
X169124625Y-118817798D01*
X169343046Y-118742855D01*
X169416701Y-118719424D01*
X169583631Y-118663301D01*
X169666345Y-118605478D01*
X169694377Y-118512352D01*
X169697282Y-118400225D01*
X169689134Y-118253056D01*
X169668802Y-118171822D01*
X169660908Y-118166235D01*
X169588516Y-118184472D01*
X169444514Y-118230952D01*
X169347851Y-118264504D01*
X169071169Y-118362772D01*
X168643901Y-118108937D01*
X168452701Y-117991399D01*
X168311433Y-117896942D01*
X168242173Y-117840652D01*
X168239286Y-117832448D01*
X168304575Y-117829022D01*
X168454761Y-117841453D01*
X168658064Y-117867063D01*
X168669495Y-117868705D01*
X168945378Y-117907601D01*
X169124244Y-117925036D01*
X169226109Y-117915692D01*
X169270986Y-117874249D01*
X169278891Y-117795390D01*
X169272592Y-117708444D01*
X169250823Y-117562086D01*
X169194635Y-117496216D01*
X169068255Y-117473191D01*
X169047515Y-117471582D01*
X168833435Y-117449148D01*
X168634026Y-117419903D01*
X168529184Y-117399236D01*
X168498660Y-117379375D01*
X168553891Y-117350685D01*
X168706316Y-117303529D01*
X168806454Y-117274640D01*
X169046840Y-117200147D01*
X169192235Y-117135625D01*
X169263001Y-117065535D01*
X169279501Y-116974337D01*
X169274028Y-116917815D01*
X169215036Y-116800926D01*
X169064958Y-116685712D01*
X168813156Y-116564997D01*
X168666525Y-116507967D01*
X168567070Y-116466201D01*
X168543215Y-116435820D01*
X168606350Y-116410953D01*
X168767865Y-116385729D01*
X168944143Y-116364876D01*
X169283794Y-116326571D01*
X169283794Y-115909594D01*
X168855538Y-115950416D01*
X168601853Y-115978858D01*
X168359140Y-116013122D01*
X168191003Y-116043572D01*
X167985422Y-116078896D01*
X167791341Y-116096859D01*
X167769067Y-116097349D01*
X167615547Y-116128259D01*
X167534884Y-116230888D01*
X167511701Y-116422104D01*
X167549407Y-116537909D01*
X167674143Y-116599257D01*
X167844175Y-116652033D01*
X168034103Y-116725741D01*
X168211367Y-116805657D01*
X168343405Y-116877057D01*
X168397656Y-116925218D01*
X168397747Y-116926470D01*
X168346033Y-116965386D01*
X168217986Y-117004741D01*
X168180659Y-117012417D01*
X167973888Y-117063940D01*
X167758262Y-117135469D01*
X167737636Y-117143545D01*
X167590582Y-117215130D01*
X167525937Y-117297603D01*
X167511701Y-117428498D01*
X167530367Y-117572164D01*
G36*
X167503707Y-119998584D02*
X167583820Y-120149618D01*
X167642366Y-120213983D01*
X167750264Y-120314602D01*
X167819180Y-120338177D01*
X167892258Y-120292587D01*
X167922948Y-120265240D01*
X168026163Y-120134023D01*
X168025902Y-120029370D01*
X167954724Y-119976036D01*
X167883012Y-119909067D01*
X167870805Y-119820723D01*
X167920848Y-119764097D01*
X167943616Y-119761118D01*
X168026502Y-119804971D01*
X168132647Y-119913295D01*
X168154739Y-119941859D01*
X168361991Y-120154031D01*
X168605587Y-120297830D01*
X168848694Y-120351585D01*
X168851251Y-120351595D01*
X169044998Y-120301748D01*
X169186538Y-120170006D01*
X169268355Y-119983835D01*
X169282929Y-119770703D01*
X169222743Y-119558075D01*
X169111128Y-119402156D01*
X168966415Y-119274394D01*
X168863859Y-119240189D01*
X168775607Y-119297934D01*
X168715760Y-119379362D01*
X168653890Y-119491162D01*
X168666046Y-119570936D01*
X168743933Y-119663750D01*
X168848358Y-119792915D01*
X168858434Y-119861843D01*
X168793212Y-119879258D01*
X168716084Y-119839136D01*
X168587538Y-119733875D01*
X168435201Y-119586134D01*
X168433066Y-119583909D01*
X168267599Y-119421442D01*
X168142128Y-119331414D01*
X168022836Y-119294023D01*
X167928617Y-119288560D01*
X167703612Y-119332112D01*
X167557088Y-119463418D01*
X167488185Y-119683454D01*
X167482166Y-119795512D01*
X167503707Y-119998584D01*
X167503707Y-119998584D01*
G37*
X167503707Y-119998584D02*
X167583820Y-120149618D01*
X167642366Y-120213983D01*
X167750264Y-120314602D01*
X167819180Y-120338177D01*
X167892258Y-120292587D01*
X167922948Y-120265240D01*
X168026163Y-120134023D01*
X168025902Y-120029370D01*
X167954724Y-119976036D01*
X167883012Y-119909067D01*
X167870805Y-119820723D01*
X167920848Y-119764097D01*
X167943616Y-119761118D01*
X168026502Y-119804971D01*
X168132647Y-119913295D01*
X168154739Y-119941859D01*
X168361991Y-120154031D01*
X168605587Y-120297830D01*
X168848694Y-120351585D01*
X168851251Y-120351595D01*
X169044998Y-120301748D01*
X169186538Y-120170006D01*
X169268355Y-119983835D01*
X169282929Y-119770703D01*
X169222743Y-119558075D01*
X169111128Y-119402156D01*
X168966415Y-119274394D01*
X168863859Y-119240189D01*
X168775607Y-119297934D01*
X168715760Y-119379362D01*
X168653890Y-119491162D01*
X168666046Y-119570936D01*
X168743933Y-119663750D01*
X168848358Y-119792915D01*
X168858434Y-119861843D01*
X168793212Y-119879258D01*
X168716084Y-119839136D01*
X168587538Y-119733875D01*
X168435201Y-119586134D01*
X168433066Y-119583909D01*
X168267599Y-119421442D01*
X168142128Y-119331414D01*
X168022836Y-119294023D01*
X167928617Y-119288560D01*
X167703612Y-119332112D01*
X167557088Y-119463418D01*
X167488185Y-119683454D01*
X167482166Y-119795512D01*
X167503707Y-119998584D01*
G36*
X167949060Y-121466086D02*
X168098874Y-121652302D01*
X168252099Y-121744609D01*
X168478685Y-121818420D01*
X168627866Y-121813678D01*
X168711891Y-121728767D01*
X168727648Y-121681927D01*
X168764450Y-121535294D01*
X168876267Y-121667160D01*
X168988084Y-121799025D01*
X169135939Y-121633290D01*
X169253774Y-121420292D01*
X169294435Y-121160317D01*
X169258067Y-120895711D01*
X169195189Y-120769737D01*
X169195189Y-121237863D01*
X169224724Y-121267397D01*
X169195189Y-121296932D01*
X169165654Y-121267397D01*
X169195189Y-121237863D01*
X169195189Y-120769737D01*
X169144817Y-120668818D01*
X169132559Y-120653706D01*
X169017980Y-120564599D01*
X169017980Y-121296932D01*
X169047515Y-121326467D01*
X169017980Y-121356002D01*
X168988445Y-121326467D01*
X169017980Y-121296932D01*
X169017980Y-120564599D01*
X168921256Y-120489376D01*
X168805219Y-120460538D01*
X168805219Y-120859518D01*
X168840771Y-120883444D01*
X168913104Y-121011497D01*
X168918288Y-121186041D01*
X168856513Y-121356498D01*
X168838892Y-121382060D01*
X168790677Y-121435634D01*
X168764620Y-121421886D01*
X168754022Y-121323148D01*
X168752166Y-121153315D01*
X168755860Y-120964168D01*
X168771344Y-120872938D01*
X168805219Y-120859518D01*
X168805219Y-120460538D01*
X168655404Y-120423305D01*
X168351497Y-120459361D01*
X168338678Y-120463066D01*
X168338678Y-120972049D01*
X168384149Y-120982554D01*
X168394510Y-121064199D01*
X168369762Y-121175321D01*
X168338678Y-121237863D01*
X168297510Y-121278520D01*
X168281742Y-121216876D01*
X168280512Y-121167511D01*
X168299661Y-121036715D01*
X168338678Y-120972049D01*
X168338678Y-120463066D01*
X168330155Y-120465530D01*
X168108734Y-120584981D01*
X167958268Y-120771739D01*
X167880403Y-120998827D01*
X167876784Y-121239268D01*
X167949060Y-121466086D01*
X167949060Y-121466086D01*
G37*
X167949060Y-121466086D02*
X168098874Y-121652302D01*
X168252099Y-121744609D01*
X168478685Y-121818420D01*
X168627866Y-121813678D01*
X168711891Y-121728767D01*
X168727648Y-121681927D01*
X168764450Y-121535294D01*
X168876267Y-121667160D01*
X168988084Y-121799025D01*
X169135939Y-121633290D01*
X169253774Y-121420292D01*
X169294435Y-121160317D01*
X169258067Y-120895711D01*
X169195189Y-120769737D01*
X169195189Y-121237863D01*
X169224724Y-121267397D01*
X169195189Y-121296932D01*
X169165654Y-121267397D01*
X169195189Y-121237863D01*
X169195189Y-120769737D01*
X169144817Y-120668818D01*
X169132559Y-120653706D01*
X169017980Y-120564599D01*
X169017980Y-121296932D01*
X169047515Y-121326467D01*
X169017980Y-121356002D01*
X168988445Y-121326467D01*
X169017980Y-121296932D01*
X169017980Y-120564599D01*
X168921256Y-120489376D01*
X168805219Y-120460538D01*
X168805219Y-120859518D01*
X168840771Y-120883444D01*
X168913104Y-121011497D01*
X168918288Y-121186041D01*
X168856513Y-121356498D01*
X168838892Y-121382060D01*
X168790677Y-121435634D01*
X168764620Y-121421886D01*
X168754022Y-121323148D01*
X168752166Y-121153315D01*
X168755860Y-120964168D01*
X168771344Y-120872938D01*
X168805219Y-120859518D01*
X168805219Y-120460538D01*
X168655404Y-120423305D01*
X168351497Y-120459361D01*
X168338678Y-120463066D01*
X168338678Y-120972049D01*
X168384149Y-120982554D01*
X168394510Y-121064199D01*
X168369762Y-121175321D01*
X168338678Y-121237863D01*
X168297510Y-121278520D01*
X168281742Y-121216876D01*
X168280512Y-121167511D01*
X168299661Y-121036715D01*
X168338678Y-120972049D01*
X168338678Y-120463066D01*
X168330155Y-120465530D01*
X168108734Y-120584981D01*
X167958268Y-120771739D01*
X167880403Y-120998827D01*
X167876784Y-121239268D01*
X167949060Y-121466086D01*
G36*
X167945159Y-122789039D02*
X168053355Y-122932171D01*
X168239379Y-123018702D01*
X168516735Y-123060286D01*
X168815081Y-123069025D01*
X169283794Y-123069025D01*
X169283794Y-122603950D01*
X168914608Y-122612450D01*
X168684435Y-122604542D01*
X168491805Y-122574337D01*
X168405623Y-122543873D01*
X168311456Y-122480858D01*
X168313748Y-122424340D01*
X168361511Y-122371109D01*
X168497324Y-122303438D01*
X168745037Y-122261481D01*
X168870495Y-122252070D01*
X169086236Y-122237965D01*
X169209739Y-122218164D01*
X169266731Y-122180598D01*
X169282940Y-122113196D01*
X169283794Y-122058173D01*
X169283794Y-121887630D01*
X167941364Y-121887630D01*
X167908228Y-122286351D01*
X167901284Y-122577651D01*
X167945159Y-122789039D01*
X167945159Y-122789039D01*
G37*
X167945159Y-122789039D02*
X168053355Y-122932171D01*
X168239379Y-123018702D01*
X168516735Y-123060286D01*
X168815081Y-123069025D01*
X169283794Y-123069025D01*
X169283794Y-122603950D01*
X168914608Y-122612450D01*
X168684435Y-122604542D01*
X168491805Y-122574337D01*
X168405623Y-122543873D01*
X168311456Y-122480858D01*
X168313748Y-122424340D01*
X168361511Y-122371109D01*
X168497324Y-122303438D01*
X168745037Y-122261481D01*
X168870495Y-122252070D01*
X169086236Y-122237965D01*
X169209739Y-122218164D01*
X169266731Y-122180598D01*
X169282940Y-122113196D01*
X169283794Y-122058173D01*
X169283794Y-121887630D01*
X167941364Y-121887630D01*
X167908228Y-122286351D01*
X167901284Y-122577651D01*
X167945159Y-122789039D01*
G36*
X167888677Y-123794508D02*
X167947180Y-123972092D01*
X168035427Y-124095530D01*
X168126128Y-124132281D01*
X168220761Y-124091937D01*
X168304696Y-124019055D01*
X168373129Y-123905792D01*
X168348607Y-123782013D01*
X168342180Y-123768009D01*
X168302986Y-123680095D01*
X168318652Y-123691923D01*
X168352239Y-123739959D01*
X168493468Y-123937962D01*
X168599987Y-124055562D01*
X168698579Y-124113230D01*
X168816022Y-124131440D01*
X168865438Y-124132281D01*
X169074414Y-124096967D01*
X169186034Y-124024258D01*
X169258518Y-123870008D01*
X169278370Y-123656590D01*
X169245399Y-123430703D01*
X169189049Y-123286933D01*
X169080900Y-123163664D01*
X168962242Y-123152706D01*
X168850805Y-123255615D01*
X168849830Y-123257157D01*
X168820518Y-123376876D01*
X168868200Y-123508114D01*
X168915177Y-123641936D01*
X168894390Y-123704835D01*
X168825845Y-123679603D01*
X168760476Y-123600769D01*
X168571723Y-123371760D01*
X168372245Y-123230973D01*
X168178355Y-123184938D01*
X168006364Y-123240182D01*
X167958943Y-123279989D01*
X167887829Y-123414145D01*
X167866650Y-123597089D01*
X167888677Y-123794508D01*
X167888677Y-123794508D01*
G37*
X167888677Y-123794508D02*
X167947180Y-123972092D01*
X168035427Y-124095530D01*
X168126128Y-124132281D01*
X168220761Y-124091937D01*
X168304696Y-124019055D01*
X168373129Y-123905792D01*
X168348607Y-123782013D01*
X168342180Y-123768009D01*
X168302986Y-123680095D01*
X168318652Y-123691923D01*
X168352239Y-123739959D01*
X168493468Y-123937962D01*
X168599987Y-124055562D01*
X168698579Y-124113230D01*
X168816022Y-124131440D01*
X168865438Y-124132281D01*
X169074414Y-124096967D01*
X169186034Y-124024258D01*
X169258518Y-123870008D01*
X169278370Y-123656590D01*
X169245399Y-123430703D01*
X169189049Y-123286933D01*
X169080900Y-123163664D01*
X168962242Y-123152706D01*
X168850805Y-123255615D01*
X168849830Y-123257157D01*
X168820518Y-123376876D01*
X168868200Y-123508114D01*
X168915177Y-123641936D01*
X168894390Y-123704835D01*
X168825845Y-123679603D01*
X168760476Y-123600769D01*
X168571723Y-123371760D01*
X168372245Y-123230973D01*
X168178355Y-123184938D01*
X168006364Y-123240182D01*
X167958943Y-123279989D01*
X167887829Y-123414145D01*
X167866650Y-123597089D01*
X167888677Y-123794508D01*
G36*
X167883492Y-125205499D02*
X167936269Y-125294840D01*
X168040257Y-125390631D01*
X168041527Y-125391700D01*
X168173653Y-125485419D01*
X168313603Y-125533309D01*
X168509116Y-125549298D01*
X168584033Y-125549956D01*
X168795001Y-125542779D01*
X168933009Y-125511465D01*
X169042857Y-125441340D01*
X169111128Y-125377290D01*
X169247667Y-125161015D01*
X169282126Y-124893375D01*
X169215884Y-124592308D01*
X169094223Y-124415477D01*
X168891882Y-124278035D01*
X168644860Y-124200863D01*
X168524614Y-124191351D01*
X168493710Y-124195697D01*
X168493710Y-124675487D01*
X168676622Y-124695596D01*
X168774292Y-124753543D01*
X168857251Y-124864814D01*
X168845152Y-124965342D01*
X168752166Y-125077397D01*
X168640711Y-125172225D01*
X168548295Y-125182574D01*
X168423053Y-125112032D01*
X168407518Y-125101221D01*
X168301698Y-124973629D01*
X168291003Y-124850174D01*
X168327784Y-124734804D01*
X168427025Y-124684752D01*
X168493710Y-124675487D01*
X168493710Y-124195697D01*
X168310532Y-124221460D01*
X168128592Y-124329133D01*
X168092967Y-124359779D01*
X167982175Y-124474395D01*
X167920237Y-124595645D01*
X167888623Y-124768646D01*
X167878957Y-124880827D01*
X167868772Y-125081272D01*
X167883492Y-125205499D01*
X167883492Y-125205499D01*
G37*
X167883492Y-125205499D02*
X167936269Y-125294840D01*
X168040257Y-125390631D01*
X168041527Y-125391700D01*
X168173653Y-125485419D01*
X168313603Y-125533309D01*
X168509116Y-125549298D01*
X168584033Y-125549956D01*
X168795001Y-125542779D01*
X168933009Y-125511465D01*
X169042857Y-125441340D01*
X169111128Y-125377290D01*
X169247667Y-125161015D01*
X169282126Y-124893375D01*
X169215884Y-124592308D01*
X169094223Y-124415477D01*
X168891882Y-124278035D01*
X168644860Y-124200863D01*
X168524614Y-124191351D01*
X168493710Y-124195697D01*
X168493710Y-124675487D01*
X168676622Y-124695596D01*
X168774292Y-124753543D01*
X168857251Y-124864814D01*
X168845152Y-124965342D01*
X168752166Y-125077397D01*
X168640711Y-125172225D01*
X168548295Y-125182574D01*
X168423053Y-125112032D01*
X168407518Y-125101221D01*
X168301698Y-124973629D01*
X168291003Y-124850174D01*
X168327784Y-124734804D01*
X168427025Y-124684752D01*
X168493710Y-124675487D01*
X168493710Y-124195697D01*
X168310532Y-124221460D01*
X168128592Y-124329133D01*
X168092967Y-124359779D01*
X167982175Y-124474395D01*
X167920237Y-124595645D01*
X167888623Y-124768646D01*
X167878957Y-124880827D01*
X167868772Y-125081272D01*
X167883492Y-125205499D01*
G36*
X165639414Y-127035263D02*
X165683007Y-127057018D01*
X165770453Y-127118048D01*
X165764795Y-127217609D01*
X165752128Y-127304903D01*
X165808901Y-127307856D01*
X165821396Y-127303303D01*
X165902539Y-127306726D01*
X165916817Y-127353437D01*
X165949305Y-127430848D01*
X165975887Y-127440188D01*
X166033280Y-127399298D01*
X166034957Y-127386648D01*
X166081588Y-127355145D01*
X166144950Y-127361873D01*
X166248279Y-127340536D01*
X166310805Y-127250622D01*
X166298674Y-127141485D01*
X166297476Y-127139509D01*
X166326104Y-127104480D01*
X166439103Y-127086430D01*
X166471008Y-127085770D01*
X166619124Y-127070698D01*
X166708779Y-127033820D01*
X166713511Y-127027909D01*
X166781417Y-127005665D01*
X166876174Y-127050773D01*
X166955696Y-127134647D01*
X166980073Y-127208963D01*
X166935241Y-127318965D01*
X166830428Y-127438219D01*
X166710156Y-127520879D01*
X166664633Y-127533769D01*
X166540514Y-127547154D01*
X166522282Y-127549331D01*
X166456355Y-127597427D01*
X166458790Y-127677935D01*
X166522105Y-127732688D01*
X166546241Y-127735537D01*
X166671397Y-127694538D01*
X166827006Y-127593650D01*
X166970731Y-127466035D01*
X167060237Y-127344857D01*
X167066880Y-127327711D01*
X167101553Y-127255722D01*
X167163713Y-127251521D01*
X167275798Y-127301555D01*
X167457506Y-127371135D01*
X167661552Y-127421858D01*
X167672323Y-127423645D01*
X167839570Y-127474614D01*
X167961031Y-127553609D01*
X167972841Y-127567901D01*
X168084869Y-127664332D01*
X168207495Y-127645668D01*
X168310248Y-127557106D01*
X168418268Y-127437745D01*
X168573682Y-127586641D01*
X168756213Y-127710171D01*
X168936098Y-127718143D01*
X169128153Y-127613110D01*
X169252400Y-127464641D01*
X169283794Y-127292072D01*
X169258104Y-127051049D01*
X169189535Y-126870375D01*
X169090834Y-126765465D01*
X168974751Y-126751729D01*
X168884784Y-126809696D01*
X168824165Y-126899533D01*
X168839077Y-127007218D01*
X168862041Y-127061686D01*
X168910781Y-127198424D01*
X168890861Y-127241123D01*
X168804475Y-127190275D01*
X168653814Y-127046376D01*
X168615923Y-127006217D01*
X168471200Y-126862934D01*
X168349183Y-126763499D01*
X168303574Y-126741193D01*
X168303574Y-127221432D01*
X168338678Y-127262979D01*
X168391805Y-127357232D01*
X168371796Y-127369789D01*
X168338678Y-127351584D01*
X168282516Y-127265317D01*
X168280512Y-127244725D01*
X168303574Y-127221432D01*
X168303574Y-126741193D01*
X168283453Y-126731351D01*
X168244466Y-126706133D01*
X168282120Y-126617733D01*
X168303540Y-126583937D01*
X168370513Y-126396755D01*
X168363223Y-126289476D01*
X168356101Y-126175797D01*
X168427838Y-126106950D01*
X168491480Y-126079634D01*
X168659998Y-126048232D01*
X168885066Y-126047833D01*
X168970219Y-126056017D01*
X169283794Y-126095196D01*
X169283794Y-125885132D01*
X169272571Y-125740043D01*
X169245007Y-125656887D01*
X169239492Y-125652438D01*
X169165452Y-125641830D01*
X168999787Y-125630805D01*
X168768996Y-125620838D01*
X168563824Y-125614818D01*
X167932459Y-125599827D01*
X167931414Y-126075355D01*
X167937889Y-126343711D01*
X167961302Y-126518290D01*
X168005510Y-126622725D01*
X168024279Y-126644793D01*
X168082839Y-126721122D01*
X168052367Y-126781505D01*
X167992154Y-126826981D01*
X167897469Y-126940480D01*
X167866314Y-127121689D01*
X167866119Y-127142659D01*
X167858444Y-127288517D01*
X167823883Y-127344485D01*
X167745139Y-127338421D01*
X167744639Y-127338290D01*
X167658250Y-127285081D01*
X167666082Y-127210913D01*
X167699045Y-127093274D01*
X167728277Y-126918044D01*
X167734440Y-126864258D01*
X167761105Y-126710939D01*
X167798098Y-126622112D01*
X167812998Y-126613211D01*
X167861263Y-126565821D01*
X167866119Y-126531990D01*
X167812372Y-126466628D01*
X167672385Y-126413146D01*
X167478044Y-126381481D01*
X167369248Y-126376963D01*
X167369248Y-126496091D01*
X167510980Y-126506979D01*
X167590461Y-126534452D01*
X167623814Y-126620911D01*
X167629840Y-126686820D01*
X167612659Y-126761004D01*
X167539084Y-126775699D01*
X167441210Y-126758377D01*
X167280255Y-126703377D01*
X167179571Y-126637744D01*
X167179571Y-126797370D01*
X167235951Y-126810544D01*
X167391219Y-126844865D01*
X167457462Y-126849490D01*
X167541654Y-126880381D01*
X167570160Y-126991507D01*
X167570771Y-127023214D01*
X167552482Y-127159687D01*
X167511452Y-127233598D01*
X167428724Y-127228891D01*
X167287828Y-127174734D01*
X167214452Y-127136674D01*
X167074264Y-127053537D01*
X167025522Y-127003075D01*
X167055151Y-126962901D01*
X167098414Y-126937987D01*
X167174804Y-126870353D01*
X167173902Y-126822242D01*
X167179571Y-126797370D01*
X167179571Y-126637744D01*
X167166561Y-126629263D01*
X167127653Y-126556779D01*
X167140405Y-126531639D01*
X167226068Y-126504189D01*
X167369248Y-126496091D01*
X167369248Y-126376963D01*
X167368509Y-126376932D01*
X167253740Y-126332211D01*
X167168480Y-126186867D01*
X167167757Y-126184956D01*
X167080708Y-126005217D01*
X166970605Y-125844936D01*
X166859765Y-125730382D01*
X166770505Y-125687827D01*
X166750338Y-125693586D01*
X166690949Y-125774741D01*
X166699448Y-125863598D01*
X166769041Y-125904374D01*
X166868346Y-125952031D01*
X166978630Y-126066787D01*
X167066328Y-126206321D01*
X167098212Y-126319425D01*
X167047825Y-126410740D01*
X166925991Y-126464310D01*
X166921003Y-126464416D01*
X166921003Y-126731351D01*
X166978537Y-126751505D01*
X166980073Y-126757400D01*
X166938681Y-126807832D01*
X166921003Y-126819956D01*
X166866571Y-126815272D01*
X166861933Y-126793907D01*
X166904813Y-126733755D01*
X166921003Y-126731351D01*
X166921003Y-126464416D01*
X166776707Y-126467498D01*
X166687395Y-126437432D01*
X166537934Y-126389393D01*
X166422793Y-126376932D01*
X166382142Y-126366862D01*
X166382142Y-126495072D01*
X166477517Y-126524660D01*
X166519118Y-126626937D01*
X166516687Y-126810173D01*
X166534207Y-126890206D01*
X166587941Y-126888970D01*
X166646388Y-126822005D01*
X166675320Y-126731916D01*
X166700412Y-126644068D01*
X166739779Y-126666108D01*
X166745035Y-126674290D01*
X166760218Y-126795847D01*
X166691518Y-126918902D01*
X166571671Y-126995551D01*
X166427143Y-127009203D01*
X166305794Y-126993147D01*
X166202713Y-126948979D01*
X166161917Y-126860460D01*
X166157760Y-126739715D01*
X166167451Y-126620514D01*
X166185871Y-126587756D01*
X166192217Y-126598444D01*
X166269924Y-126664722D01*
X166312926Y-126672281D01*
X166371574Y-126656355D01*
X166336120Y-126590753D01*
X166330305Y-126583677D01*
X166292258Y-126515783D01*
X166353484Y-126495558D01*
X166382142Y-126495072D01*
X166382142Y-126366862D01*
X166301119Y-126346791D01*
X166271236Y-126288328D01*
X166221615Y-126216257D01*
X166149213Y-126199723D01*
X166021182Y-126176693D01*
X166021182Y-126342621D01*
X166040002Y-126350516D01*
X166069268Y-126422228D01*
X166061373Y-126441047D01*
X165989661Y-126470313D01*
X165979105Y-126465886D01*
X165979105Y-126554142D01*
X166024124Y-126605678D01*
X166022357Y-126731351D01*
X166016904Y-126854941D01*
X166039684Y-126908498D01*
X166040856Y-126908560D01*
X166091211Y-126957073D01*
X166112378Y-127011932D01*
X166138607Y-127106855D01*
X166146244Y-127130072D01*
X166104758Y-127143148D01*
X166064492Y-127144839D01*
X165986130Y-127099720D01*
X165975887Y-127060454D01*
X165936991Y-126951328D01*
X165888929Y-126889111D01*
X165832116Y-126810786D01*
X165869836Y-126746369D01*
X165888279Y-126730524D01*
X165945575Y-126647693D01*
X165942215Y-126606518D01*
X165954942Y-126558205D01*
X165979105Y-126554142D01*
X165979105Y-126465886D01*
X165970842Y-126462419D01*
X165941576Y-126390707D01*
X165949470Y-126371887D01*
X166021182Y-126342621D01*
X166021182Y-126176693D01*
X165991150Y-126171290D01*
X165919039Y-126141842D01*
X165835953Y-126119210D01*
X165788063Y-126184091D01*
X165770565Y-126244623D01*
X165717550Y-126379032D01*
X165661087Y-126450178D01*
X165625749Y-126503871D01*
X165668567Y-126544588D01*
X165711558Y-126599433D01*
X165653799Y-126669961D01*
X165574426Y-126791915D01*
X165570825Y-126929509D01*
X165639414Y-127035263D01*
X165639414Y-127035263D01*
G37*
X165639414Y-127035263D02*
X165683007Y-127057018D01*
X165770453Y-127118048D01*
X165764795Y-127217609D01*
X165752128Y-127304903D01*
X165808901Y-127307856D01*
X165821396Y-127303303D01*
X165902539Y-127306726D01*
X165916817Y-127353437D01*
X165949305Y-127430848D01*
X165975887Y-127440188D01*
X166033280Y-127399298D01*
X166034957Y-127386648D01*
X166081588Y-127355145D01*
X166144950Y-127361873D01*
X166248279Y-127340536D01*
X166310805Y-127250622D01*
X166298674Y-127141485D01*
X166297476Y-127139509D01*
X166326104Y-127104480D01*
X166439103Y-127086430D01*
X166471008Y-127085770D01*
X166619124Y-127070698D01*
X166708779Y-127033820D01*
X166713511Y-127027909D01*
X166781417Y-127005665D01*
X166876174Y-127050773D01*
X166955696Y-127134647D01*
X166980073Y-127208963D01*
X166935241Y-127318965D01*
X166830428Y-127438219D01*
X166710156Y-127520879D01*
X166664633Y-127533769D01*
X166540514Y-127547154D01*
X166522282Y-127549331D01*
X166456355Y-127597427D01*
X166458790Y-127677935D01*
X166522105Y-127732688D01*
X166546241Y-127735537D01*
X166671397Y-127694538D01*
X166827006Y-127593650D01*
X166970731Y-127466035D01*
X167060237Y-127344857D01*
X167066880Y-127327711D01*
X167101553Y-127255722D01*
X167163713Y-127251521D01*
X167275798Y-127301555D01*
X167457506Y-127371135D01*
X167661552Y-127421858D01*
X167672323Y-127423645D01*
X167839570Y-127474614D01*
X167961031Y-127553609D01*
X167972841Y-127567901D01*
X168084869Y-127664332D01*
X168207495Y-127645668D01*
X168310248Y-127557106D01*
X168418268Y-127437745D01*
X168573682Y-127586641D01*
X168756213Y-127710171D01*
X168936098Y-127718143D01*
X169128153Y-127613110D01*
X169252400Y-127464641D01*
X169283794Y-127292072D01*
X169258104Y-127051049D01*
X169189535Y-126870375D01*
X169090834Y-126765465D01*
X168974751Y-126751729D01*
X168884784Y-126809696D01*
X168824165Y-126899533D01*
X168839077Y-127007218D01*
X168862041Y-127061686D01*
X168910781Y-127198424D01*
X168890861Y-127241123D01*
X168804475Y-127190275D01*
X168653814Y-127046376D01*
X168615923Y-127006217D01*
X168471200Y-126862934D01*
X168349183Y-126763499D01*
X168303574Y-126741193D01*
X168303574Y-127221432D01*
X168338678Y-127262979D01*
X168391805Y-127357232D01*
X168371796Y-127369789D01*
X168338678Y-127351584D01*
X168282516Y-127265317D01*
X168280512Y-127244725D01*
X168303574Y-127221432D01*
X168303574Y-126741193D01*
X168283453Y-126731351D01*
X168244466Y-126706133D01*
X168282120Y-126617733D01*
X168303540Y-126583937D01*
X168370513Y-126396755D01*
X168363223Y-126289476D01*
X168356101Y-126175797D01*
X168427838Y-126106950D01*
X168491480Y-126079634D01*
X168659998Y-126048232D01*
X168885066Y-126047833D01*
X168970219Y-126056017D01*
X169283794Y-126095196D01*
X169283794Y-125885132D01*
X169272571Y-125740043D01*
X169245007Y-125656887D01*
X169239492Y-125652438D01*
X169165452Y-125641830D01*
X168999787Y-125630805D01*
X168768996Y-125620838D01*
X168563824Y-125614818D01*
X167932459Y-125599827D01*
X167931414Y-126075355D01*
X167937889Y-126343711D01*
X167961302Y-126518290D01*
X168005510Y-126622725D01*
X168024279Y-126644793D01*
X168082839Y-126721122D01*
X168052367Y-126781505D01*
X167992154Y-126826981D01*
X167897469Y-126940480D01*
X167866314Y-127121689D01*
X167866119Y-127142659D01*
X167858444Y-127288517D01*
X167823883Y-127344485D01*
X167745139Y-127338421D01*
X167744639Y-127338290D01*
X167658250Y-127285081D01*
X167666082Y-127210913D01*
X167699045Y-127093274D01*
X167728277Y-126918044D01*
X167734440Y-126864258D01*
X167761105Y-126710939D01*
X167798098Y-126622112D01*
X167812998Y-126613211D01*
X167861263Y-126565821D01*
X167866119Y-126531990D01*
X167812372Y-126466628D01*
X167672385Y-126413146D01*
X167478044Y-126381481D01*
X167369248Y-126376963D01*
X167369248Y-126496091D01*
X167510980Y-126506979D01*
X167590461Y-126534452D01*
X167623814Y-126620911D01*
X167629840Y-126686820D01*
X167612659Y-126761004D01*
X167539084Y-126775699D01*
X167441210Y-126758377D01*
X167280255Y-126703377D01*
X167179571Y-126637744D01*
X167179571Y-126797370D01*
X167235951Y-126810544D01*
X167391219Y-126844865D01*
X167457462Y-126849490D01*
X167541654Y-126880381D01*
X167570160Y-126991507D01*
X167570771Y-127023214D01*
X167552482Y-127159687D01*
X167511452Y-127233598D01*
X167428724Y-127228891D01*
X167287828Y-127174734D01*
X167214452Y-127136674D01*
X167074264Y-127053537D01*
X167025522Y-127003075D01*
X167055151Y-126962901D01*
X167098414Y-126937987D01*
X167174804Y-126870353D01*
X167173902Y-126822242D01*
X167179571Y-126797370D01*
X167179571Y-126637744D01*
X167166561Y-126629263D01*
X167127653Y-126556779D01*
X167140405Y-126531639D01*
X167226068Y-126504189D01*
X167369248Y-126496091D01*
X167369248Y-126376963D01*
X167368509Y-126376932D01*
X167253740Y-126332211D01*
X167168480Y-126186867D01*
X167167757Y-126184956D01*
X167080708Y-126005217D01*
X166970605Y-125844936D01*
X166859765Y-125730382D01*
X166770505Y-125687827D01*
X166750338Y-125693586D01*
X166690949Y-125774741D01*
X166699448Y-125863598D01*
X166769041Y-125904374D01*
X166868346Y-125952031D01*
X166978630Y-126066787D01*
X167066328Y-126206321D01*
X167098212Y-126319425D01*
X167047825Y-126410740D01*
X166925991Y-126464310D01*
X166921003Y-126464416D01*
X166921003Y-126731351D01*
X166978537Y-126751505D01*
X166980073Y-126757400D01*
X166938681Y-126807832D01*
X166921003Y-126819956D01*
X166866571Y-126815272D01*
X166861933Y-126793907D01*
X166904813Y-126733755D01*
X166921003Y-126731351D01*
X166921003Y-126464416D01*
X166776707Y-126467498D01*
X166687395Y-126437432D01*
X166537934Y-126389393D01*
X166422793Y-126376932D01*
X166382142Y-126366862D01*
X166382142Y-126495072D01*
X166477517Y-126524660D01*
X166519118Y-126626937D01*
X166516687Y-126810173D01*
X166534207Y-126890206D01*
X166587941Y-126888970D01*
X166646388Y-126822005D01*
X166675320Y-126731916D01*
X166700412Y-126644068D01*
X166739779Y-126666108D01*
X166745035Y-126674290D01*
X166760218Y-126795847D01*
X166691518Y-126918902D01*
X166571671Y-126995551D01*
X166427143Y-127009203D01*
X166305794Y-126993147D01*
X166202713Y-126948979D01*
X166161917Y-126860460D01*
X166157760Y-126739715D01*
X166167451Y-126620514D01*
X166185871Y-126587756D01*
X166192217Y-126598444D01*
X166269924Y-126664722D01*
X166312926Y-126672281D01*
X166371574Y-126656355D01*
X166336120Y-126590753D01*
X166330305Y-126583677D01*
X166292258Y-126515783D01*
X166353484Y-126495558D01*
X166382142Y-126495072D01*
X166382142Y-126366862D01*
X166301119Y-126346791D01*
X166271236Y-126288328D01*
X166221615Y-126216257D01*
X166149213Y-126199723D01*
X166021182Y-126176693D01*
X166021182Y-126342621D01*
X166040002Y-126350516D01*
X166069268Y-126422228D01*
X166061373Y-126441047D01*
X165989661Y-126470313D01*
X165979105Y-126465886D01*
X165979105Y-126554142D01*
X166024124Y-126605678D01*
X166022357Y-126731351D01*
X166016904Y-126854941D01*
X166039684Y-126908498D01*
X166040856Y-126908560D01*
X166091211Y-126957073D01*
X166112378Y-127011932D01*
X166138607Y-127106855D01*
X166146244Y-127130072D01*
X166104758Y-127143148D01*
X166064492Y-127144839D01*
X165986130Y-127099720D01*
X165975887Y-127060454D01*
X165936991Y-126951328D01*
X165888929Y-126889111D01*
X165832116Y-126810786D01*
X165869836Y-126746369D01*
X165888279Y-126730524D01*
X165945575Y-126647693D01*
X165942215Y-126606518D01*
X165954942Y-126558205D01*
X165979105Y-126554142D01*
X165979105Y-126465886D01*
X165970842Y-126462419D01*
X165941576Y-126390707D01*
X165949470Y-126371887D01*
X166021182Y-126342621D01*
X166021182Y-126176693D01*
X165991150Y-126171290D01*
X165919039Y-126141842D01*
X165835953Y-126119210D01*
X165788063Y-126184091D01*
X165770565Y-126244623D01*
X165717550Y-126379032D01*
X165661087Y-126450178D01*
X165625749Y-126503871D01*
X165668567Y-126544588D01*
X165711558Y-126599433D01*
X165653799Y-126669961D01*
X165574426Y-126791915D01*
X165570825Y-126929509D01*
X165639414Y-127035263D01*
G36*
X166099551Y-120569917D02*
X166122440Y-120668124D01*
X166172163Y-120703490D01*
X166205846Y-120706235D01*
X166317495Y-120661221D01*
X166354788Y-120609497D01*
X166398046Y-120554388D01*
X166491007Y-120533321D01*
X166663499Y-120541063D01*
X166715721Y-120546179D01*
X166909200Y-120559907D01*
X167019975Y-120545833D01*
X167081581Y-120497246D01*
X167098408Y-120469591D01*
X167144505Y-120369074D01*
X167130810Y-120316308D01*
X167037262Y-120295975D01*
X166866765Y-120292746D01*
X166676201Y-120285718D01*
X166525636Y-120267909D01*
X166482811Y-120256892D01*
X166394621Y-120200801D01*
X166413023Y-120151611D01*
X166526552Y-120120668D01*
X166625654Y-120115537D01*
X166864870Y-120073768D01*
X167020549Y-119948462D01*
X167092691Y-119739619D01*
X167098212Y-119642979D01*
X167058755Y-119405935D01*
X166937511Y-119252564D01*
X166730168Y-119178775D01*
X166600407Y-119170421D01*
X166500467Y-119178758D01*
X166500467Y-119419091D01*
X166658468Y-119428344D01*
X166747677Y-119467848D01*
X166845251Y-119575732D01*
X166848769Y-119715539D01*
X166791050Y-119808374D01*
X166663729Y-119869764D01*
X166529144Y-119844523D01*
X166420072Y-119756828D01*
X166369290Y-119630853D01*
X166394263Y-119515707D01*
X166500467Y-119419091D01*
X166500467Y-119178758D01*
X166413301Y-119186030D01*
X166290616Y-119246693D01*
X166216453Y-119326061D01*
X166110842Y-119542714D01*
X166113326Y-119768621D01*
X166185981Y-119925184D01*
X166244913Y-120020001D01*
X166231043Y-120053140D01*
X166185981Y-120056467D01*
X166131038Y-120082775D01*
X166102632Y-120177499D01*
X166094057Y-120364336D01*
X166094026Y-120381351D01*
X166099551Y-120569917D01*
X166099551Y-120569917D01*
G37*
X166099551Y-120569917D02*
X166122440Y-120668124D01*
X166172163Y-120703490D01*
X166205846Y-120706235D01*
X166317495Y-120661221D01*
X166354788Y-120609497D01*
X166398046Y-120554388D01*
X166491007Y-120533321D01*
X166663499Y-120541063D01*
X166715721Y-120546179D01*
X166909200Y-120559907D01*
X167019975Y-120545833D01*
X167081581Y-120497246D01*
X167098408Y-120469591D01*
X167144505Y-120369074D01*
X167130810Y-120316308D01*
X167037262Y-120295975D01*
X166866765Y-120292746D01*
X166676201Y-120285718D01*
X166525636Y-120267909D01*
X166482811Y-120256892D01*
X166394621Y-120200801D01*
X166413023Y-120151611D01*
X166526552Y-120120668D01*
X166625654Y-120115537D01*
X166864870Y-120073768D01*
X167020549Y-119948462D01*
X167092691Y-119739619D01*
X167098212Y-119642979D01*
X167058755Y-119405935D01*
X166937511Y-119252564D01*
X166730168Y-119178775D01*
X166600407Y-119170421D01*
X166500467Y-119178758D01*
X166500467Y-119419091D01*
X166658468Y-119428344D01*
X166747677Y-119467848D01*
X166845251Y-119575732D01*
X166848769Y-119715539D01*
X166791050Y-119808374D01*
X166663729Y-119869764D01*
X166529144Y-119844523D01*
X166420072Y-119756828D01*
X166369290Y-119630853D01*
X166394263Y-119515707D01*
X166500467Y-119419091D01*
X166500467Y-119178758D01*
X166413301Y-119186030D01*
X166290616Y-119246693D01*
X166216453Y-119326061D01*
X166110842Y-119542714D01*
X166113326Y-119768621D01*
X166185981Y-119925184D01*
X166244913Y-120020001D01*
X166231043Y-120053140D01*
X166185981Y-120056467D01*
X166131038Y-120082775D01*
X166102632Y-120177499D01*
X166094057Y-120364336D01*
X166094026Y-120381351D01*
X166099551Y-120569917D01*
G36*
X166104775Y-122990815D02*
X166155015Y-123037955D01*
X166271743Y-123067533D01*
X166457110Y-123090145D01*
X166737952Y-123117815D01*
X166921896Y-123127596D01*
X167029414Y-123115042D01*
X167080980Y-123075705D01*
X167097069Y-123005137D01*
X167098212Y-122950886D01*
X167080455Y-122822170D01*
X167012146Y-122776170D01*
X166973529Y-122773677D01*
X166848845Y-122773677D01*
X166975119Y-122670304D01*
X167073922Y-122531560D01*
X167131780Y-122301746D01*
X167137566Y-122256816D01*
X167173738Y-121946700D01*
X166625654Y-121946700D01*
X166625654Y-122242049D01*
X166797736Y-122264955D01*
X166864111Y-122330412D01*
X166821175Y-122433526D01*
X166791050Y-122466514D01*
X166656952Y-122533267D01*
X166521613Y-122501740D01*
X166450523Y-122423141D01*
X166400643Y-122313455D01*
X166418970Y-122260273D01*
X166525130Y-122243301D01*
X166625654Y-122242049D01*
X166625654Y-121946700D01*
X166102330Y-121946700D01*
X166116261Y-122249952D01*
X166140149Y-122459318D01*
X166197725Y-122592899D01*
X166266328Y-122663441D01*
X166402463Y-122773677D01*
X166248245Y-122773677D01*
X166131910Y-122796367D01*
X166094864Y-122884576D01*
X166094026Y-122912936D01*
X166104775Y-122990815D01*
X166104775Y-122990815D01*
G37*
X166104775Y-122990815D02*
X166155015Y-123037955D01*
X166271743Y-123067533D01*
X166457110Y-123090145D01*
X166737952Y-123117815D01*
X166921896Y-123127596D01*
X167029414Y-123115042D01*
X167080980Y-123075705D01*
X167097069Y-123005137D01*
X167098212Y-122950886D01*
X167080455Y-122822170D01*
X167012146Y-122776170D01*
X166973529Y-122773677D01*
X166848845Y-122773677D01*
X166975119Y-122670304D01*
X167073922Y-122531560D01*
X167131780Y-122301746D01*
X167137566Y-122256816D01*
X167173738Y-121946700D01*
X166625654Y-121946700D01*
X166625654Y-122242049D01*
X166797736Y-122264955D01*
X166864111Y-122330412D01*
X166821175Y-122433526D01*
X166791050Y-122466514D01*
X166656952Y-122533267D01*
X166521613Y-122501740D01*
X166450523Y-122423141D01*
X166400643Y-122313455D01*
X166418970Y-122260273D01*
X166525130Y-122243301D01*
X166625654Y-122242049D01*
X166625654Y-121946700D01*
X166102330Y-121946700D01*
X166116261Y-122249952D01*
X166140149Y-122459318D01*
X166197725Y-122592899D01*
X166266328Y-122663441D01*
X166402463Y-122773677D01*
X166248245Y-122773677D01*
X166131910Y-122796367D01*
X166094864Y-122884576D01*
X166094026Y-122912936D01*
X166104775Y-122990815D01*
G36*
X166098636Y-119035187D02*
X166128060Y-119078831D01*
X166205686Y-119101486D01*
X166354905Y-119110033D01*
X166596119Y-119111351D01*
X166839256Y-119109995D01*
X166987644Y-119101341D01*
X167064673Y-119078510D01*
X167093732Y-119034622D01*
X167098212Y-118963677D01*
X167093602Y-118892166D01*
X167064179Y-118848522D01*
X166986553Y-118825867D01*
X166837334Y-118817320D01*
X166596119Y-118816002D01*
X166352983Y-118817358D01*
X166204595Y-118826012D01*
X166127566Y-118848843D01*
X166098507Y-118892731D01*
X166094026Y-118963677D01*
X166098636Y-119035187D01*
X166098636Y-119035187D01*
G37*
X166098636Y-119035187D02*
X166128060Y-119078831D01*
X166205686Y-119101486D01*
X166354905Y-119110033D01*
X166596119Y-119111351D01*
X166839256Y-119109995D01*
X166987644Y-119101341D01*
X167064673Y-119078510D01*
X167093732Y-119034622D01*
X167098212Y-118963677D01*
X167093602Y-118892166D01*
X167064179Y-118848522D01*
X166986553Y-118825867D01*
X166837334Y-118817320D01*
X166596119Y-118816002D01*
X166352983Y-118817358D01*
X166204595Y-118826012D01*
X166127566Y-118848843D01*
X166098507Y-118892731D01*
X166094026Y-118963677D01*
X166098636Y-119035187D01*
G36*
X166147320Y-123407667D02*
X166225721Y-123464154D01*
X166357415Y-123522918D01*
X166225721Y-123593399D01*
X166141199Y-123677886D01*
X166096590Y-123793906D01*
X166098652Y-123899428D01*
X166154145Y-123952417D01*
X166167864Y-123953228D01*
X166259468Y-123922941D01*
X166405590Y-123848525D01*
X166477980Y-123805857D01*
X166666203Y-123715524D01*
X166853396Y-123664339D01*
X166906236Y-123660026D01*
X167040389Y-123645881D01*
X167092295Y-123587844D01*
X167098212Y-123523910D01*
X167083520Y-123433597D01*
X167016461Y-123403961D01*
X166896910Y-123411598D01*
X166703112Y-123398668D01*
X166500854Y-123302210D01*
X166469710Y-123281597D01*
X166279167Y-123167175D01*
X166160710Y-123136472D01*
X166103501Y-123189059D01*
X166094026Y-123266743D01*
X166147320Y-123407667D01*
X166147320Y-123407667D01*
G37*
X166147320Y-123407667D02*
X166225721Y-123464154D01*
X166357415Y-123522918D01*
X166225721Y-123593399D01*
X166141199Y-123677886D01*
X166096590Y-123793906D01*
X166098652Y-123899428D01*
X166154145Y-123952417D01*
X166167864Y-123953228D01*
X166259468Y-123922941D01*
X166405590Y-123848525D01*
X166477980Y-123805857D01*
X166666203Y-123715524D01*
X166853396Y-123664339D01*
X166906236Y-123660026D01*
X167040389Y-123645881D01*
X167092295Y-123587844D01*
X167098212Y-123523910D01*
X167083520Y-123433597D01*
X167016461Y-123403961D01*
X166896910Y-123411598D01*
X166703112Y-123398668D01*
X166500854Y-123302210D01*
X166469710Y-123281597D01*
X166279167Y-123167175D01*
X166160710Y-123136472D01*
X166103501Y-123189059D01*
X166094026Y-123266743D01*
X166147320Y-123407667D01*
G36*
X166361115Y-121445238D02*
X166418910Y-121474142D01*
X166497518Y-121506038D01*
X166507515Y-121533211D01*
X166550566Y-121585691D01*
X166649340Y-121581644D01*
X166758263Y-121525343D01*
X166777548Y-121507896D01*
X166852794Y-121362830D01*
X166830549Y-121208565D01*
X166773575Y-121134490D01*
X166663863Y-121074112D01*
X166559888Y-121065702D01*
X166508046Y-121111835D01*
X166507515Y-121119723D01*
X166459671Y-121172129D01*
X166418910Y-121178793D01*
X166347647Y-121230142D01*
X166330305Y-121326467D01*
X166361115Y-121445238D01*
X166361115Y-121445238D01*
G37*
X166361115Y-121445238D02*
X166418910Y-121474142D01*
X166497518Y-121506038D01*
X166507515Y-121533211D01*
X166550566Y-121585691D01*
X166649340Y-121581644D01*
X166758263Y-121525343D01*
X166777548Y-121507896D01*
X166852794Y-121362830D01*
X166830549Y-121208565D01*
X166773575Y-121134490D01*
X166663863Y-121074112D01*
X166559888Y-121065702D01*
X166508046Y-121111835D01*
X166507515Y-121119723D01*
X166459671Y-121172129D01*
X166418910Y-121178793D01*
X166347647Y-121230142D01*
X166330305Y-121326467D01*
X166361115Y-121445238D01*
G36*
X166411526Y-124494084D02*
X166437487Y-124638914D01*
X166448443Y-124729877D01*
X166448445Y-124730363D01*
X166500395Y-124764532D01*
X166628128Y-124781605D01*
X166655189Y-124782049D01*
X166787560Y-124774896D01*
X166846387Y-124730729D01*
X166861471Y-124615490D01*
X166861933Y-124545770D01*
X166861933Y-124309490D01*
X166618271Y-124309490D01*
X166464947Y-124314144D01*
X166401331Y-124345027D01*
X166398994Y-124427521D01*
X166411526Y-124494084D01*
X166411526Y-124494084D01*
G37*
X166411526Y-124494084D02*
X166437487Y-124638914D01*
X166448443Y-124729877D01*
X166448445Y-124730363D01*
X166500395Y-124764532D01*
X166628128Y-124781605D01*
X166655189Y-124782049D01*
X166787560Y-124774896D01*
X166846387Y-124730729D01*
X166861471Y-124615490D01*
X166861933Y-124545770D01*
X166861933Y-124309490D01*
X166618271Y-124309490D01*
X166464947Y-124314144D01*
X166401331Y-124345027D01*
X166398994Y-124427521D01*
X166411526Y-124494084D01*
G36*
X166257117Y-126906844D02*
X166271236Y-126908560D01*
X166328589Y-126863610D01*
X166330305Y-126849490D01*
X166285355Y-126792137D01*
X166271236Y-126790421D01*
X166213882Y-126835371D01*
X166212166Y-126849490D01*
X166257117Y-126906844D01*
X166257117Y-126906844D01*
G37*
X166257117Y-126906844D02*
X166271236Y-126908560D01*
X166328589Y-126863610D01*
X166330305Y-126849490D01*
X166285355Y-126792137D01*
X166271236Y-126790421D01*
X166213882Y-126835371D01*
X166212166Y-126849490D01*
X166257117Y-126906844D01*
G04 #@! TD*
M02*
