G04 #@! TF.GenerationSoftware,KiCad,Pcbnew,(5.0.2)-1*
G04 #@! TF.CreationDate,2019-05-25T20:10:37+08:00*
G04 #@! TF.ProjectId,3RELAY,3352454c-4159-42e6-9b69-6361645f7063,rev?*
G04 #@! TF.SameCoordinates,Original*
G04 #@! TF.FileFunction,Legend,Top*
G04 #@! TF.FilePolarity,Positive*
%FSLAX46Y46*%
G04 Gerber Fmt 4.6, Leading zero omitted, Abs format (unit mm)*
G04 Created by KiCad (PCBNEW (5.0.2)-1) date 2019-05-25 20:10:37*
%MOMM*%
%LPD*%
G01*
G04 APERTURE LIST*
%ADD10C,0.200000*%
%ADD11C,0.120000*%
%ADD12C,0.254000*%
%ADD13C,0.500000*%
%ADD14C,0.150000*%
G04 APERTURE END LIST*
D10*
X173390940Y-111429515D02*
X173343320Y-111524753D01*
X173343320Y-111667610D01*
X173390940Y-111810467D01*
X173486178Y-111905705D01*
X173581416Y-111953324D01*
X173771892Y-112000943D01*
X173914749Y-112000943D01*
X174105225Y-111953324D01*
X174200463Y-111905705D01*
X174295701Y-111810467D01*
X174343320Y-111667610D01*
X174343320Y-111572372D01*
X174295701Y-111429515D01*
X174248082Y-111381896D01*
X173914749Y-111381896D01*
X173914749Y-111572372D01*
X168728140Y-106784116D02*
X168728140Y-107260306D01*
X169204331Y-107307925D01*
X169156712Y-107260306D01*
X169109093Y-107165068D01*
X169109093Y-106926973D01*
X169156712Y-106831735D01*
X169204331Y-106784116D01*
X169299569Y-106736497D01*
X169537664Y-106736497D01*
X169632902Y-106784116D01*
X169680521Y-106831735D01*
X169728140Y-106926973D01*
X169728140Y-107165068D01*
X169680521Y-107260306D01*
X169632902Y-107307925D01*
X168728140Y-106450782D02*
X169728140Y-106117449D01*
X168728140Y-105784116D01*
X168684320Y-101340635D02*
X168636700Y-101435873D01*
X168636700Y-101578730D01*
X168684320Y-101721587D01*
X168779558Y-101816825D01*
X168874796Y-101864444D01*
X169065272Y-101912063D01*
X169208129Y-101912063D01*
X169398605Y-101864444D01*
X169493843Y-101816825D01*
X169589081Y-101721587D01*
X169636700Y-101578730D01*
X169636700Y-101483492D01*
X169589081Y-101340635D01*
X169541462Y-101293016D01*
X169208129Y-101293016D01*
X169208129Y-101483492D01*
X169756080Y-104801895D02*
X168756080Y-104801895D01*
X168756080Y-104563800D01*
X168803700Y-104420942D01*
X168898938Y-104325704D01*
X168994176Y-104278085D01*
X169184652Y-104230466D01*
X169327509Y-104230466D01*
X169517985Y-104278085D01*
X169613223Y-104325704D01*
X169708461Y-104420942D01*
X169756080Y-104563800D01*
X169756080Y-104801895D01*
X169089414Y-103373323D02*
X169756080Y-103373323D01*
X168708461Y-103611419D02*
X169422747Y-103849514D01*
X169422747Y-103230466D01*
X174280624Y-110627134D02*
X174328243Y-110484277D01*
X174328243Y-110246182D01*
X174280624Y-110150944D01*
X174233005Y-110103325D01*
X174137767Y-110055706D01*
X174042529Y-110055706D01*
X173947291Y-110103325D01*
X173899672Y-110150944D01*
X173852053Y-110246182D01*
X173804434Y-110436658D01*
X173756815Y-110531896D01*
X173709196Y-110579515D01*
X173613958Y-110627134D01*
X173518720Y-110627134D01*
X173423482Y-110579515D01*
X173375863Y-110531896D01*
X173328243Y-110436658D01*
X173328243Y-110198563D01*
X173375863Y-110055706D01*
X173328243Y-109722372D02*
X173328243Y-109103325D01*
X173709196Y-109436658D01*
X173709196Y-109293801D01*
X173756815Y-109198563D01*
X173804434Y-109150944D01*
X173899672Y-109103325D01*
X174137767Y-109103325D01*
X174233005Y-109150944D01*
X174280624Y-109198563D01*
X174328243Y-109293801D01*
X174328243Y-109579515D01*
X174280624Y-109674753D01*
X174233005Y-109722372D01*
X173371423Y-102367126D02*
X173371423Y-102843316D01*
X173847614Y-102890935D01*
X173799995Y-102843316D01*
X173752376Y-102748078D01*
X173752376Y-102509983D01*
X173799995Y-102414745D01*
X173847614Y-102367126D01*
X173942852Y-102319507D01*
X174180947Y-102319507D01*
X174276185Y-102367126D01*
X174323804Y-102414745D01*
X174371423Y-102509983D01*
X174371423Y-102748078D01*
X174323804Y-102843316D01*
X174276185Y-102890935D01*
X173371423Y-102033792D02*
X174371423Y-101700459D01*
X173371423Y-101367126D01*
X174303484Y-107949974D02*
X174351103Y-107807117D01*
X174351103Y-107569022D01*
X174303484Y-107473784D01*
X174255865Y-107426165D01*
X174160627Y-107378546D01*
X174065389Y-107378546D01*
X173970151Y-107426165D01*
X173922532Y-107473784D01*
X173874913Y-107569022D01*
X173827294Y-107759498D01*
X173779675Y-107854736D01*
X173732056Y-107902355D01*
X173636818Y-107949974D01*
X173541580Y-107949974D01*
X173446342Y-107902355D01*
X173398723Y-107854736D01*
X173351103Y-107759498D01*
X173351103Y-107521403D01*
X173398723Y-107378546D01*
X173446342Y-106997593D02*
X173398723Y-106949974D01*
X173351103Y-106854736D01*
X173351103Y-106616641D01*
X173398723Y-106521403D01*
X173446342Y-106473784D01*
X173541580Y-106426165D01*
X173636818Y-106426165D01*
X173779675Y-106473784D01*
X174351103Y-107045212D01*
X174351103Y-106426165D01*
X174323804Y-105432834D02*
X174371423Y-105289977D01*
X174371423Y-105051882D01*
X174323804Y-104956644D01*
X174276185Y-104909025D01*
X174180947Y-104861406D01*
X174085709Y-104861406D01*
X173990471Y-104909025D01*
X173942852Y-104956644D01*
X173895233Y-105051882D01*
X173847614Y-105242358D01*
X173799995Y-105337596D01*
X173752376Y-105385215D01*
X173657138Y-105432834D01*
X173561900Y-105432834D01*
X173466662Y-105385215D01*
X173419043Y-105337596D01*
X173371423Y-105242358D01*
X173371423Y-105004263D01*
X173419043Y-104861406D01*
X174371423Y-103909025D02*
X174371423Y-104480453D01*
X174371423Y-104194739D02*
X173371423Y-104194739D01*
X173514281Y-104289977D01*
X173609519Y-104385215D01*
X173657138Y-104480453D01*
G04 #@! TO.C,R2*
X170270980Y-118046440D02*
X171405980Y-118046440D01*
X173340980Y-119626440D02*
X173340980Y-118046440D01*
X170270980Y-119626440D02*
X170270980Y-118046440D01*
X172205980Y-118046440D02*
X173340980Y-118046440D01*
X170270980Y-119626440D02*
X171405980Y-119626440D01*
X172205980Y-119626440D02*
X173340980Y-119626440D01*
G04 #@! TO.C,R4*
X170268060Y-120114000D02*
X171403060Y-120114000D01*
X173338060Y-121694000D02*
X173338060Y-120114000D01*
X170268060Y-121694000D02*
X170268060Y-120114000D01*
X172203060Y-120114000D02*
X173338060Y-120114000D01*
X170268060Y-121694000D02*
X171403060Y-121694000D01*
X172203060Y-121694000D02*
X173338060Y-121694000D01*
G04 #@! TO.C,R3*
X175642220Y-121635580D02*
X176777220Y-121635580D01*
X173707220Y-121635580D02*
X174842220Y-121635580D01*
X175642220Y-120055580D02*
X176777220Y-120055580D01*
X173707220Y-121635580D02*
X173707220Y-120055580D01*
X176777220Y-121635580D02*
X176777220Y-120055580D01*
X173707220Y-120055580D02*
X174842220Y-120055580D01*
G04 #@! TO.C,R1*
X175634980Y-119646760D02*
X176769980Y-119646760D01*
X173699980Y-119646760D02*
X174834980Y-119646760D01*
X175634980Y-118066760D02*
X176769980Y-118066760D01*
X173699980Y-119646760D02*
X173699980Y-118066760D01*
X176769980Y-119646760D02*
X176769980Y-118066760D01*
X173699980Y-118066760D02*
X174834980Y-118066760D01*
G04 #@! TO.C,R6*
X170329020Y-122054560D02*
X171464020Y-122054560D01*
X173399020Y-123634560D02*
X173399020Y-122054560D01*
X170329020Y-123634560D02*
X170329020Y-122054560D01*
X172264020Y-122054560D02*
X173399020Y-122054560D01*
X170329020Y-123634560D02*
X171464020Y-123634560D01*
X172264020Y-123634560D02*
X173399020Y-123634560D01*
G04 #@! TO.C,R5*
X175672320Y-123657420D02*
X176807320Y-123657420D01*
X173737320Y-123657420D02*
X174872320Y-123657420D01*
X175672320Y-122077420D02*
X176807320Y-122077420D01*
X173737320Y-123657420D02*
X173737320Y-122077420D01*
X176807320Y-123657420D02*
X176807320Y-122077420D01*
X173737320Y-122077420D02*
X174872320Y-122077420D01*
D11*
G04 #@! TO.C,J7*
X170221600Y-107877920D02*
X172881600Y-107877920D01*
G04 #@! TO.C,J4*
X175141580Y-112825840D02*
X177801580Y-112825840D01*
X175141580Y-102605840D02*
X175141580Y-112825840D01*
X177801580Y-102605840D02*
X177801580Y-112825840D01*
X175141580Y-102605840D02*
X177801580Y-102605840D01*
X175141580Y-101335840D02*
X175141580Y-100005840D01*
X175141580Y-100005840D02*
X176471580Y-100005840D01*
D10*
G04 #@! TO.C,D3*
X160384620Y-124591040D02*
X160384620Y-123191040D01*
X160084620Y-124591040D02*
X160084620Y-123191040D01*
X161084620Y-124591040D02*
X161084620Y-123191040D01*
X160084620Y-124591040D02*
X161084620Y-124591040D01*
X160084620Y-123191040D02*
X161084620Y-123191040D01*
D12*
G04 #@! TO.C,Q3*
X165463460Y-122496680D02*
X165463460Y-121836680D01*
X165463460Y-122496680D02*
X165463460Y-121836680D01*
X165463460Y-122496680D02*
X165463460Y-121836680D01*
X165463460Y-121836680D02*
X166278460Y-121836680D01*
X165463460Y-124756680D02*
X166278460Y-124756680D01*
X165463460Y-124756680D02*
X165463460Y-124096680D01*
D10*
X167013460Y-123596680D02*
X167013460Y-122996680D01*
D11*
G04 #@! TO.C,C1*
X170962320Y-113967260D02*
X174035720Y-113967260D01*
D13*
X170568620Y-114105690D02*
X170568620Y-114103150D01*
D10*
G04 #@! TO.C,D2*
X160502520Y-120455920D02*
X160502520Y-119055920D01*
X160202520Y-120455920D02*
X160202520Y-119055920D01*
X161202520Y-120455920D02*
X161202520Y-119055920D01*
X160202520Y-120455920D02*
X161202520Y-120455920D01*
X160202520Y-119055920D02*
X161202520Y-119055920D01*
D12*
G04 #@! TO.C,Q2*
X165437740Y-118706960D02*
X165437740Y-118046960D01*
X165437740Y-118706960D02*
X165437740Y-118046960D01*
X165437740Y-118706960D02*
X165437740Y-118046960D01*
X165437740Y-118046960D02*
X166252740Y-118046960D01*
X165437740Y-120966960D02*
X166252740Y-120966960D01*
X165437740Y-120966960D02*
X165437740Y-120306960D01*
D10*
X166987740Y-119806960D02*
X166987740Y-119206960D01*
D11*
G04 #@! TO.C,F1*
X141454240Y-104603620D02*
X141454240Y-113343620D01*
X141454240Y-104603620D02*
X137214240Y-104603620D01*
X137214240Y-113343620D02*
X141454240Y-113343620D01*
X137214240Y-113343620D02*
X137214240Y-104603620D01*
D14*
G04 #@! TO.C,TH1*
X141573760Y-99974140D02*
X134573760Y-99974140D01*
X141573760Y-104174140D02*
X134573760Y-104174140D01*
X134573760Y-104174140D02*
X134573760Y-99974140D01*
X141573760Y-104174140D02*
X141573760Y-99974140D01*
D10*
G04 #@! TO.C,D1*
X160428860Y-116145540D02*
X160428860Y-114745540D01*
X160128860Y-116145540D02*
X160128860Y-114745540D01*
X161128860Y-116145540D02*
X161128860Y-114745540D01*
X160128860Y-116145540D02*
X161128860Y-116145540D01*
X160128860Y-114745540D02*
X161128860Y-114745540D01*
G04 #@! TO.C,Q1*
X167015680Y-116159520D02*
X167015680Y-115559520D01*
D12*
X165465680Y-117319520D02*
X165465680Y-116659520D01*
X165465680Y-117319520D02*
X166280680Y-117319520D01*
X165465680Y-114399520D02*
X166280680Y-114399520D01*
X165465680Y-115059520D02*
X165465680Y-114399520D01*
X165465680Y-115059520D02*
X165465680Y-114399520D01*
X165465680Y-115059520D02*
X165465680Y-114399520D01*
G04 #@! TO.C,R2*
D14*
X169195766Y-119221204D02*
X168929100Y-118840252D01*
X168738623Y-119221204D02*
X168738623Y-118421204D01*
X169043385Y-118421204D01*
X169119576Y-118459300D01*
X169157671Y-118497395D01*
X169195766Y-118573585D01*
X169195766Y-118687871D01*
X169157671Y-118764061D01*
X169119576Y-118802157D01*
X169043385Y-118840252D01*
X168738623Y-118840252D01*
X169500528Y-118497395D02*
X169538623Y-118459300D01*
X169614814Y-118421204D01*
X169805290Y-118421204D01*
X169881480Y-118459300D01*
X169919576Y-118497395D01*
X169957671Y-118573585D01*
X169957671Y-118649776D01*
X169919576Y-118764061D01*
X169462433Y-119221204D01*
X169957671Y-119221204D01*
G04 #@! TO.C,R4*
X169195766Y-121235424D02*
X168929100Y-120854472D01*
X168738623Y-121235424D02*
X168738623Y-120435424D01*
X169043385Y-120435424D01*
X169119576Y-120473520D01*
X169157671Y-120511615D01*
X169195766Y-120587805D01*
X169195766Y-120702091D01*
X169157671Y-120778281D01*
X169119576Y-120816377D01*
X169043385Y-120854472D01*
X168738623Y-120854472D01*
X169881480Y-120702091D02*
X169881480Y-121235424D01*
X169691004Y-120397329D02*
X169500528Y-120968758D01*
X169995766Y-120968758D01*
G04 #@! TO.C,R3*
X177664126Y-121334484D02*
X177397460Y-120953532D01*
X177206983Y-121334484D02*
X177206983Y-120534484D01*
X177511745Y-120534484D01*
X177587936Y-120572580D01*
X177626031Y-120610675D01*
X177664126Y-120686865D01*
X177664126Y-120801151D01*
X177626031Y-120877341D01*
X177587936Y-120915437D01*
X177511745Y-120953532D01*
X177206983Y-120953532D01*
X177930793Y-120534484D02*
X178426031Y-120534484D01*
X178159364Y-120839246D01*
X178273650Y-120839246D01*
X178349840Y-120877341D01*
X178387936Y-120915437D01*
X178426031Y-120991627D01*
X178426031Y-121182103D01*
X178387936Y-121258294D01*
X178349840Y-121296389D01*
X178273650Y-121334484D01*
X178045079Y-121334484D01*
X177968888Y-121296389D01*
X177930793Y-121258294D01*
G04 #@! TO.C,R1*
X177702226Y-119190724D02*
X177435560Y-118809772D01*
X177245083Y-119190724D02*
X177245083Y-118390724D01*
X177549845Y-118390724D01*
X177626036Y-118428820D01*
X177664131Y-118466915D01*
X177702226Y-118543105D01*
X177702226Y-118657391D01*
X177664131Y-118733581D01*
X177626036Y-118771677D01*
X177549845Y-118809772D01*
X177245083Y-118809772D01*
X178464131Y-119190724D02*
X178006988Y-119190724D01*
X178235560Y-119190724D02*
X178235560Y-118390724D01*
X178159369Y-118505010D01*
X178083179Y-118581200D01*
X178006988Y-118619296D01*
G04 #@! TO.C,R6*
X169137346Y-123381724D02*
X168870680Y-123000772D01*
X168680203Y-123381724D02*
X168680203Y-122581724D01*
X168984965Y-122581724D01*
X169061156Y-122619820D01*
X169099251Y-122657915D01*
X169137346Y-122734105D01*
X169137346Y-122848391D01*
X169099251Y-122924581D01*
X169061156Y-122962677D01*
X168984965Y-123000772D01*
X168680203Y-123000772D01*
X169823060Y-122581724D02*
X169670680Y-122581724D01*
X169594489Y-122619820D01*
X169556394Y-122657915D01*
X169480203Y-122772200D01*
X169442108Y-122924581D01*
X169442108Y-123229343D01*
X169480203Y-123305534D01*
X169518299Y-123343629D01*
X169594489Y-123381724D01*
X169746870Y-123381724D01*
X169823060Y-123343629D01*
X169861156Y-123305534D01*
X169899251Y-123229343D01*
X169899251Y-123038867D01*
X169861156Y-122962677D01*
X169823060Y-122924581D01*
X169746870Y-122886486D01*
X169594489Y-122886486D01*
X169518299Y-122924581D01*
X169480203Y-122962677D01*
X169442108Y-123038867D01*
G04 #@! TO.C,R5*
X177753026Y-123384264D02*
X177486360Y-123003312D01*
X177295883Y-123384264D02*
X177295883Y-122584264D01*
X177600645Y-122584264D01*
X177676836Y-122622360D01*
X177714931Y-122660455D01*
X177753026Y-122736645D01*
X177753026Y-122850931D01*
X177714931Y-122927121D01*
X177676836Y-122965217D01*
X177600645Y-123003312D01*
X177295883Y-123003312D01*
X178476836Y-122584264D02*
X178095883Y-122584264D01*
X178057788Y-122965217D01*
X178095883Y-122927121D01*
X178172074Y-122889026D01*
X178362550Y-122889026D01*
X178438740Y-122927121D01*
X178476836Y-122965217D01*
X178514931Y-123041407D01*
X178514931Y-123231883D01*
X178476836Y-123308074D01*
X178438740Y-123346169D01*
X178362550Y-123384264D01*
X178172074Y-123384264D01*
X178095883Y-123346169D01*
X178057788Y-123308074D01*
G04 #@! TO.C,D3*
X160044203Y-122574004D02*
X160044203Y-121774004D01*
X160234680Y-121774004D01*
X160348965Y-121812100D01*
X160425156Y-121888290D01*
X160463251Y-121964480D01*
X160501346Y-122116861D01*
X160501346Y-122231147D01*
X160463251Y-122383528D01*
X160425156Y-122459719D01*
X160348965Y-122535909D01*
X160234680Y-122574004D01*
X160044203Y-122574004D01*
X160768013Y-121774004D02*
X161263251Y-121774004D01*
X160996584Y-122078766D01*
X161110870Y-122078766D01*
X161187060Y-122116861D01*
X161225156Y-122154957D01*
X161263251Y-122231147D01*
X161263251Y-122421623D01*
X161225156Y-122497814D01*
X161187060Y-122535909D01*
X161110870Y-122574004D01*
X160882299Y-122574004D01*
X160806108Y-122535909D01*
X160768013Y-122497814D01*
G04 #@! TO.C,Q3*
X163790641Y-122838459D02*
X163695403Y-122790840D01*
X163600165Y-122695601D01*
X163457308Y-122552744D01*
X163362070Y-122505125D01*
X163266832Y-122505125D01*
X163314451Y-122743220D02*
X163219213Y-122695601D01*
X163123975Y-122600363D01*
X163076356Y-122409887D01*
X163076356Y-122076554D01*
X163123975Y-121886078D01*
X163219213Y-121790840D01*
X163314451Y-121743220D01*
X163504927Y-121743220D01*
X163600165Y-121790840D01*
X163695403Y-121886078D01*
X163743022Y-122076554D01*
X163743022Y-122409887D01*
X163695403Y-122600363D01*
X163600165Y-122695601D01*
X163504927Y-122743220D01*
X163314451Y-122743220D01*
X164076356Y-121743220D02*
X164695403Y-121743220D01*
X164362070Y-122124173D01*
X164504927Y-122124173D01*
X164600165Y-122171792D01*
X164647784Y-122219411D01*
X164695403Y-122314649D01*
X164695403Y-122552744D01*
X164647784Y-122647982D01*
X164600165Y-122695601D01*
X164504927Y-122743220D01*
X164219213Y-122743220D01*
X164123975Y-122695601D01*
X164076356Y-122647982D01*
G04 #@! TO.C,C1*
X172147953Y-113638602D02*
X172100334Y-113686221D01*
X171957477Y-113733840D01*
X171862239Y-113733840D01*
X171719381Y-113686221D01*
X171624143Y-113590983D01*
X171576524Y-113495745D01*
X171528905Y-113305269D01*
X171528905Y-113162412D01*
X171576524Y-112971936D01*
X171624143Y-112876698D01*
X171719381Y-112781460D01*
X171862239Y-112733840D01*
X171957477Y-112733840D01*
X172100334Y-112781460D01*
X172147953Y-112829079D01*
X173100334Y-113733840D02*
X172528905Y-113733840D01*
X172814620Y-113733840D02*
X172814620Y-112733840D01*
X172719381Y-112876698D01*
X172624143Y-112971936D01*
X172528905Y-113019555D01*
G04 #@! TO.C,D2*
X160120403Y-118637004D02*
X160120403Y-117837004D01*
X160310880Y-117837004D01*
X160425165Y-117875100D01*
X160501356Y-117951290D01*
X160539451Y-118027480D01*
X160577546Y-118179861D01*
X160577546Y-118294147D01*
X160539451Y-118446528D01*
X160501356Y-118522719D01*
X160425165Y-118598909D01*
X160310880Y-118637004D01*
X160120403Y-118637004D01*
X160882308Y-117913195D02*
X160920403Y-117875100D01*
X160996594Y-117837004D01*
X161187070Y-117837004D01*
X161263260Y-117875100D01*
X161301356Y-117913195D01*
X161339451Y-117989385D01*
X161339451Y-118065576D01*
X161301356Y-118179861D01*
X160844213Y-118637004D01*
X161339451Y-118637004D01*
G04 #@! TO.C,Q2*
X163882081Y-118911619D02*
X163786843Y-118864000D01*
X163691605Y-118768761D01*
X163548748Y-118625904D01*
X163453510Y-118578285D01*
X163358272Y-118578285D01*
X163405891Y-118816380D02*
X163310653Y-118768761D01*
X163215415Y-118673523D01*
X163167796Y-118483047D01*
X163167796Y-118149714D01*
X163215415Y-117959238D01*
X163310653Y-117864000D01*
X163405891Y-117816380D01*
X163596367Y-117816380D01*
X163691605Y-117864000D01*
X163786843Y-117959238D01*
X163834462Y-118149714D01*
X163834462Y-118483047D01*
X163786843Y-118673523D01*
X163691605Y-118768761D01*
X163596367Y-118816380D01*
X163405891Y-118816380D01*
X164215415Y-117911619D02*
X164263034Y-117864000D01*
X164358272Y-117816380D01*
X164596367Y-117816380D01*
X164691605Y-117864000D01*
X164739224Y-117911619D01*
X164786843Y-118006857D01*
X164786843Y-118102095D01*
X164739224Y-118244952D01*
X164167796Y-118816380D01*
X164786843Y-118816380D01*
G04 #@! TO.C,F1*
X139549991Y-109464433D02*
X139549991Y-109797766D01*
X140073800Y-109797766D02*
X139073800Y-109797766D01*
X139073800Y-109321576D01*
X140073800Y-108416814D02*
X140073800Y-108988242D01*
X140073800Y-108702528D02*
X139073800Y-108702528D01*
X139216658Y-108797766D01*
X139311896Y-108893004D01*
X139359515Y-108988242D01*
G04 #@! TO.C,TH1*
X136793765Y-101527360D02*
X137365194Y-101527360D01*
X137079480Y-102527360D02*
X137079480Y-101527360D01*
X137698527Y-102527360D02*
X137698527Y-101527360D01*
X137698527Y-102003551D02*
X138269956Y-102003551D01*
X138269956Y-102527360D02*
X138269956Y-101527360D01*
X139269956Y-102527360D02*
X138698527Y-102527360D01*
X138984241Y-102527360D02*
X138984241Y-101527360D01*
X138889003Y-101670218D01*
X138793765Y-101765456D01*
X138698527Y-101813075D01*
G04 #@! TO.C,D1*
X160158503Y-114341864D02*
X160158503Y-113541864D01*
X160348980Y-113541864D01*
X160463265Y-113579960D01*
X160539456Y-113656150D01*
X160577551Y-113732340D01*
X160615646Y-113884721D01*
X160615646Y-113999007D01*
X160577551Y-114151388D01*
X160539456Y-114227579D01*
X160463265Y-114303769D01*
X160348980Y-114341864D01*
X160158503Y-114341864D01*
X161377551Y-114341864D02*
X160920408Y-114341864D01*
X161148980Y-114341864D02*
X161148980Y-113541864D01*
X161072789Y-113656150D01*
X160996599Y-113732340D01*
X160920408Y-113770436D01*
G04 #@! TO.C,Q1*
X164031941Y-115373399D02*
X163936703Y-115325780D01*
X163841465Y-115230541D01*
X163698608Y-115087684D01*
X163603370Y-115040065D01*
X163508132Y-115040065D01*
X163555751Y-115278160D02*
X163460513Y-115230541D01*
X163365275Y-115135303D01*
X163317656Y-114944827D01*
X163317656Y-114611494D01*
X163365275Y-114421018D01*
X163460513Y-114325780D01*
X163555751Y-114278160D01*
X163746227Y-114278160D01*
X163841465Y-114325780D01*
X163936703Y-114421018D01*
X163984322Y-114611494D01*
X163984322Y-114944827D01*
X163936703Y-115135303D01*
X163841465Y-115230541D01*
X163746227Y-115278160D01*
X163555751Y-115278160D01*
X164936703Y-115278160D02*
X164365275Y-115278160D01*
X164650989Y-115278160D02*
X164650989Y-114278160D01*
X164555751Y-114421018D01*
X164460513Y-114516256D01*
X164365275Y-114563875D01*
G04 #@! TD*
M02*
